<?xml version="1.0" encoding="UTF-8"?>
<svg id="Capa_1" data-name="Capa 1" xmlns="http://www.w3.org/2000/svg" viewBox="0 0 372.21 372.15">
  <defs>
    <style>
      .cls-1 {
        fill: #eee;
        stroke-width: 0px;
      }
    </style>
  </defs>
  <path class="cls-1" d="M60.03,84.07c0-4.46.02-8.58,0-12.7-.03-5.13,1.74-9.56,5.35-13.17,17.57-17.61,35.16-35.2,52.78-52.77C121.87,1.73,126.41,0,131.69,0c61.88.02,123.77,0,185.65.03,11.17,0,18.74,7.68,18.76,18.95.04,24.63.01,49.25.01,73.88,0,1.37,0,2.73,0,3.43,4.33,0,8.55-.52,12.59.1,10.78,1.65,18.33,7.78,21.87,18.13,3.61,10.53,1.18,20.06-6.52,27.99-9.49,9.78-19.22,19.32-28.89,28.92-.97.96-2.23,1.62-3.27,2.36,9.14,16.53,15.47,33.17,18.8,50.84,1.34,7.1,1.92,14.34,2.92,21.51,2.51,18.04,4.96,36.08,7.64,54.09,1.63,10.99,3.65,21.92,5.48,32.88.14.84.1,1.71.15,2.9h-234.49c-.34,4.13-.35,8-1.03,11.75-2.5,13.78-14.44,24.11-28.47,24.22-24.5.2-49.01.22-73.51,0-16.49-.14-29.33-13.51-29.35-30.31-.07-48.75-.03-97.5-.03-146.25,0-14.63-.01-29.25,0-43.88.03-34.91,23.32-61.83,57.9-66.94.6-.09,1.19-.3,2.11-.55ZM72.21,84.24c1.97.31,3.81.53,5.63.89,32.31,6.37,54.18,32.99,54.2,66.05.03,56.12,0,112.24,0,168.36v4.22h143.82v-11.81h-131.53v-155.91h4.4c26.25,0,52.5-.03,78.76.05,2.51,0,4.39-.53,6.28-2.38,5.04-4.91,11.11-8.44,18.15-8.93,9.95-.69,19.96-.63,29.95-.68,2.56-.01,4.41-.64,6.23-2.5,11.14-11.31,22.37-22.53,33.67-33.68,1.77-1.74,2.36-3.5,2.36-5.91-.07-27.12-.04-54.25-.05-81.37,0-6.88-1.75-8.63-8.63-8.63-59.75,0-119.51,0-179.26,0h-4.16c0,14,.03,27.49-.01,40.97-.04,11.43-7.63,18.99-19.08,19.03-12.25.04-24.5,0-36.75,0-1.32,0-2.64,0-4,0v12.21ZM12.02,149.9c-.05,29.69,24.09,54.03,53.69,54.14,29.87.11,54.28-24.09,54.33-53.88.05-29.69-24.09-54.02-53.7-54.13-29.89-.11-54.28,24.07-54.33,53.87ZM120.05,188.64c-3.63,3.81-6.96,7.11-10.02,10.64-1.02,1.17-1.88,2.93-1.9,4.44-.15,11.75-.06,23.49-.1,35.24-.03,8.19-4.89,13.06-13.08,13.08-19.25.03-38.5.03-57.75,0-8.39-.01-13.16-4.87-13.18-13.35-.02-11.62,0-23.24-.03-34.87,0-1.09.12-2.63-.51-3.19-4.03-3.57-8.25-6.93-12.41-10.35.31-.36.62-.71.94-1.07,0,1,0,1.99,0,2.99,0,49.36,0,98.73,0,148.09,0,12.44,7.35,19.76,19.84,19.77,22.75.01,45.5.01,68.24,0,12.7,0,19.94-7.28,19.94-20.04,0-49.11,0-98.23,0-147.34v-4.04ZM323.4,183.42c-1.26,1.19-2.17,2.01-3.04,2.88-10.44,10.43-20.7,21.03-31.37,31.21-4.64,4.43-8.29,8.8-6.99,15.66.03.17-.22.4-.34.61h-11.56c0-1.64,0-3,0-4.37,0-12.38.06-24.75-.03-37.13-.05-6.98-4.78-11.73-11.76-12.04-.07.6-.2,1.21-.2,1.81,0,17.75-.11,35.5.05,53.25.08,9.27,4.01,16.89,11.15,22.8,3.95,3.27,7.89,6.56,12.06,9.53,1.27.9,3.45,1.33,4.96.95,10.04-2.54,20.01-5.36,30-8.09,8.52-2.32,17.03-4.64,25.66-6.99-.92-24.8-6.89-47.88-18.58-70.07ZM283.04,207.04c2.82-2.97,5.59-6.01,8.48-8.91,21.01-21.04,42.02-42.07,63.08-63.06,4.18-4.17,6.43-8.94,5.16-14.84-1.25-5.82-4.82-9.79-10.59-11.52-5.95-1.78-11.09-.15-15.41,4.17-19.62,19.6-39.23,39.21-58.82,58.84-.57.57-1,1.28-1.63,2.1,11.19,8.76,8.43,21.16,9.73,33.22ZM343.28,265.61c-18.52,5.05-36.76,10.03-54.98,15v43.2h64.68c-3.24-19.46-6.43-38.63-9.69-58.2ZM156.24,191.87h65.71c.37-7.99.73-15.78,1.09-23.64h-66.8v23.64ZM36.12,239.78h59.66v-30.8c-20.01,9.47-39.78,9.33-59.66-.03v30.82ZM225.29,204.31h-68.94v23.74c14.64,0,28.98.02,43.32-.05,1,0,2.27-.42,2.96-1.1,7.46-7.33,14.82-14.75,22.66-22.59ZM246.08,203.46c-3.37.26-35.59,30.95-38.72,36.43,7.07,7.03,14.03,13.96,21.22,21.12,5.64-5.63,11.56-11.5,17.39-17.46.56-.58.68-1.79.65-2.7-.11-3.98-.48-7.96-.52-11.95-.09-8.47-.03-16.94-.03-25.43ZM215.95,281.45c-4.84,1.9-9.24,3.6-13.63,5.34-5.41,2.14-10.73,1.84-15.23-1.81-2.8-2.27-4.81-5.51-7.46-8.65h-23.37v23.49h59.7v-18.37ZM251.68,299.97v-44.77c-1.45,1.34-2.38,2.14-3.24,3.01-5.14,5.12-9.61,11.26-15.57,15.07-5.4,3.46-4.73,7.6-4.77,12.24-.04,4.81,0,9.62,0,14.45h23.6ZM81.13,60.02c10.8,0,21.13.02,31.46,0,5.33-.02,7.43-2.14,7.45-7.52.03-9.48.02-18.96,0-28.43,0-.91-.18-1.81-.26-2.61-12.83,12.81-25.52,25.48-38.64,38.57ZM156.22,264.04c8.26,0,16.23.03,24.19-.05.68,0,1.73-.58,1.97-1.15,3.08-7.44,6.05-14.93,9.2-22.8h-35.37v24ZM273.1,156.94c-.22-.28-.43-.55-.65-.83-5.49,0-11.03-.5-16.45.1-15.47,1.71-24.14,14.39-21.66,31.23.44,3.01,2.9,4.71,6.03,4.52,3.28-.2,5.27-2.2,5.63-5.46.23-2.1.04-4.24.1-6.36.2-7.11,5.39-12.08,12.52-12.11,1.18,0,2.71.03,3.47-.64,3.79-3.36,7.37-6.94,11.02-10.45ZM200.06,251.28c-2.62,6.54-5.34,12.94-7.73,19.47-1.1,3.01,1.86,6.12,4.87,5.05,6.64-2.37,13.14-5.14,19.62-7.72-5.65-5.67-11.01-11.04-16.76-16.8ZM264.17,299.81h11.92c0-6.59.02-12.94-.03-19.28,0-.69-.18-1.63-.64-2.02-3.55-2.98-7.18-5.84-11.26-9.12v30.42Z"/>
  <path class="cls-1" d="M144.23,59.77V24.2h167.57v35.57h-167.57ZM299.94,36.29h-143.7v11.53h143.7v-11.53Z"/>
  <path class="cls-1" d="M144.37,72.09h167.43v11.68h-167.43v-11.68Z"/>
  <path class="cls-1" d="M311.82,107.88h-167.56v-11.55h167.56v11.55Z"/>
  <path class="cls-1" d="M144.22,131.77v-11.54h95.55v11.54h-95.55Z"/>
  <path class="cls-1" d="M60.03,108.19h12c0,3.39-.1,6.72.06,10.04.05,1.08.48,2.75,1.23,3.09,9.76,4.48,11.55,12.64,10.52,22.44h-11.81c0-2.06.05-4.14-.01-6.22-.09-3.23-1.76-5.12-4.99-5.47-2.98-.32-5.63.37-6.67,3.52-1.05,3.19.67,5.24,3.4,6.61,3.57,1.8,7.17,3.52,10.7,5.38,6.19,3.25,9.53,8.44,9.5,15.4-.02,7-3.61,11.95-9.66,15.36-1.08.61-2.05,2.29-2.17,3.57-.31,3.2-.1,6.44-.1,9.9h-12c0-3.46.11-6.81-.06-10.14-.05-1.04-.6-2.62-1.38-2.98-9.66-4.59-11.42-12.71-10.34-22.44h11.79c0,1.97-.02,4.03,0,6.09.03,3.21,1.59,5.22,4.81,5.64,3.12.41,5.91-.34,6.91-3.68.96-3.2-.91-5.18-3.64-6.53-3.47-1.72-6.95-3.41-10.38-5.2-6.33-3.29-9.74-8.55-9.66-15.69.08-6.84,3.51-11.91,9.59-14.92,1.92-.95,2.48-2.01,2.39-4-.15-3.11-.04-6.24-.04-9.78Z"/>
  <path class="cls-1" d="M24.02,306.06c0-9.62-.03-19.25,0-28.87.03-8.16,4.92-13.11,13.03-13.12,19.38-.03,38.75-.04,58.13,0,7.92.02,12.83,4.95,12.85,12.92.04,19.37.04,38.75,0,58.12-.02,7.96-4.93,12.92-12.84,12.94-19.5.04-39,.05-58.5,0-7.68-.02-12.61-5.03-12.66-12.74-.05-9.75-.01-19.5-.01-29.25ZM84.3,300.22v35.53h11.54v-35.53h-11.54ZM36.2,287.85h11.58v-11.52h-11.58v11.52ZM60.19,287.78h11.54v-11.53h-11.54v11.53ZM95.85,276.27h-11.56v11.5h11.56v-11.5ZM47.82,311.88v-11.58h-11.52v11.58h11.52ZM60.16,311.76h11.67v-11.47h-11.67v11.47ZM47.73,335.93v-11.67h-11.47v11.67h11.47ZM60.31,324.21v11.67h11.51v-11.67h-11.51Z"/>
</svg>