<?xml version="1.0" encoding="UTF-8"?>
<svg id="Capa_1" data-name="Capa 1" xmlns="http://www.w3.org/2000/svg" viewBox="0 0 345.05 384">
  <defs>
    <style>
      .cls-1 {
        fill: #000;
        stroke-width: 0px;
      }
    </style>
  </defs>
  <path class="cls-1" d="M314.3,0c6.19,4.93,6.52,8.38,1.24,14.58-14.89,17.52-29.82,35-44.73,52.5-.77.91-1.48,1.88-2.68,3.41h4.61c21,0,41.99.03,62.99-.03,3.64-.01,6.73.75,8.49,4.23,1.79,3.52.48,6.46-1.82,9.27-19.05,23.32-38.07,46.66-57.1,70-.47.58-.93,1.18-1.45,1.72-3.03,3.14-7.3,3.5-10.45.92-3.11-2.56-3.68-6.94-1.03-10.41,3.47-4.56,7.19-8.93,11.43-14.18-7.48-1.55-14.28-3.28-21.19-4.31-14.65-2.18-29.18-1.33-43.36,3.1-2.22.69-4.37,2.26-6.02,3.95-3.05,3.1-5.71,6.59-8.7,10.12,6.9,9.06,10.22,19.18,8.99,30.48-.98,9.07-4.66,17-10.89,23.75-10.04,10.88-29.15,18.83-50.88,7.73-4.94,5.78-9.94,11.63-15.12,17.7,7.79,9.58,15.49,19.05,23.2,28.52,1.89,2.33,3.79,4.65,5.69,6.97,4.66,5.69,9.32,5.73,13.92.09,15.48-18.98,30.94-37.96,46.41-56.95,1.11-1.36,2.19-2.73,3.32-4.06,3.22-3.76,7.46-4.45,10.89-1.8,3.57,2.76,3.97,7.22.72,11.25-9.1,11.28-18.29,22.49-27.45,33.72-5.53,6.78-11.13,13.49-16.52,20.38-1.04,1.33-1.72,3.33-1.73,5.02-.11,22.87-.03,45.74-.14,68.6-.01,2.52.8,3.71,3.01,4.78,19.22,9.27,38.38,18.65,57.54,28.04,5.09,2.49,6.99,6.89,4.53,10.87-.99,1.6-2.81,2.69-4.25,4.02H89.26c-7.59-5.16-7.09-11.25,1.29-15.36,18.83-9.21,37.66-18.44,56.54-27.54,2.23-1.08,3-2.3,2.99-4.8-.11-22.87-.02-45.74-.15-68.6-.01-1.79-.81-3.92-1.95-5.32C99.75,203.05,51.45,143.78,3.12,84.53c-2.43-2.98-4.25-5.96-2.29-9.85,1.85-3.66,5.14-4.22,8.87-4.21,78.11.04,156.22.01,234.34.1,3.06,0,5-.93,6.95-3.24,17.74-21,35.58-41.91,53.46-62.79,1.5-1.76,3.55-3.04,5.35-4.55,1.5,0,3,0,4.5,0ZM49.77,117.98c13.9-7.45,28.3-8.3,43.08-6.51,13.5,1.64,26.19,6.09,38.73,11.12,11.58,4.64,23.67,8.4,36.11,6.22,12.96-2.28,25.61-6.36,38.36-9.78,1.06-.29,1.98-1.46,2.77-2.39,8.06-9.38,16.08-18.8,24.09-28.22.66-.78,1.2-1.67,1.87-2.63H23.54c8.93,10.95,17.5,21.48,26.23,32.19ZM140.44,196.95c-6.44-8.47-9.59-17.62-9.1-27.88.49-10.34,4.59-19.23,11.37-26.64-10.3-3.76-20.3-7.58-30.43-11.04-12.26-4.19-24.85-6.75-37.87-5.32-4.93.54-9.76,2.03-15.4,3.25,23.13,28.38,45.42,55.73,67.96,83.39,4.61-5.39,8.96-10.47,13.47-15.76ZM220.41,368.81c-1.83-.97-2.87-1.55-3.94-2.07-10.2-5-20.36-10.08-30.63-14.93-4.13-1.95-5.91-4.82-5.88-9.4.13-20,.05-39.99.05-59.99,0-1.35,0-2.7,0-3.67h-15c0,1.14,0,2.5,0,3.86,0,19.87-.08,39.74.06,59.61.03,4.74-1.77,7.69-6.04,9.7-10.38,4.9-20.66,10.03-30.96,15.08-.92.45-1.77,1.03-3.09,1.81h95.42ZM172.4,144.76c-14.43.05-26.17,11.89-26.12,26.36.05,14.41,11.92,26.18,26.36,26.12,14.43-.05,26.17-11.9,26.12-26.36-.05-14.43-11.9-26.16-26.36-26.12ZM232.08,112.53c3.66-.31,6.38-.61,9.12-.76,16.79-.89,33.08,1.88,49.02,6.91,2.67.84,4.18.56,5.97-1.69,7.59-9.59,15.4-19.01,23.12-28.5.66-.82,1.23-1.71,1.91-2.65-.57-.17-.8-.3-1.03-.3-20.98-.02-41.96-.04-62.94.01-1,0-2.35.35-2.95,1.05-7.27,8.36-14.44,16.81-22.22,25.94Z"/>
  <path class="cls-1" d="M264.22,177.14c-.06,4.14-3.3,7.36-7.41,7.35-4.04-.01-7.39-3.34-7.44-7.39-.05-4.18,3.5-7.67,7.67-7.55,4.1.12,7.23,3.45,7.18,7.6Z"/>
</svg>