<?xml version="1.0" encoding="UTF-8"?>
<svg id="Capa_1" data-name="Capa 1" xmlns="http://www.w3.org/2000/svg" viewBox="0 0 372.21 371.59">
  <defs>
    <style>
      .cls-1 {
        fill: #eee;
        stroke-width: 0px;
      }
    </style>
  </defs>
  <path class="cls-1" d="M156.31,333.98c-8.98,8.96-17.29,17.25-26.18,26.11-2.29-2.52-4.68-5.24-7.17-7.86-3.79-4-8.31-5.57-13.57-3.33-5.17,2.2-7.47,6.33-7.33,11.93.09,3.49.02,6.99.02,10.76h-36.01c0-3.66-.03-7.36,0-11.06.06-5.43-2.2-9.47-7.24-11.6-5.06-2.13-9.55-.89-13.34,2.98-2.62,2.67-5.18,5.39-7.57,7.89-8.72-8.72-17.07-17.08-25.83-25.84,2.51-2.38,5.27-4.91,7.93-7.53,3.84-3.78,5.17-8.26,2.97-13.32-2.16-5-6.16-7.33-11.61-7.25-3.61.05-7.22.01-11.08.01v-36.01c3.76,0,7.48-.02,11.19,0,5.26.04,9.24-2.13,11.39-6.98,2.21-5,1.03-9.43-2.63-13.44-2.22-2.42-4.47-3.78-8.01-3.7-7.02.16-12.11-5-12.15-12-.09-15.88-.08-31.75,0-47.63.03-6.9,3.58-10.45,12.5-12.78.88-12.97,6.55-24.22,12.99-35.35,11.05-19.09,16.24-39.89,16.49-61.94.01-1.23,0-2.47,0-4.24-2.39,0-4.6.08-6.79-.01-8.97-.41-16.87-7.49-17.05-16.38-.35-18.35-.11-36.72-.11-55.34h35.95c0,5.38-.02,10.71,0,16.04.02,4.94,2.34,7.8,6.18,7.67,3.72-.12,5.79-2.83,5.81-7.67.02-5.24,0-10.49,0-16.02h36.02c0,5.78-.07,11.6.03,17.43.06,3.48,2.23,5.87,5.31,6.23,2.91.34,5.77-1.61,6.44-4.57.27-1.2.2-2.48.21-3.73.02-5.09,0-10.18,0-15.46h36.01v3.94c0,15.75,0,31.5,0,47.25,0,13.57-6.95,20.55-20.5,20.63-.99,0-1.98,0-3.77,0,.42,6.63.51,13.09,1.29,19.45,2.25,18.35,8.26,35.45,17.98,51.19,5.87,9.51,9.42,19.77,10.55,31.07.79.15,1.5.26,2.2.41,6.41,1.35,10.21,5.86,10.23,12.45.05,15.63.06,31.25,0,46.88-.03,7.48-5.03,12.42-12.47,12.57-5.78.12-11.3,5.83-11.47,11.86-.18,6.23,4.69,11.74,10.94,12.07,4.21.22,8.43.04,12.92.04v12.04h4.22c49.64,0,99.28-.03,148.92.07,2.78,0,4.12-.67,5.15-3.39,2.38-6.27,7.06-10.57,13.31-12.91,2.03-.76,2.61-1.7,2.6-3.76-.09-10.75-.08-21.5,0-32.25.01-1.91-.56-2.78-2.44-3.48-6.67-2.49-11.19-7.25-14.02-13.78-.46-1.06-1.91-2.37-2.93-2.4-7.36-.21-14.73-.11-22.51-.11v23.77h-108v-59.65h47.6v-23.93h-47.53v-60.07h47.75c0-1.46,0-2.64,0-3.82,0-8.63-.06-17.25.01-25.88.14-17.33,13.09-30.34,30.41-30.44,17-.09,34.01-.08,51.01.04,2.53.02,3.61-.72,4.57-3.11,4.06-10.13,14.4-16.16,24.84-14.83,10.98,1.4,19.48,9.83,21.04,20.85,1.47,10.36-4.52,20.84-14.63,24.94-2.52,1.02-3.31,2.2-3.28,4.85.15,11.24.06,22.49.06,33.84,1.12.48,2.14.91,3.17,1.34,9.01,3.79,14.96,12.38,14.79,21.98-.19,10.37-5.17,17.87-14.69,21.96-2.68,1.15-3.38,2.46-3.33,5.2.17,10.12.13,20.25.02,30.38-.02,2.25.39,3.46,2.78,4.4,9.41,3.67,15.22,12.3,15.26,22.01.04,9.89-5.75,18.54-15.35,22.34-2.19.87-2.71,1.94-2.69,4.08.09,10.5.09,21,0,31.5-.02,2.17.56,3.19,2.73,4.05,10.38,4.09,16.54,14.43,15.18,24.98-1.41,10.98-9.83,19.47-20.85,21.05-10.61,1.51-21.03-4.68-25.28-15.29-.8-1.99-1.68-2.6-3.76-2.59-50.51.06-101.03.05-151.54.05-.73,0-1.45.07-2.42.13v11.87c-3.96,0-7.66.04-11.35-.01-5.42-.08-9.49,2.12-11.65,7.16-2.16,5.05-.97,9.56,2.91,13.34,2.68,2.61,5.48,5.09,8.22,7.62ZM24.64,173.66h118.88c-.18-1.56-.27-2.92-.51-4.25-1.42-7.99-4.78-15.16-8.95-22.07-9.87-16.35-16.18-34.01-18.56-52.97-.93-7.39-1.27-14.84-1.88-22.27h-58.98c-.82,8.75-1.23,17.25-2.49,25.62-2.8,18.63-9.51,35.88-19.39,51.91-4.51,7.32-7.42,15.18-8.12,24.02ZM139.04,334.6c-6.72-7.76-9.03-16.41-4.99-26.06,4.01-9.6,11.71-14.14,21.79-14.87v-11.66c-10.32-.79-17.88-5.35-21.8-14.87-3.98-9.64-1.69-18.31,4.84-25.83-2.76-2.89-5.33-5.59-8.04-8.43-7.77,6.7-16.43,9.04-26.08,5.01-9.59-4.01-14.15-11.71-14.88-21.78h-11.66c-.78,10.32-5.35,17.88-14.88,21.8-9.63,3.96-18.31,1.69-25.95-4.95-2.84,2.8-5.5,5.42-8.29,8.17,6.72,7.76,9.01,16.42,4.98,26.07-4.01,9.59-11.74,14.12-21.77,14.87v11.65c10.35.78,17.88,5.37,21.8,14.89,3.97,9.63,1.67,18.3-4.92,25.88,2.8,2.87,5.41,5.54,8.14,8.34,7.77-6.73,16.42-9.02,26.08-4.98,9.6,4.02,14.11,11.74,14.87,21.76h11.65c.79-10.34,5.37-17.88,14.9-21.8,9.64-3.97,18.31-1.66,25.78,4.82,2.91-2.77,5.61-5.34,8.45-8.04ZM155.9,186.12H12.22v47.39c4.34,1.02,7.69.25,10.73-3.24,4.41-5.06,9.38-9.64,14.64-14.95,2.77,2.99,5.26,5.78,7.87,8.46,3.76,3.86,8.24,5.21,13.31,3.04,5-2.14,7.37-6.12,7.3-11.58-.04-3.71,0-7.41,0-11.11h36.01c0,3.89.03,7.5,0,11.11-.06,5.26,2.1,9.2,6.93,11.43,4.84,2.23,9.48,1.25,13.67-2.9,2.65-2.63,5.1-5.46,7.88-8.46,5.25,5.32,10.22,9.9,14.63,14.96,3.04,3.49,6.38,4.27,10.72,3.25v-47.39ZM300.05,113.83c8.02,0,15.5.08,22.97-.1.93-.02,2.25-1.27,2.66-2.26,2.82-6.69,7.51-11.34,14.21-14.16,1.01-.42,2.15-2.02,2.17-3.09.16-10.87.06-21.74.13-32.62.01-1.9-.54-2.79-2.43-3.49-6.67-2.48-11.41-7.16-13.87-13.83-.78-2.11-1.83-2.51-3.82-2.5-17.12.06-34.25,0-51.37.05-10.93.04-18.5,7.74-18.57,18.75-.04,6.75,0,13.5,0,20.24,0,2.94,0,5.88,0,9.09h47.93v23.91ZM300.21,149.97h-47.79v24.01h47.79v23.86c7.88,0,15.36.07,22.83-.09.88-.02,2.2-1.06,2.54-1.93,2.72-6.9,7.49-11.62,14.31-14.5,1.01-.43,2.15-2.02,2.16-3.09.16-10.99.15-21.98,0-32.97-.01-.99-1.06-2.5-1.98-2.87-6.88-2.77-11.64-7.51-14.44-14.37-.37-.91-1.57-2.08-2.41-2.1-7.58-.16-15.16-.1-23.02-.1v24.13ZM78.29,11.96c-1.32,16.29-6.59,23.4-17.44,23.83-4.56.18-8.61-1.21-12.16-4.06-6.33-5.09-7.16-12.17-6.6-19.68h-12.06c0,13.59-.02,26.93,0,40.28.01,5.37,2.12,7.48,7.51,7.48,30.99.02,61.97.02,92.96,0,5.41,0,7.54-2.1,7.55-7.44.03-12.62.01-25.23,0-37.85,0-.83-.15-1.66-.23-2.43h-11.59c-1,15.77-6.31,23.07-17.07,23.68-4.55.26-8.63-1.06-12.22-3.85-6.55-5.08-7.38-12.29-6.89-19.96h-11.78ZM204.37,101.99v35.55h83.56v-35.55h-83.56ZM287.88,221.67v-35.55h-83.59v35.55h83.59ZM360.14,35.92c.05-6.51-5.29-11.99-11.8-12.09-6.53-.1-12.04,5.19-12.18,11.7-.15,6.67,5.32,12.28,11.98,12.28,6.51,0,11.95-5.39,12-11.89ZM348.11,107.84c-6.52.02-11.92,5.42-11.95,11.93-.03,6.51,5.34,11.97,11.84,12.05,6.66.08,12.21-5.46,12.14-12.13-.07-6.51-5.52-11.87-12.03-11.85ZM360.14,203.7c-.07-6.51-5.53-11.87-12.04-11.84-6.52.02-11.92,5.43-11.94,11.94-.02,6.66,5.56,12.16,12.23,12.04,6.5-.12,11.83-5.63,11.75-12.14ZM360.14,287.94c.04-6.51-5.31-11.98-11.82-12.07-6.54-.09-12.03,5.2-12.16,11.72-.14,6.67,5.34,12.27,12,12.26,6.51,0,11.94-5.41,11.98-11.91Z"/>
  <path class="cls-1" d="M126.06,287.84c0,23.1-18.88,42.01-41.99,42.01-23.09,0-42.01-18.89-42.02-41.98,0-23.1,18.88-42,41.99-42.01,23.12,0,42.01,18.87,42.02,41.98ZM103.35,265.53c-9.18-10.09-27.56-10.27-38.99-.26-12.3,10.77-13.77,29.2-3.32,41.79,10.46,12.62,29.15,14.4,42.01,4,10.64-8.6,14.56-26.31,7.34-35.7-10.88,10.9-21.69,21.74-31.98,32.06-5.3-5.27-10.58-10.51-15.87-15.76,2.36-2.39,4.97-5.04,8.63-8.74,2.15,3.03,4.22,5.95,6.11,8.61,9.29-9.26,17.68-17.62,26.08-25.99Z"/>
  <path class="cls-1" d="M216.26,125.56v-11.51h11.67v11.51h-11.67Z"/>
  <path class="cls-1" d="M251.93,114.05v11.5h-11.56v-11.5h11.56Z"/>
  <path class="cls-1" d="M275.96,114.03v11.54h-11.61v-11.54h11.61Z"/>
  <path class="cls-1" d="M227.91,209.68h-11.54v-11.6h11.54v11.6Z"/>
  <path class="cls-1" d="M240.28,209.65v-11.54h11.61v11.54h-11.61Z"/>
  <path class="cls-1" d="M264.2,209.54v-11.4h11.67v11.4h-11.67Z"/>
</svg>