<?xml version="1.0" encoding="UTF-8"?>
<svg id="Capa_1" data-name="Capa 1" xmlns="http://www.w3.org/2000/svg" viewBox="0 0 343.72 384">
  <defs>
    <style>
      .cls-1 {
        fill: #000;
        stroke-width: 0px;
      }
    </style>
  </defs>
  <path class="cls-1" d="M140.27,0c1.74,1.83,4.29,3.37,5.07,5.55,1.85,5.14-2.12,9.43-8.28,9.44-25.5.03-51,.01-76.5.01-1.49,0-2.99,0-4.77,0v316.47c1.29,0,2.61,0,3.94,0,72.75,0,145.5,0,218.25,0,7.67,0,10.05-2.39,10.05-10.11,0-98.74,0-197.48,0-296.22,0-7.75-2.36-10.14-10-10.15-23.63,0-47.25.02-70.88-.01-6.58,0-10.66-5.19-8.08-10.46C199.95,2.76,201.85,1.49,203.28,0c27,0,54.01,0,81.01,0,14.85,5.57,18.75,11.31,18.75,27.54,0,4.21,0,8.42,0,12.96,7.24,0,14.08-.05,20.92.01,11.44.1,19.51,8.19,19.57,19.69.06,12.12.31,24.25-.15,36.36-.15,4.04-3.18,8.01-3.16,12.01.02,4.13,3,8.22,3.16,12.39.46,12.1.46,24.25,0,36.35-.15,4.04-3.18,8.01-3.17,12.01.02,4.13,3.01,8.22,3.17,12.39.47,12.1.34,24.24.05,36.35-.08,3.37-1.64,6.68-2.37,10.06-.28,1.27-.4,2.69-.14,3.94.75,3.61,2.4,7.16,2.5,10.76.33,11.49.13,22.99.12,34.49-.01,13.41-7.74,21.13-21.16,21.15-6.33,0-12.67,0-19.34,0,0,8.23.02,16.08,0,23.92-.04,14.69-9.46,24.07-24.2,24.08-18.12.02-36.24,0-54.36,0-1.33,0-2.65,0-4.22,0,0,9.26-.18,18,.07,26.73.13,4.62-1.06,8.26-5.04,10.79h-4.5c-5.78-2.32-11.54-4.67-17.35-6.9-.82-.31-1.97-.29-2.79.03-5.81,2.23-11.58,4.57-17.36,6.88h-4.5c-4.06-2.49-5.25-6.21-5.02-10.79.24-4.61.05-9.24.05-13.86,0-4.19,0-8.39,0-12.87h-4.96c-44.48,0-88.96,0-133.44,0-16.48,0-25.4-8.96-25.4-25.5,0-98.44,0-196.88,0-295.33,0-1.25-.02-2.5.02-3.75C.3,12.58,6.11,4.57,14.91,1.37,16.19.9,17.47.46,18.76,0c40.5,0,81.01,0,121.51,0ZM40.37,15c-5.15,0-9.89,0-14.62,0-8.67,0-10.74,2.1-10.74,10.91,0,98.23,0,196.46,0,294.68,0,1.37-.11,2.77.08,4.12.5,3.62,2.65,6.3,6.21,6.54,6.3.41,12.64.11,19.07.11V15ZM303.18,101.24c7.22,0,14.08.04,20.93-.02,2.84-.03,4.41-1.63,4.41-4.47.03-12.24.02-24.47.01-36.71,0-2.45-1.17-4.35-3.63-4.42-7.19-.19-14.39-.07-21.72-.07v45.69ZM303.12,161.96c7.3,0,14.27.06,21.23-.03,2.66-.04,4.16-1.65,4.17-4.31.04-12.36.12-24.72-.12-37.07-.03-1.41-1.88-3.94-2.98-3.99-7.41-.36-14.84-.19-22.29-.19v45.59ZM303.2,222.7c7.29,0,14.26.08,21.23-.04,2.66-.04,4.08-1.74,4.09-4.39.03-12.23.02-24.47,0-36.7,0-2.62-1.26-4.46-3.95-4.51-7.07-.14-14.15-.05-21.38-.05v45.7ZM303.19,283.46c7.19,0,14.04.04,20.89-.02,2.62-.02,4.38-1.41,4.4-4.09.08-12.48.15-24.97-.12-37.45-.03-1.4-2.18-3.88-3.44-3.94-7.18-.38-14.39-.19-21.73-.19v45.68ZM179.03,346.7v19.49c8.76-6.46,17.34-5.96,25.91-.46v-19.25c-8.16,0-16.02,0-23.89,0-.6,0-1.21.12-2.02.21Z"/>
  <path class="cls-1" d="M174.02,0c1.78,2.05,4.3,3.84,5.17,6.23,1.27,3.52-1.05,6.91-4.54,8.24-3.37,1.29-7.15-.07-8.99-3.22-1.82-3.11-1.15-6.99,1.64-9.43.72-.63,1.48-1.21,2.23-1.81,1.5,0,3,0,4.5,0Z"/>
  <path class="cls-1" d="M170.85,222.56c-17.37,0-34.73,0-52.1,0-7.4,0-9.96-2.55-9.96-9.87,0-16.74-.04-33.48.04-50.22.01-2.38-.43-3.64-2.98-4.62-18.31-7.03-28.77-25.51-25.37-44.32,3.43-18.92,19.53-32.6,39-33.12.12,0,.26-.04.37,0,7.31,2.36,11.08-1.64,15.73-6.86,20.28-22.76,56.33-20.36,73.78,4.48,1.85,2.63,3.47,3.33,6.61,2.92,19.73-2.62,38.16,9.37,43.58,28.11,5.51,19.01-3.22,39.2-21.15,47.34-4.58,2.08-5.72,4.37-5.63,9.06.31,15.73.14,31.48.11,47.22-.01,7.39-2.53,9.87-9.93,9.88-17.37.01-34.73,0-52.1,0ZM217.38,171.94c.24-.63.41-.86.41-1.09.04-5.37.06-10.74.1-16.11.05-6.35,1.71-8.36,7.98-9.75,14.8-3.27,23.39-17.2,19.38-31.43-3.97-14.07-18.89-21.43-33.11-16.35-6.01,2.15-8.98.9-11.74-4.89-5.94-12.47-15.95-19.23-29.63-19.3-13.84-.07-23.99,6.66-30.02,19.27-2.77,5.8-5.77,7.13-11.72,4.92-5.33-1.98-10.68-2.33-16.15-.7-11.01,3.28-18.36,13.43-17.92,24.79.45,11.71,8.39,21.15,19.88,23.6,7.72,1.65,8.94,3.18,8.95,11.14,0,5.22,0,10.45,0,15.9h93.59ZM124,207.34h93.61v-19.97h-93.61v19.97Z"/>
  <path class="cls-1" d="M170.49,237.61c20.99,0,41.99,0,62.98,0,1.25,0,2.51-.05,3.74.09,3.54.4,6.18,3.16,6.5,6.68.3,3.29-1.71,6.56-4.93,7.57-1.52.48-3.19.62-4.79.62-42.24.03-84.48.03-126.72.01-1.36,0-2.77-.05-4.09-.36-3.85-.91-6.11-4.19-5.71-8.06.37-3.62,3.17-6.38,7.02-6.49,5.12-.15,10.25-.06,15.37-.06,16.87,0,33.74,0,50.61,0Z"/>
  <path class="cls-1" d="M170.65,273.61c16.86,0,33.73,0,50.59,0,1.25,0,2.51-.05,3.74.09,3.38.4,5.9,2.99,6.33,6.4.43,3.39-1.36,6.65-4.56,7.76-1.49.52-3.18.71-4.77.71-34.23.04-68.46.03-102.69.02-1.12,0-2.26-.02-3.35-.24-3.88-.78-6.5-4.05-6.29-7.71.23-3.91,3.24-6.9,7.39-6.99,5.87-.13,11.74-.05,17.61-.05,11.99,0,23.98,0,35.98,0Z"/>
</svg>