<?xml version="1.0" encoding="UTF-8"?>
<svg id="Capa_1" data-name="Capa 1" xmlns="http://www.w3.org/2000/svg" viewBox="0 0 372.16 371.93">
  <defs>
    <style>
      .cls-1 {
        fill: #000;
        stroke-width: 0px;
      }
    </style>
  </defs>
  <path class="cls-1" d="M308.51,300.12c11.71,0,22.79-.1,33.87.03,13.47.15,24.9,8.99,28.54,21.88.44,1.56.95,3.17.96,4.76.07,14.97.04,29.95.04,45.13H.66c0-7.98-.9-15.93.2-23.59,1.98-13.83,14.39-23.88,28.42-24.16,7.71-.16,15.44-.03,23.32-.03-2.44-3.95-4.59-7.68-7.04-11.21-.57-.83-2.1-1.21-3.25-1.4C17.53,307.51.12,287.28.03,262.27c-.05-13-.05-26.01,0-39.01.09-24.84,18.28-43.06,43.07-43.18,4.72-.02,9.44,0,14.35,0,1.12-7.02,1.19-14.04,6.8-19.19,5.63-5.18,12.47-5.01,19.56-4.79v-23.96H.03v-4.22c0-32.01-.03-64.01.07-96.02,0-2.13.55-4.52,1.61-6.34C11.58,8.52,26.53.03,46.16.02,139.42-.01,232.67-.01,325.92.07c4.33,0,8.77.46,12.98,1.45,14.46,3.38,25.03,11.97,32.06,24.97.62,1.16,1.08,2.57,1.08,3.87.05,33.38.04,66.76.03,100.15,0,.36-.11.72-.21,1.31h-47.66v-23.48h-12.06v23.63h-11.93v24.07h-11.96v35.94h47.68v12.12c3.69,0,7.13,0,10.57,0,15.48.03,25.34,10.1,25.63,25.6.44,22.88-8.47,40.6-28.67,51.75-5.44,3-11.88,4.31-17.99,5.92-2.83.74-5.25,1.34-7.33,3.75-2.66,3.1-5.97,5.65-9.64,9.03ZM12.19,119.78h191.96v-23.53h132.04v23.5h23.7V36.23H12.19v83.56ZM12.2,359.87h347.83c0-10.63.32-21-.1-31.35-.37-9.2-8.37-16.35-17.8-16.37-39.87-.07-79.75-.06-119.62.07-1.33,0-3.23,1.21-3.87,2.39-3.28,6.03-6.37,12.17-9.24,18.41-1.11,2.4-2.46,3.18-5.08,3.17-30.5-.1-61-.06-91.49-.06-27.25,0-54.5.03-81.74-.02-6.29-.01-11.44,2.21-15.35,7.16-3.85,4.88-4.05,10.54-3.53,16.6ZM182.66,269.5c-1.17.54-1.81.87-2.48,1.13-18.73,7.24-37.1,8.91-54.57-3.54-6.21-4.42-12.43-8.82-18.73-13.11-12.43-8.47-25.87-13.98-41.23-13.94-3.29,0-4.48,1.15-4.89,4.42-1.99,15.87-4.12,31.72-6.42,47.54-2.44,16.78,10.09,31.95,27.1,32.06,25.75.18,51.51.17,77.26,0,15.96-.11,28.39-13.56,27.22-29.5-.6-8.2-2.1-16.33-3.26-25.06ZM216.15,132.19h-59.91v23.88c2.51,0,4.85-.03,7.19,0,9.21.15,16.52,6.39,17.99,15.46.64,3.94,1.08,7.92,1.62,11.88,4.66,34.15,9.09,68.33,14.09,102.42,2.05,14.03.03,26.56-9.49,37.44-.1.12.03.45.08.86,3.23,0,6.48-.14,9.7.05,2.19.13,3.36-.63,4.3-2.62,2.94-6.2,6.18-12.26,9.09-18.48,1.04-2.23,2.25-3.14,4.8-3.02,5.15.23,10.32.07,16.24.07-1.04-.94-1.38-1.28-1.75-1.57-17.58-14.01-26.2-32.25-26.06-54.73.1-15.87.02-31.75.02-47.62v-4.21h47.78v-36.05h-11.86v-23.92h-12.05v-23.78h-11.79v23.96ZM63.1,227.98c.95.06,1.56.14,2.17.13,13.42-.2,25.93,3.22,37.7,9.53,3.29,1.76,6.57,5.18,9.75,5.07,3.37-.12,6.62-3.56,9.92-5.54,12.06-7.2,24.88-10.9,39.02-8.44,5.12.89,10.23,1.88,15.38,2.83.04-.11.24-.34.21-.55-2.58-19.31-5.14-38.62-7.81-57.91-.4-2.89-2.41-4.87-5.35-4.93-8.58-.17-17.16-.06-26.14-.06v35.67h-12.05v-35.46h-12.05v35.55h-11.92v-35.78c-8.76,0-17.12-.09-25.48.04-3.48.05-5.46,2.18-5.94,5.61-2.47,17.93-4.91,35.87-7.43,54.24ZM17.84,23.72h336.34c-.84-.91-1.3-1.49-1.84-1.98-7.72-6.95-16.84-9.78-27.15-9.77-92.74.06-185.49.04-278.23.04-1.5,0-3.01-.04-4.5.09-9.43.77-17.57,4.33-24.62,11.62ZM321.59,260.08c-.36.05-.71.06-1.02.16-19.58,6.47-38.24,4.95-56.13-5.83-8.11-4.88-16.59-9.19-25.13-13.31-7.18-3.47-14.75-5.98-22.84-6.46-4.8,38.57,20.75,62.3,48.49,65.3,25.28,2.74,55.23-18.15,56.64-39.87ZM55.83,192.15c-5.61,0-10.85-.27-16.06.05-14.96.92-27.33,13.54-27.64,28.52-.3,14.62-.33,29.26.02,43.88.4,16.75,13.97,32.18,29.25,34.36,4.79-35.48,9.59-70.96,14.43-106.81ZM323.92,204.35h-107.65v18.02c11.07,1.1,21.67,3.86,31.05,9.39,6.78,4,10.99,3.38,16.7-2.12,11.36-10.93,25.27-15.83,41.26-12.93,6.21,1.13,12.38,2.46,18.64,3.72v-16.07ZM143.89,132.32h-47.54v23.54h47.54v-23.54ZM329.44,274.47c2.34-.82,3.53-1.15,4.64-1.63,18.14-7.94,28.01-24.79,25.85-46.53-.52-5.19-4.98-9.6-10.16-10.04-4.42-.37-8.9-.08-13.47-.08-1.22,19.39,2.87,39.08-6.85,58.28ZM267.5,242.62c5.36,2.48,10.37,5.25,15.68,7.18,11.27,4.09,22.6,2.65,33.7-.95,3.95-1.28,7.07-3.92,7.16-8.61.08-4.7-2.9-7.55-6.88-8.79-20.99-6.5-34.11-4.59-49.66,11.17ZM123.44,250.9c3.25,2.28,6.24,4.28,9.13,6.42,12.62,9.34,26.28,7.83,40.06,3.63,4.1-1.25,7.38-3.96,7.37-8.86,0-4.89-3.3-7.56-7.4-8.82-4.5-1.38-9.21-2.14-13.87-2.86-13.24-2.05-24.38,3.1-35.29,10.5ZM299.92,108.31h-59.67v11.54h59.67v-11.54ZM287.9,132.31h-35.53v11.55h35.53v-11.55ZM275.79,191.93v-35.67h-11.49v35.67h11.49Z"/>
  <path class="cls-1" d="M72.21,48.03c9.62,0,19.24-.03,28.86,0,11.27.05,18.89,7.57,18.96,18.74.05,7.5.05,15,0,22.49-.07,11-7.66,18.73-18.57,18.76-19.61.06-39.23.06-58.84,0-10.76-.03-18.48-7.69-18.58-18.36-.07-7.75-.07-15.5,0-23.24.1-10.69,7.79-18.32,18.55-18.38,9.87-.06,19.74-.01,29.61-.01ZM72.42,60.03c-9.75,0-19.5-.03-29.25.01-4.9.02-7.08,2.21-7.12,7.11-.05,7.25-.05,14.5,0,21.75.03,4.9,2.21,7.11,7.11,7.12,19.25.04,38.5.04,57.75,0,4.9,0,7.09-2.22,7.12-7.11.05-7.13.04-14.25,0-21.38-.02-5.38-2.12-7.48-7.5-7.5-9.38-.03-18.75,0-28.13,0Z"/>
  <path class="cls-1" d="M192.05,78.34c-.13,16.49-13.82,29.87-30.39,29.7-16.49-.17-29.8-13.89-29.59-30.49.2-16.32,13.78-29.59,30.2-29.5,16.52.09,29.91,13.71,29.78,30.3ZM155.34,61.7c7.71,7.65,15.51,15.4,23.19,23.03,2.99-6.73,1.51-14.37-4.11-19.72-5.48-5.22-13.17-6.44-19.08-3.31ZM168.8,94.5c-7.8-7.74-15.59-15.48-23.25-23.09-2.88,6.55-1.61,13.77,3.64,19.15,5.32,5.44,12.7,6.87,19.61,3.94Z"/>
  <path class="cls-1" d="M240.05,65.93c.05,9.95-8.13,18.14-18.08,18.09-9.79-.04-17.85-8.11-17.9-17.9-.04-9.96,8.12-18.13,18.08-18.09,9.8.04,17.85,8.09,17.9,17.9ZM228.03,65.97c-.03-3.25-2.78-5.95-6.03-5.91-3.25.03-5.94,2.78-5.91,6.03.03,3.25,2.78,5.95,6.02,5.92,3.25-.03,5.95-2.79,5.91-6.03Z"/>
  <path class="cls-1" d="M270.17,84.03c-9.95.05-18.13-8.12-18.09-18.08.04-9.8,8.09-17.86,17.89-17.91,9.97-.05,18.13,8.11,18.09,18.08-.04,9.8-8.1,17.87-17.89,17.91ZM269.89,72c3.23.1,6.05-2.55,6.15-5.79.1-3.24-2.54-6.05-5.79-6.15-3.24-.1-6.05,2.54-6.15,5.79-.1,3.24,2.54,6.05,5.79,6.15Z"/>
  <path class="cls-1" d="M317.97,48.04c9.97-.05,18.14,8.1,18.1,18.06-.03,9.8-8.09,17.87-17.88,17.93-9.95.05-18.14-8.11-18.1-18.07.03-9.8,8.08-17.87,17.88-17.92ZM318.18,60.06c-3.25-.06-6.01,2.62-6.07,5.87-.06,3.25,2.62,6.02,5.87,6.08,3.24.06,6.01-2.63,6.07-5.87.06-3.24-2.62-6.01-5.87-6.07Z"/>
  <path class="cls-1" d="M102.18,227.79v-11.47h11.67v11.47h-11.67Z"/>
</svg>