<?xml version="1.0" encoding="UTF-8"?>
<svg id="Capa_1" data-name="Capa 1" xmlns="http://www.w3.org/2000/svg" viewBox="0 0 384 346.03">
  <defs>
    <style>
      .cls-1 {
        fill: #eee;
        stroke-width: 0px;
      }
    </style>
  </defs>
  <path class="cls-1" d="M384,137.02c-.63,2.9-1.24,5.81-1.9,8.7-6.37,27.73-31.87,53.46-68.82,53.24-1.6,0-3.21,0-5.4,0v5.05c0,44.25,0,88.5,0,132.76,0,7.93-1.28,9.23-9.07,9.24-3.25,0-6.5.1-9.75-.06-3.79-.18-6.22-2.53-6.17-5.68.04-3.18,2.5-5.36,6.31-5.49,2.33-.08,4.67-.01,7.21-.01v-109.77H87.76c-.17.84-.36,1.78-.56,2.72-.68,3.16-2.67,4.79-5.86,4.58-3.04-.19-4.9-2.05-5.06-5.04-.23-4.61-.14-9.24-.15-13.87-.02-4.6,0-9.21,0-14.42-1.9,0-3.46-.01-5.03,0-36.89.37-62.69-25.11-69.2-53.23-.67-2.89-1.26-5.8-1.89-8.71,0-4.75,0-9.5,0-14.25.85-3.89,1.51-7.83,2.59-11.65,8.5-30.19,35.85-50.81,67.53-50.44,18.13.21,32.18-6.8,43.41-20.93,5.39-6.79,11.48-13.4,18.4-18.54,31.6-23.51,65.85-27.35,102.19-12.1,4.19,1.76,5.7,5,4.16,8.23-1.45,3.04-4.62,3.78-8.73,2.04-39.66-16.86-80.91-6.43-107.43,27.46-13.35,17.05-30.51,25.34-52.21,25.09-30.39-.35-54.86,21.81-58.44,52.36-3.28,27.97,16.14,55.19,44.61,61.71,7.31,1.67,15.03,1.58,23.6,2.39-.98-1.71-1.24-2.34-1.64-2.86-12.62-16.05-21.69-34.09-29.59-52.78-1.59-3.77-.41-6.95,2.72-8.2,3.13-1.24,6.01.22,7.66,4.03,7.24,16.78,15.28,33.11,26.34,47.78q8.57,11.37,22.83,11.35c9.62,0,19.25,0,28.87,0,1.32,0,2.63,0,4.15,0-3.53-8.7-7.52-16.67-10.04-25.07-6.88-22.93-13.19-46.04-19.63-69.11-.99-3.56.83-6.52,4.01-7.32,3.18-.81,5.9,1.2,6.96,5.09,5.47,19.97,10.49,40.09,16.62,59.86,3.46,11.15,8.77,21.71,13.22,32.56,1.22,2.99,3.09,4.22,6.56,4.09,8.61-.31,17.25-.1,25.87-.1h4.36v-4.89c0-37.76,0-75.52,0-113.27,0-1.25-.09-2.51.05-3.75.37-3.19,2.29-5.04,5.42-5.15,2.99-.1,4.94,1.66,5.59,4.55.3,1.32.17,2.74.17,4.11,0,37.76,0,75.52,0,113.27v4.9c1.36.09,2.54.22,3.73.22,8.87.02,17.75-.1,26.62.08,2.65.05,4.04-.89,5.24-3.14,8.47-15.84,14.07-32.8,19.01-49.96,3.93-13.67,7.2-27.53,10.76-41.3.22-.85.41-1.7.66-2.54,1.03-3.57,3.87-5.45,6.94-4.61,3.16.86,4.8,3.73,3.89,7.38-3.43,13.68-6.72,27.4-10.5,40.98-4.99,17.92-10.89,35.54-19.46,52.78,1.42.14,2.45.32,3.47.32,11.5.02,23,.14,34.5-.11,2.09-.04,4.64-1.13,6.13-2.59,9.66-9.47,16.52-20.97,22.73-32.84,4.05-7.73,7.54-15.76,11.25-23.67,1.76-3.74,4.59-5.21,7.71-3.92,3.12,1.29,4.23,4.43,2.62,8.24-7.85,18.58-16.89,36.49-29.38,52.47-.44.56-.8,1.19-1.43,2.14,17.25,1.38,32.87-1.65,46.35-12.57,19.14-15.5,26.47-40.74,18.58-63.83-7.88-23.06-29.56-39.08-54.15-39.08-22.32,0-39.73-8.9-53.14-26.5-3.24-4.25-7.21-7.95-10.95-11.79-2.85-2.92-3.38-6.09-1.17-8.58,2.32-2.61,5.61-2.77,8.56.16,4.43,4.39,8.93,8.79,12.73,13.71,11.14,14.44,25.41,21.68,43.84,21.75,34.48.13,63.14,25.57,67.95,59.57.12.85.45,1.67.69,2.5v14.25ZM296.46,199.32H87.59v13.92h208.86v-13.92Z"/>
  <path class="cls-1" d="M87.38,334.74c2.1,0,3.69,0,5.29,0,55.85,0,111.71,0,167.56,0,1.5,0,3.02-.07,4.49.16,2.83.44,4.45,2.21,4.59,5.07.15,3.02-1.32,5.04-4.3,5.7-1.32.29-2.73.3-4.1.3-58.73.01-117.45.02-176.18,0-7.14,0-8.61-1.46-8.62-8.55,0-27.87,0-55.74,0-83.61,0-1-.03-2.01.08-3,.35-3.31,2.57-5.47,5.54-5.47,2.98,0,5.21,2.15,5.55,5.46.13,1.24.08,2.5.08,3.75,0,25.12,0,50.24,0,75.36,0,1.46,0,2.93,0,4.81Z"/>
</svg>