<?xml version="1.0" encoding="UTF-8"?>
<svg id="Capa_1" data-name="Capa 1" xmlns="http://www.w3.org/2000/svg" viewBox="0 0 360.2 349.86">
  <defs>
    <style>
      .cls-1 {
        fill: #eee;
        stroke-width: 0px;
      }
    </style>
  </defs>
  <path class="cls-1" d="M29.86,125.97c3.15-12.91,8.37-17.13,21.38-17.75,18.81-.9,37.41.49,56.4,5.2-3.8-6.11-7.16-11.7-10.77-17.13-.45-.68-2.21-.88-3.27-.71-18.46,3.05-30.19-15.02-26.7-29.41,1.49-6.15,4.86-10.95,10.24-14.17,1.99-1.19,2.4-2.55,2.67-4.74.75-6.01,1.1-12.33,3.3-17.86,4.37-11,14-14.72,25.11-14.86,13.14-.16,25.51,3.62,37.04,9.47,11.09,5.64,21.7,12.27,32.34,18.75,2.23,1.36,3.48,1.32,5.5-.08,5.31-3.71,10.81-7.15,16.33-10.76-.39-2.27-.97-4.57-1.14-6.9-.78-10.86,5.94-20.31,16.78-23.77,10.91-3.49,21.85.46,27.44,10.32,1.59,2.81,3.24,3.89,6.41,3.53,2.45-.27,5.01-.04,7.47.33,17.01,2.54,25.52,13.31,24.63,30.84-.67,13.1-4.7,25.29-10.54,36.81-4.62,9.11-10.14,17.76-15.28,26.6-.62,1.06-1.35,2.06-1.97,3,9.71-1.38,19.28-3.27,28.93-3.95,10.07-.71,20.24-.69,30.32-.18,10.3.52,15.14,5.57,18.05,17.43,1.81,0,3.77-.05,5.71,0,13.94.42,23.9,10.54,23.93,24.52.06,29.12.02,58.24.02,87.36,0,17.87,0,35.74,0,53.62,0,16.66-9.87,26.46-26.64,26.46-33.75,0-67.49.03-101.24-.05-2.99,0-4.42.43-5.17,3.94-3.43,16.08-17.64,27.59-34.2,27.78-10.6.12-21.39.76-31.77-.9-15.09-2.42-24.39-12.44-28.01-27.24-.76-3.12-1.96-3.59-4.71-3.58-33.62.08-67.24.05-100.86.05-17.85,0-27.4-9.48-27.4-27.2,0-45.87.33-91.74-.18-137.6-.18-15.85,10.79-28.45,27.12-27.21.86.07,1.73,0,2.73,0ZM174.03,190.62c-3.99,2.47-7.55,4.54-10.93,6.87-.75.52-1.29,2-1.19,2.96,1.13,11.42-4.69,21.47-14.92,25.53-10.3,4.09-21.26.79-28.4-8.32-.81-1.03-2.53-1.74-3.9-1.86-3.97-.35-8-.01-11.94-.51-12.37-1.55-20.43-8.85-22.48-21.13-.89-5.33-.85-11.02-.08-16.38,2.61-18.15,10.73-34.15,20.33-49.5.69-1.11,1.38-2.21,2.3-3.68-18.66-4.43-37.01-5.66-55.53-3.92-3.69.35-5.11,3.16-5.1,6.73,0,47.5,0,94.99.02,142.49,0,4.88,2.23,6.96,7.15,7.08,6.49.16,13,.15,19.48.57,36.67,2.36,70.35,13.75,101.18,33.68,1.21.78,2.47,1.49,4.02,2.42v-123.05ZM186.29,313.75c1.04-.59,1.58-.86,2.08-1.2,36.91-24.4,77.52-36.12,121.73-35.56,6.13.08,8.07-1.89,8.08-8,0-46.61,0-93.21,0-139.82,0-6.82-1.64-8.82-8.59-8.84-10.6-.03-21.23.08-31.81.79-6.75.45-13.43,2.1-20.59,3.29,1.29,2.06,2.29,3.36,2.97,4.81,1.37,2.96,3.02,3.9,6.64,3.22,9.78-1.85,19.7,3.51,24.4,12.37,4.7,8.88,4.08,20.73-3.62,26.92-6.35,5.11-6.98,10.56-7.06,17.68-.12,10.75-5.08,19.13-15.34,23.72-8.96,4.01-18.21,3.92-27.53,1.85-17.34-3.85-32.5-12.51-47.38-21.77-1.21-.75-2.45-1.46-3.98-2.38v122.91ZM132.77,305.97c.07-.29.14-.58.22-.87-1.53-.65-3.04-1.33-4.58-1.94-24.88-10-50.74-14.65-77.55-14.2-13.47.23-20.68-6.9-20.68-20.33,0-41.98,0-83.95,0-125.93,0-1.46,0-2.93,0-4.31-12.39-2.32-18.23,4.63-18.15,14.79.34,46.1.15,92.2.15,138.3,0,9.94,4.5,14.49,14.35,14.49,34.23,0,68.46,0,102.69,0,1.18,0,2.36,0,3.55,0ZM227.39,305.06c.05.26.11.52.16.77.57.04,1.14.13,1.71.13,35.35,0,70.71.04,106.06-.02,8.06-.01,12.85-5.08,12.85-13.33.02-46.97.01-93.95,0-140.92,0-10.4-7.64-16-18-13.04,0,13.92,0,27.9,0,41.88,0,29.86,0,59.72,0,89.57,0,7.52-2.99,13.54-9.82,16.76-3.23,1.52-7.21,2.05-10.84,2.01-25.38-.26-49.96,3.85-73.72,12.78-2.83,1.07-5.62,2.26-8.42,3.4ZM180.21,171.25c21.05-16.37,39.52-34.83,55.62-55.63-.27-.53-.38-.89-.6-1.18-15.47-19.93-33.18-37.62-52.95-53.28-1.8-1.43-2.96-1.13-4.47.26-11.46,10.58-23.23,20.84-34.34,31.76-6.9,6.79-12.84,14.56-19.29,21.99,16.47,21.26,34.97,39.7,56.04,56.07ZM243.12,105c.51.08,1.02.17,1.53.25,6.28-12.17,13.1-24.11,18.61-36.62,3.06-6.95,4.76-14.77,5.59-22.36,1.45-13.25-7.33-21.15-20.52-19.37-1.07.14-2.53,1.44-2.85,2.5-5.12,16.94-22.14,23.27-37.34,13.86-.84-.52-2.44-.72-3.22-.27-4.84,2.82-9.54,5.86-14.71,9.09,19.85,15.89,37.33,33.44,52.9,52.91ZM243.47,125.48c-15.94,20-33.52,37.38-52.97,53.01,11.21,8.69,32.34,19.87,45.17,23.22,5.84,1.52,12.02,2.3,18.05,2.34,7.73.05,12.87-4.59,14.39-12.19.65-3.25.57-6.7.42-10.04-.04-.84-1.5-2.1-2.5-2.33-17.88-4.12-25.11-22.45-14.99-37.96.58-.89.79-2.65.3-3.51-2.35-4.1-5-8.03-7.87-12.53ZM106.85,89.52c3.23,5.1,6.52,10.29,10.03,15.83,15.9-19.91,33.48-37.36,53.18-53.11-14.61-9.86-29.35-18.48-45.93-23.29-5.2-1.51-10.81-2.4-16.2-2.31-11.84.21-18.62,9.74-15.85,21.34,19.16,2.06,29.82,24.53,14.77,41.53ZM114.01,203.6c.98-10.21,5.71-18.01,15.55-21.82,9.96-3.86,18.79-1.16,26.52,5.94,4.67-3,9.13-5.88,14.02-9.02-19.91-15.86-37.31-33.45-53.59-53.76-5.85,10.64-11.55,20.42-16.65,30.5-4.57,9.04-7.85,18.6-8.55,28.87-.96,14.12,8.55,22.28,22.7,19.3ZM216.05,310.54c-1.43.71-2.56,1.18-3.59,1.82-8.38,5.17-16.84,10.23-25.09,15.62-7.18,4.69-7.35,4.85-14.49-.14-2.35-1.65-4.66-3.37-7.11-4.87-6.98-4.26-14.03-8.42-21.34-12.79-1.21,15.82,9.07,27.3,24.01,27.54,7.49.12,14.99.08,22.48.02,15.67-.12,25.86-10.94,25.12-27.2ZM222.2,12.03c-6.47,0-11.9,5.42-11.91,11.89,0,6.41,5.54,12.02,11.88,12.03,6.32.01,11.9-5.62,11.91-12.01,0-6.48-5.41-11.91-11.88-11.91ZM90.27,60.03c-6.47-.04-11.93,5.35-11.98,11.82-.05,6.4,5.45,12.04,11.81,12.1,6.3.06,11.93-5.54,11.98-11.94.06-6.47-5.34-11.94-11.81-11.98ZM270.5,144.03c-6.51-.14-12.01,5.07-12.21,11.58-.2,6.36,5.17,12.09,11.57,12.34,6.25.24,12-5.27,12.21-11.7.21-6.44-5.14-12.08-11.57-12.22ZM137.99,192.12c-6.49.08-11.9,5.57-11.8,11.99.11,6.43,5.65,11.73,12.17,11.62,6.52-.1,11.92-5.59,11.8-12-.11-6.42-5.63-11.69-12.18-11.61Z"/>
  <path class="cls-1" d="M210.17,114.12c-.08,16.36-13.62,29.88-29.89,29.84-16.73-.04-30.19-13.65-30.09-30.42.1-16.35,13.6-29.6,30.09-29.53,16.66.07,29.97,13.48,29.88,30.11ZM180.14,96.02c-9.77.02-17.83,8.14-17.79,17.94.04,9.74,8.26,18.02,17.87,17.98,9.64-.04,17.83-8.35,17.8-18.06-.03-9.82-8.1-17.88-17.88-17.86Z"/>
</svg>