<?xml version="1.0" encoding="UTF-8"?>
<svg id="Capa_1" data-name="Capa 1" xmlns="http://www.w3.org/2000/svg" viewBox="0 0 512 512">
  <defs>
    <style>
      .cls-1 {
        fill: #000;
        stroke-width: 0px;
      }
    </style>
  </defs>
  <path class="cls-1" d="M512,103c-2.71,8.34-8.59,14.32-14.64,20.32-22.25,22.05-45.07,43.59-66.28,66.62-17.31,18.79-60.14,23.97-81.7.38-2.35-2.57-4.82-5.03-6.92-7.21-24.63,24.7-48.91,49.05-73.42,73.62.63.68,1.7,1.91,2.85,3.06,33.59,33.57,67.22,67.1,100.72,100.77,2.65,2.67,4.55,3.02,8.04,1.54,13.02-5.53,27.7-2.07,37.56,7.95-15.95,15.96-31.9,31.91-47.93,47.94-11.19-8.87-14.12-25.71-6.83-40.86-36.01-36.05-71.88-71.96-108.04-108.15-.54.47-1.69,1.36-2.71,2.38-27.82,27.79-55.61,55.63-83.5,83.34-2.36,2.34-2.75,3.99-1.38,7.19,5.28,12.37,4.06,24.48-4.82,34.59-6.78,7.72-15.01,14.16-22.22,20.82-14.95-14.98-30.9-30.96-45.9-45.99,6.92-7.51,13.62-16.44,21.97-23.39,9.96-8.29,21.97-8.85,33.9-3.55,2.29,1.02,3.69,1.19,5.6-.73,28.56-28.7,57.21-57.32,85.82-85.97.45-.45.79-1.01,1.38-1.8-1.3-1.39-2.48-2.74-3.74-4-18.84-18.87-37.73-37.68-56.49-56.62-2.57-2.59-4.65-3.66-8.59-2.48-9.61,2.87-18.1-.11-25.14-7.04-9.15-9-18.11-18.18-27.28-27.16-1.29-1.26-3.18-2.38-4.92-2.61-7.93-1.05-14.38-4.52-20.03-10.21-24.52-24.73-49.21-49.3-73.83-73.93-1.04-1.04-2.03-2.15-2.46-4.32,3.91,1.85,8.3,3.08,11.64,5.67,14.99,11.62,29.68,23.62,44.46,35.5,8.82,7.09,17.54,14.31,26.49,21.22,2.72,2.1,6.02,3.55,9.2,4.95,7.6,3.35,14.27,2.25,19.32-3,5.45-5.66,6.27-12.55,2.53-18.88-5.56-9.4-11.76-18.51-18.58-27.04-12.58-15.73-26.04-30.76-38.62-46.49-4.26-5.32-6.98-11.87-10.4-17.86.47-.35.93-.7,1.4-1.05,1.1,1,2.25,1.95,3.3,3,24.64,24.62,49.2,49.31,73.93,73.83,5.69,5.65,9.16,12.09,10.22,20.02.23,1.74,1.34,3.64,2.6,4.93,9.1,9.28,18.44,18.32,27.49,27.65,7.18,7.4,9.43,16.17,6.55,26.25-.44,1.53-.02,4.08,1.03,5.14,20.26,20.5,40.68,40.86,61.07,61.23.33.33.82.48.78.46,24.44-24.37,48.71-48.58,73.98-73.78-2.11-1.76-4.67-3.83-7.16-5.98-24.55-21.16-19.15-64.99-.28-82.36,23.03-21.19,44.56-44.03,66.61-66.29,5.99-6.05,11.98-11.93,20.32-14.65h10c8.48,2.77,14.52,8.81,20.61,14.95,19.05,19.25,38.2,38.39,57.44,57.44,6.15,6.08,12.18,12.13,14.95,20.61v10ZM438.78,63.69c-3.17,2.2-5.99,3.6-8.11,5.7-20.79,20.62-41.46,41.35-62.16,62.06-5.9,5.9-6.76,10.48-2.79,14.65,4.12,4.33,8.71,3.5,14.94-2.73,20.47-20.46,40.94-40.93,61.4-61.41,1.29-1.29,3.18-2.53,3.54-4.08.64-2.72,1.2-6.07.13-8.39-1.06-2.29-4.18-3.61-6.96-5.8ZM423.52,49.33c-2.17-2.61-3.67-5.51-6.05-7.02-3.74-2.37-7.43-.65-10.35,2.26-21.59,21.54-43.18,43.08-64.67,64.71-4.33,4.35-4.37,9.2-.67,12.85,3.59,3.54,8.45,3.28,12.81-1.05,21.5-21.39,42.96-42.82,64.33-64.34,1.76-1.77,2.72-4.34,4.59-7.42ZM397.51,172.83c1.49-1.03,4.33-2.45,6.48-4.58,20.82-20.65,41.52-41.41,62.23-62.16,1.17-1.17,2.31-2.43,3.16-3.83,2.17-3.59,1.68-7.14-1.18-10.04-3.05-3.09-6.77-3.4-10.48-1.16-1.54.93-2.84,2.3-4.13,3.59-20.38,20.37-40.75,40.76-61.1,61.17-1.4,1.41-2.87,2.86-3.83,4.57-3.14,5.6,1.03,12.57,8.85,12.46ZM144.7,156.08c6.13,6.3,11.96,12.63,18.19,18.53,3.28,3.11,7.32,2.87,10.89,0,3.22-2.59,4.36-7.6,1.41-10.67-6.23-6.52-13.14-12.39-19.59-18.36-3.31,3.19-7.1,6.85-10.9,10.5Z"/>
  <path class="cls-1" d="M0,473c2.24-10.95,9.06-18.88,16.9-26.29,5.66-5.35,10.9-11.16,15.97-16.41,16.46,16.47,32.41,32.43,48.75,48.78-8.8,8.43-17.67,17.69-27.42,25.91-4.11,3.47-10.08,4.74-15.2,7.01h-10c-5.05-2.29-10.45-4.03-15.08-6.98-7.92-5.05-11.47-13.28-13.92-22.02v-10Z"/>
  <path class="cls-1" d="M473,512c-7.37-2.15-14.52-4.7-19.24-10.13,15.98-15.99,31.95-31.96,48.08-48.11,5.39,4.52,7.99,11.76,10.16,19.24v10c-2.29,5.06-4.04,10.47-7,15.1-5.05,7.91-13.27,11.47-22,13.9h-10Z"/>
  <path class="cls-1" d="M94.41,465.36c-15.92-15.93-31.77-31.78-47.31-47.33,11.13-11.09,22.51-22.43,33.38-33.26,15.35,15.38,31.35,31.42,47.22,47.32-10.58,10.57-21.97,21.97-33.29,33.28Z"/>
  <path class="cls-1" d="M487.58,440.52c-15.56,15.53-31.43,31.37-47,46.9-7.22-7.27-14.78-14.9-22.05-22.23,15.29-15.31,31.24-31.28,46.84-46.9,7.25,7.26,14.84,14.86,22.21,22.24Z"/>
  <path class="cls-1" d="M384.13,431.03c15.52-15.53,31.39-31.4,46.98-47,6.89,6.93,14,14.09,20.66,20.79-15.39,15.39-31.33,31.32-46.93,46.93-6.45-6.46-13.59-13.61-20.7-20.72Z"/>
</svg>