<?xml version="1.0" encoding="UTF-8"?>
<svg id="Capa_1" data-name="Capa 1" xmlns="http://www.w3.org/2000/svg" viewBox="0 0 383.12 384">
  <defs>
    <style>
      .cls-1 {
        fill: #eee;
        stroke-width: 0px;
      }
    </style>
  </defs>
  <path class="cls-1" d="M132.26,0c5.83,2.48,11.8,4.68,17.45,7.52,7.34,3.69,13.45,9.05,18.52,15.54,2.63,3.36,2.48,6.85-.27,8.91-2.63,1.98-5.89,1.33-8.45-1.85-6.6-8.18-14.96-13.71-24.07-16.91,2.03,7.08,5.02,14.29,6.05,21.77,2.02,14.58-.91,28.4-9.95,40.4-7.51,9.96-17.67,14.07-29.97,12.18-11.84-1.82-19.55-8.78-23.39-20.09-.19-.56-.51-1.08-1.01-2.14-3.53,10.75-2.91,20.8.84,30.75,1.89,5.02,4.08,9.93,5.71,15.03,2.64,8.26.7,14.28-5.61,18.9-6.25,4.58-13.66,4.88-20.25.25-3.41-2.4-6.28-5.58-9.56-8.56-6.84,22.25-5.16,44.22,2.24,66.49,1.44,0,2.89,0,4.34,0,52.5,0,105-.05,157.49.1,3.66.01,5.04-1.28,6.32-4.46,9.9-24.67,8.6-49.29.08-73.95-.11-.33-.36-.62-.65-1.11-1.33,1.61-2.51,3.2-3.86,4.64-13.11,13.92-32.4,10.59-39.92-6.96-4.34-10.12-5.04-20.84-4.29-31.64.65-9.43.28-18.71-2.11-27.88-.9-3.46.6-6.3,3.56-7.2,3.23-.98,6.18.6,7.19,4.17,2.69,9.47,2.99,19.14,2.87,28.95-.1,8.18.95,16.37,1.61,24.55.11,1.33.72,2.65,1.24,3.91,1.94,4.7,4.68,8.83,10.22,9.33,5.61.51,9.76-2.44,12.95-6.84.66-.9,1.23-1.89,1.7-2.9,1.88-4.05,5.07-6.24,9.48-6.07,4.6.18,7.51,2.88,9.14,7.14,5.31,13.87,8.51,28.17,8.92,43.05.37,13.64-1.67,26.88-6.38,39.7-.38,1.02-.69,2.07-1.15,3.48h4.82c45.12,0,90.25,0,135.37,0,9.77,0,13.6,3.83,13.62,13.59.01,5.75.05,11.5-.01,17.25-.09,7.83-4.31,12.08-12.06,12.09-17.87.03-35.75-.03-53.62.04-4.15.02-7.51-1.2-10.22-4.47-.72-.87-2.26-1.49-3.43-1.5-11.62-.11-23.25,0-34.87-.12-2.15-.02-3.01.78-3.75,2.68-11.91,30.35-34.06,47.83-66.34,52.41-3.08.44-6.23.41-9.35.41-36.25.03-72.5.04-108.75,0-41.49-.04-74.43-28.74-80.18-69.89-.46-3.33-.57-6.74-.47-10.1.21-7.04,5.43-12.21,12.48-12.35,7.37-.14,14.75-.04,22.12-.05,1.21,0,2.42,0,3.49,0-1.54-8.17-3.41-15.94-4.42-23.82-2.17-16.84-.52-33.4,4.94-49.53,1.35-3.99,3.99-6.59,8.34-7.05,4.3-.46,7.35,1.4,9.78,4.92,1.9,2.74,4.07,5.37,6.5,7.65,2.38,2.23,5.22,2.64,8.2.56,2.98-2.08,2.34-4.7,1.36-7.35-2.36-6.44-5.22-12.72-7.16-19.28-3.92-13.23-2.29-26.21,3.02-38.79,1.87-4.43,5.56-6.52,10.16-6,4.2.47,7.42,3.46,8.44,7.87.25,1.09.44,2.2.67,3.3,1.64,7.79,5.5,13.71,13.78,15.49,8.3,1.78,15.27-.5,20.67-7.27,10.67-13.37,11.23-36.86,1.16-51.05C117.99,9.95,118.91,5.16,127.01,0,128.76,0,130.51,0,132.26,0ZM258.71,199.44c-1.72,0-2.81,0-3.91,0-79.72,0-159.44.03-239.16-.08-3.81,0-4.55,1.28-4.4,4.77,1.58,35.85,31.11,64.87,67.02,65.13,37.73.27,75.47.09,113.21.05,11.08-.01,21.57-2.71,31.17-8.19,23.59-13.46,35.3-34,36.07-61.68ZM371.62,199.7h-54.99v19.99h54.99v-19.99ZM270.12,199.63v14.03h34.77v-14.03h-34.77Z"/>
  <path class="cls-1" d="M9.25,384c-5.18-2.16-7-6.05-6.84-11.59.46-16.04,12.82-28.59,28.95-28.96,3.71-.09,7.43-.01,11.52-.01-.64-1.65-1.12-2.9-1.61-4.15-1.8-4.59-2.08-9.28-.49-13.93,2.96-8.65,8.09-16.07,14.12-22.77,4.49-4.99,12.88-4.97,16.97.41,4.95,6.51,9.29,13.57,13.13,20.8,3.33,6.27,1.81,12.87-1.42,19.36h30.4c.06-.22.24-.52.16-.68-4.58-8.81-3.1-17.19,1.95-25.19,2.93-4.64,5.96-9.25,9.35-13.55,4.96-6.27,13.93-6.32,18.83-.01,3.82,4.91,7.24,10.17,10.42,15.52,4.52,7.58,5.14,15.52.38,23.87h30.65c.02-.09.2-.39.11-.55-4.56-8.79-3.23-17.19,1.86-25.21,2.94-4.63,5.94-9.27,9.34-13.56,5.02-6.33,13.84-6.45,18.8-.11,3.98,5.09,7.52,10.59,10.79,16.17,4.4,7.52,4.48,15.4,0,23.6,4.44,0,8.28-.09,12.12.01,17.1.45,30.21,15.35,28.51,32.3-.43,4.27-3.19,6.55-6.73,8.24h-60.01c-2.7-1.76-4.7-3.97-3.5-7.42,1.19-3.41,4.1-3.87,7.33-3.86,15.87.07,31.75.03,47.62.03,1.31,0,2.62,0,4.06,0-.1-1.4-.08-2.29-.24-3.13-1.75-9.24-8.98-14.95-19.14-14.95-67.87-.02-135.75-.01-203.62,0-1.12,0-2.25,0-3.37.11-9.03.87-16.54,9.48-15.47,17.98h4.42c51.75,0,103.5,0,155.25-.02,3.17,0,6.06.28,7.39,3.75,1.36,3.54-.84,5.58-3.23,7.53H9.25ZM134.87,309.79c-4.87,6.44-9.58,12.26-11.82,19.52-.54,1.75-.25,4,.32,5.81,1.92,6.08,8.53,9.46,14.67,7.76,5.84-1.61,10.34-7.79,8.89-12.94-2.13-7.58-7.05-13.56-12.07-20.15ZM207.53,310.12c-.68-.03-1.36-.05-2.04-.08-3.58,6.19-7.51,12.22-10.63,18.63-1.99,4.1.49,9.54,4.56,12.42,4.48,3.17,10.29,3.02,14.62-.38,4.03-3.17,6.02-8.34,3.88-12.6-3.1-6.18-6.89-12.01-10.39-17.99ZM63.24,309.8c-4.89,6.4-9.55,12.23-11.87,19.43-1.37,4.25.99,9.28,5,12,4.23,2.86,9.51,2.86,13.71,0,4.03-2.75,6.4-7.76,5.03-11.99-2.32-7.2-6.96-13.05-11.88-19.44Z"/>
</svg>