<?xml version="1.0" encoding="UTF-8"?>
<svg id="Capa_1" data-name="Capa 1" xmlns="http://www.w3.org/2000/svg" viewBox="0 0 512 512">
  <defs>
    <style>
      .cls-1 {
        fill: #eee;
        stroke-width: 0px;
      }
    </style>
  </defs>
  <path class="cls-1" d="M512,75v7c-3.13,7.84-9.03,11.2-17.35,11.8-15.78,1.13-31.52,2.77-47.28,4.24-4.87.45-9.73,1.01-15.06,1.57.92,2.46,1.53,4.17,2.19,5.85,6.91,17.48,14,34.89,20.69,52.46,5.84,15.34.62,31.75-12.63,40.56-3.31,2.2-6.87,4.16-10.55,5.64-4.16,1.67-5.4,4.17-5.39,8.69.16,78.82.07,157.64.17,236.46.01,8.57-2.72,15.8-9.08,21.32-4.49,3.9-9.24,8.01-14.6,10.3-12.96,5.54-26.08,11.03-39.62,14.81-30.9,8.62-62.71,12.09-94.64,14.34-9.62.68-19.24,1.31-28.86,1.96h-54c-1.13-.24-2.24-.59-3.38-.69-26.5-2.45-53.09-4.2-79.49-7.5-25.28-3.16-50.11-8.93-73.46-19.67-12.75-5.86-24.29-13.18-29.67-27.15V123c5.04-12.54,15.04-20.07,26.74-25.41,8.9-4.06,18.08-7.67,27.43-10.54,28.29-8.67,57.47-12.7,86.85-15.42,39.05-3.62,78.16-4.53,117.3-1.98,15.95,1.04,31.84,2.91,47.77,4.16,1.9.15,4.81-.63,5.75-2.01,11.37-16.6,26.28-21.37,45.09-13.97,16.56,6.52,33.08,13.13,49.63,19.67,1.78.7,3.61,1.27,5.7,2,.29-1.39.53-2.17.6-2.96,1.77-19.24,3.73-38.46,5.17-57.72.65-8.68,3.3-15.52,11.96-18.84,2.33,0,4.67,0,7,0,3.55,2.64,7.48,4.9,10.6,7.98,18.93,18.68,37.73,37.48,56.41,56.41,3.08,3.12,5.35,7.05,7.99,10.61ZM17.04,154.48c0,14.57,0,29.4,0,44.22,0,16.17-.1,32.33.05,48.5.09,9.91,7.51,17.28,16.99,17.3,9.5.02,16.79-7.32,17.03-17.21.07-3-.08-6.01.07-9,.64-12.13,5.78-21.85,16.2-28.26,11.11-6.83,22.81-7.19,34.22-.97,11.81,6.44,17.69,16.84,17.78,30.29.13,17.5.02,35,.07,52.5,0,3.33-.06,6.7.46,9.97,1.49,9.37,10.75,15.51,19.97,13.5,8.68-1.89,13.68-8.38,13.76-18.26.13-17.33-.26-34.68.27-51.99.52-16.97,14.11-30.23,31.51-31.78,15.88-1.42,31.6,9.98,35.4,25.73.5,2.09.83,4.22,1.45,7.44,10.39-20.24,20.3-39.54,30.35-59.13-6.42,0-12.2-.17-17.96.03-44.76,1.54-89.25-1.17-133.5-8.02-6.76-1.05-9.97-4.78-9.11-10.07.84-5.19,5.34-7.65,11.91-6.65,50.93,7.72,102.1,9.75,153.51,6.75,3.47-.2,5.2-1.42,6.76-4.48,11.74-23.16,23.69-46.21,35.55-69.31.73-1.43,1.34-2.92,2.16-4.69-1.15-.29-1.92-.61-2.7-.67-18.1-1.42-36.18-3.25-54.3-4.12-35.17-1.69-70.29-.64-105.35,2.8-30.38,2.99-60.54,7.36-89.5,17.34-9.49,3.27-18.71,7.9-27.22,13.23-7.97,4.99-7.99,10.88-.35,16.28,6.85,4.84,14.59,8.56,22.26,12.08,5.71,2.62,11.99,3.97,17.91,6.18,4.35,1.62,6.33,5.83,5.22,10.1-1.03,3.98-4.7,6.56-9.14,6.05-2.45-.28-4.95-.88-7.24-1.79-11.39-4.49-22.73-9.13-34.48-13.87ZM17.04,383.88c0,21.9.17,43.21-.11,64.51-.08,6.05,1.97,10.68,6.98,13.35,8.32,4.45,16.72,9.08,25.6,12.11,34.61,11.8,70.63,16.28,106.88,19.01,36.6,2.76,73.23,2.78,109.86.26,33.29-2.29,66.38-6.05,98.48-15.44,12.5-3.66,24.47-9.33,36.37-14.78,6.12-2.8,8.87-8.16,8.71-15.49-.42-19.32-.14-38.66-.14-57.99v-4.04c-14.59,5.32-28.49,11.41-42.97,15.49-42.92,12.11-87.09,15.59-131.44,16.93-34,1.03-67.98.05-101.81-3.8-39.91-4.55-79.59-10.19-116.4-30.14ZM307.15,268.7c-1.94.87-3.29,1.4-4.57,2.05-13.62,6.98-27.24,13.99-40.85,20.98-14.36,7.37-28.69,14.81-43.09,22.08-6.5,3.28-13.08,2.15-17.92-2.69-4.63-4.63-5.66-11.1-2.65-17.51,1.49-3.16,3.28-6.18,4.74-9.35.88-1.92,1.93-4.01,1.96-6.04.19-10.33.26-20.67,0-30.99-.2-8.18-5.58-14.58-13.03-16.3-10.97-2.53-20.81,5.11-20.94,16.68-.2,16.66.11,33.33-.11,49.99-.3,23.08-19.42,38.84-41.42,34.38-15.99-3.24-26.8-17.15-26.92-35-.13-19.33.09-38.66-.11-57.99-.1-9.87-7.23-16.91-16.58-17.06-9.53-.15-16.92,6.93-17.45,16.85-.18,3.49,0,7-.14,10.49-.79,19.25-18.07,34.22-37.14,31.92-4.63-.56-9.14-2.19-13.91-3.39,0,10.59.61,21.13-.19,31.56-.68,8.91,3.32,14.2,10.34,18.2,3.03,1.73,6.03,3.75,9.31,4.77,16.34,5.05,32.53,10.92,49.2,14.45,46.83,9.9,94.4,12.14,142.15,11.32,46.58-.8,92.86-4.48,137.87-17.3,12.2-3.48,23.88-9.06,35.35-14.6,3.57-1.72,7.77-6.36,8.02-9.93.89-12.58.67-25.3-.09-37.91-.46-7.62-7.34-13.04-14.98-13.66-10.39-.85-18.03,6.51-18.64,17.6-.34,6.28-.18,12.83-1.95,18.74-4.72,15.71-20.65,25.09-37.18,22.83-16.15-2.2-28.55-16.26-29.08-33.21-.22-7.11-.04-14.23-.04-21.99ZM280.08,262.85c.11-.03.62-.1,1.05-.33,49.88-25.61,99.78-51.19,149.62-76.88,8.8-4.54,11.9-13.14,8.25-22.46-7.99-20.45-16.08-40.86-24.37-61.19-.81-1.98-3.01-3.96-5.03-4.78-19.41-7.91-38.91-15.58-58.4-23.3-12.56-4.98-20.01-2.16-26.2,9.89-24.64,47.95-49.28,95.91-73.9,143.87-.81,1.57-1.5,3.21-1.96,4.22,10.56,10.56,20.67,20.68,30.95,30.96ZM409.52,341.86c-9.09,3.93-17.44,8.11-26.18,11.21-31.93,11.34-65.19,16.11-98.75,19.11-59.65,5.33-119.18,4.53-178.46-4.31-30.51-4.55-60.71-10.59-87.96-26.26-.2-.12-.6.1-1.14.21,0,3.95.38,7.98-.08,11.92-.81,6.95,2.3,11.88,7.92,14.88,7.89,4.21,15.92,8.45,24.36,11.29,39.81,13.4,81.18,18.45,122.85,19.83,32.26,1.07,64.63.42,96.89-.89,33.66-1.37,66.93-6.52,99.4-15.88,12.16-3.51,24.31-7.39,34.51-15.22,2.83-2.17,5.7-5.68,6.34-9.01,1.05-5.42.28-11.19.28-16.86ZM409.49,216.66c-.74-.07-.92-.15-1.04-.09-27.38,13.98-54.77,27.94-82.09,42.03-1.04.54-2.07,2.25-2.09,3.44-.15,9.65-.4,19.32.05,28.95.45,9.64,8.13,16.33,17.53,16.11,9.11-.22,15.98-7.17,16.42-16.7.18-3.82,0-7.67.38-11.47,2.31-23.39,24.48-37.11,46.6-28.95,1.3.48,2.63.86,4.24,1.38v-34.7ZM429.46,82.56c21.23-1.97,41.47-3.86,61.34-5.7-18.59-18.6-37.07-37.08-55.65-55.67-1.84,19.91-3.72,40.16-5.69,61.37ZM216.9,294.26c.26.3.52.59.78.89,15.17-7.81,30.34-15.61,44.47-22.88-7.64-7.63-15.06-15.02-22.43-22.38-7.36,14.32-15.09,29.35-22.81,44.38Z"/>
  <path class="cls-1" d="M407.75,155.94c-.43,8.38-3.43,14.29-9.98,17.82-9.35,5.04-18.84,9.84-28.35,14.59-4.95,2.47-9.82,1.05-12.08-3.14-2.42-4.49-.77-9.32,4.39-12.06,8.22-4.35,16.44-8.7,24.84-12.68,3.78-1.79,4.21-3.76,2.63-7.4-3.3-7.61-6.22-15.39-9.23-23.13-2.46-6.34-.94-11.01,4.11-12.96,5.04-1.95,9.27.44,11.81,6.78,3.34,8.32,6.69,16.64,9.88,25.01,1,2.61,1.49,5.41,1.97,7.17Z"/>
</svg>