<?xml version="1.0" encoding="UTF-8"?>
<svg id="Capa_1" data-name="Capa 1" xmlns="http://www.w3.org/2000/svg" viewBox="0 0 384 384">
  <defs>
    <style>
      .cls-1 {
        fill: #eee;
        stroke-width: 0px;
      }
    </style>
  </defs>
  <path class="cls-1" d="M0,356.25c0-28.5,0-57,0-85.5.18-.33.43-.64.52-.99,4.42-17.66,16.03-26.75,34.24-26.76,33.12,0,66.25,0,99.37,0h4.75c0-3.61-.04-6.83,0-10.04.19-12.66,8.96-21.38,21.59-21.45,5.87-.03,11.75,0,17.62,0,3.48,0,5.94-1.6,6.27-5.11.34-3.67.08-7.4.08-11.38h-4.81c-40.62,0-81.25,0-121.87,0-7.22,0-9.75-2.5-9.75-9.65,0-48.62,0-97.25,0-145.87,0-6.89,2.6-9.46,9.54-9.47,6.71-.01,13.42,0,20.46,0,0-6.86.22-13.34-.07-19.8-.21-4.63,1.25-8,5.32-10.2h90.75c6.76,1.81,13.04,4.53,18.01,10.26,4.94-5.74,11.22-8.45,17.99-10.26h90.75c3.68,2.08,5.63,5.04,5.29,9.45-.22,2.86-.04,5.75-.04,8.62,0,3.94,0,7.88,0,11.93,7.6,0,14.59-.05,21.59.02,5.45.05,8.39,2.92,8.39,8.34.03,49.37.03,98.75,0,148.12,0,5.63-2.93,8.46-8.63,8.5-8.5.05-17,.03-25.5,0-5.82-.01-9.27-2.78-9.32-7.43-.05-4.67,3.41-7.54,9.16-7.56,6.33-.02,12.67,0,19.05,0V45.31h-14.74v4.8c0,35.25,0,70.5,0,105.75,0,6.39-2.75,9.1-9.13,9.14-4.75.03-9.5,0-14.25,0-20.12,0-40.25-.04-60.37.02-10.06.03-19.28,6.67-20.89,14.98.9,0,1.77,0,2.64,0,9.5,0,19-.07,28.5.05,4.31.06,7.42,3.3,7.49,7.32.06,4.02-3,7.27-7.26,7.58-1.87.13-3.75.05-5.62.05-9.09,0-18.17,0-27.59,0,0,3.61.02,6.83,0,10.05-.11,12.59-8.91,21.36-21.56,21.44-5.87.04-11.75.02-17.62,0-3.51,0-5.92,1.66-6.26,5.13-.36,3.67-.08,7.4-.08,11.37h4.86c33.12,0,66.25,0,99.37,0,21.15,0,34.62,13.46,34.67,34.68.04,20.12.02,40.25,0,60.37,0,5.37.12,10.76-.23,16.12-.88,13.59-10.18,24.83-23.31,28.56-1.29.37-2.55.84-3.83,1.27H27.75c-.81-.26-1.61-.56-2.44-.77-11.75-3.01-19.69-10.2-23.74-21.64-.62-1.75-1.05-3.56-1.57-5.34ZM146.52,258c-37.49,0-74.99,0-112.48,0-12.06,0-19.03,7.01-19.03,19.13-.01,24.12,0,48.24,0,72.36,0,12.62,6.85,19.5,19.41,19.5,74.61,0,149.23,0,223.84,0,12.81,0,19.6-6.79,19.61-19.7.02-23.87.02-47.74,0-71.62-.01-12.92-6.78-19.68-19.61-19.68-37.24,0-74.49,0-111.73,0ZM184.5,157.53v-4.19c0-40.48,0-80.95,0-121.43,0-10.94-5.97-16.91-16.89-16.91-23.49,0-46.97,0-70.46,0-1.32,0-2.64,0-3.87,0v135c21.14,0,41.99.16,62.84-.07,9.95-.11,19.41,1.02,28.37,7.6ZM290.84,15c-1.41,0-2.51,0-3.61,0-23.74,0-47.47,0-71.21,0-10.42,0-16.52,6.1-16.52,16.52-.01,40.73,0,81.45,0,122.18,0,1.04.13,2.09.23,3.67,8.93-6.62,18.68-7.57,28.87-7.44,19.36.24,38.73.07,58.09.07h4.15V15ZM183.06,179.85c-.54-1.25-.88-2.29-1.42-3.22-4.46-7.67-11.18-11.59-20.03-11.61-24.49-.06-48.98-.02-73.47-.02-7.74,0-10.13-2.37-10.13-10.01,0-35.11,0-70.23,0-105.34v-4.38h-14.7v134.59h119.76Z"/>
  <path class="cls-1" d="M341.25,384c-7.74-1.75-15.03-4.42-20.95-10.02-7.4-6.99-11.96-15.45-12.15-25.67-.18-9.45-.73-19.12.9-28.34,3.16-17.83,18.99-29.97,36.95-29.93,18.09.04,33.47,12.58,37.22,30.36.2.96.51,1.9.77,2.85v27.75c-.08.09-.23.17-.25.27-3.7,17.96-14.49,28.81-32.48,32.48-.1.02-.18.16-.27.25h-9.75ZM369.26,337.01c-.1,0-.2-.01-.3-.02,0-3.37.12-6.75-.02-10.12-.53-12.03-10.35-21.55-22.42-21.83-12.18-.28-22.55,8.64-23.36,20.68-.49,7.34-.47,14.75-.04,22.09.67,11.4,9.9,20.34,21.12,21.12,11.48.79,21.86-6.81,24.08-18.15.88-4.49.67-9.18.95-13.78Z"/>
  <path class="cls-1" d="M273.74,187.44c-.03,4.09-3.65,7.66-7.65,7.53-3.96-.12-7.32-3.55-7.32-7.47,0-4.2,3.45-7.58,7.63-7.47,4.06.1,7.37,3.44,7.34,7.4Z"/>
  <path class="cls-1" d="M146.63,353.22c-11.87,0-23.74.05-35.62-.03-4.72-.03-8.12-3.36-8.06-7.57.06-4.23,3.44-7.26,8.25-7.4.25,0,.5,0,.75,0,22.99,0,45.99-.01,68.98,0,5.62,0,8.85,2.74,8.9,7.39.05,4.82-3.22,7.59-9.08,7.6-11.37.02-22.74,0-34.12,0Z"/>
  <path class="cls-1" d="M44.71,288.78c-6.55-.01-9.93-2.97-9.6-8.08,0-.12.01-.25.03-.37.4-3.18,2.19-5.48,5.22-6.1,4-.82,8.25-1.46,11.54,2.02,2.14,2.26,2.71,5.01,1.39,7.94-1.75,3.88-5.02,4.87-8.58,4.6Z"/>
  <path class="cls-1" d="M78.24,288.67c-5.31.08-8.5-2.11-9.16-6.21-.58-3.56,1.4-7.33,5.01-8.09,2.81-.6,5.96-.58,8.78.01,3.53.75,5.31,4.09,4.94,7.76-.33,3.31-2.82,5.99-6.21,6.51-1.09.17-2.23.03-3.35.03Z"/>
  <path class="cls-1" d="M180.38,288.78c-6.04,0-9.47-2.79-9.39-7.64.07-4.4,3.42-7.28,8.55-7.36,6.65-.11,10.05,2.24,10.28,7.08.24,5.06-3.18,7.92-9.44,7.92Z"/>
  <path class="cls-1" d="M78.43,353.22c-5.81,0-9.72-2.71-9.24-7.23.25-2.37,1.83-5.48,3.77-6.61,3.6-2.11,7.94-2,11.72.28,2.73,1.64,3.53,4.4,3.05,7.48-.64,4.03-3.84,6.09-9.3,6.09Z"/>
  <path class="cls-1" d="M146.31,288.75c-3.59.25-6.97-.5-8.22-3.93-.8-2.19-.69-5.16.12-7.38,1.85-5.08,14.54-5.25,16.54.14.81,2.19.86,5.22,0,7.35-1.44,3.52-4.97,4.14-8.43,3.82Z"/>
  <path class="cls-1" d="M44.15,320.91c-5.8.07-9.08-2.67-9.06-7.45.02-4.78,3.29-7.46,9.14-7.45,1.36,0,2.77-.04,4.07.28,3.39.82,5.75,4.05,5.64,7.43-.12,3.55-2.83,6.62-6.44,7.16-1.09.16-2.23.03-3.35.03Z"/>
  <path class="cls-1" d="M78.18,320.91c-5.28.07-8.48-2.18-9.11-6.29-.54-3.57,1.48-7.3,5.07-8.07,2.71-.58,5.71-.59,8.44-.08,3.52.66,5.47,3.95,5.25,7.58-.21,3.48-2.75,6.29-6.29,6.83-1.09.17-2.23.03-3.35.03Z"/>
  <path class="cls-1" d="M112.39,321c-6.18,0-10.05-3.47-9.37-8.39.53-3.85,3.56-6.41,7.8-6.6,6.45-.29,9.73,1.42,10.79,5.62,1.39,5.48-2.46,9.39-9.23,9.38Z"/>
  <path class="cls-1" d="M180.35,321c-5.99,0-9.46-2.85-9.35-7.68.11-5.14,4-7.68,11.19-7.32,4.88.25,8,3.62,7.61,8.22-.37,4.44-3.64,6.78-9.45,6.77Z"/>
  <path class="cls-1" d="M214.7,306c5.71.02,9.15,2.85,9.15,7.5,0,4.66-3.47,7.15-9.16,7.57-7.96.58-11.26-5.94-9.08-10.66,1.45-3.13,4.1-4.43,9.09-4.41Z"/>
  <path class="cls-1" d="M44.29,353.22c-6.36-.02-9.98-3.55-9.1-8.9.73-4.46,4.41-6.47,11.14-6.09,4.31.25,7.45,3.21,7.61,7.19.2,4.81-3.51,7.81-9.65,7.79Z"/>
  <path class="cls-1" d="M248.25,289.34c-2.17-.75-4.41-1.35-6.47-2.33-.9-.43-1.57-1.59-2.06-2.56-1.48-2.95-.64-6.7,1.84-8.82,2.96-2.53,10.24-2.68,13.38-.26,2.68,2.06,3.63,5.57,2.36,8.69-1.36,3.32-3.99,4.72-9.05,5.29Z"/>
  <path class="cls-1" d="M112.32,273.77c6.13.03,9.62,2.91,9.58,7.55-.03,4.63-3.53,7.12-9.21,7.53-7.96.58-11.3-5.97-9.01-10.68,1.84-3.77,5.18-4.74,8.64-4.4Z"/>
  <path class="cls-1" d="M214.13,288.68c-5.62.07-9.21-2.86-9.21-7.41,0-4.54,3.61-7.49,9.22-7.48,1.36,0,2.77-.03,4.07.28,3.48.83,5.73,3.9,5.64,7.4-.1,3.62-2.73,6.65-6.37,7.19-1.09.16-2.23.03-3.35.03Z"/>
  <path class="cls-1" d="M214.4,353.22c-6.03,0-9.83-3.2-9.47-7.98.3-3.96,3.47-6.81,7.81-7.01,6.79-.31,10.25,1.67,10.97,6.29.82,5.28-2.84,8.7-9.31,8.7Z"/>
  <path class="cls-1" d="M248.14,353.13c-3.63.3-7.12-.56-8.23-4.22-.7-2.3-.48-5.61.74-7.61,2.84-4.68,12.56-4.37,15.79.07,3.28,4.5.65,10.8-4.95,11.73-1.09.18-2.23.03-3.35.03Z"/>
  <path class="cls-1" d="M146.11,306c5.73,0,8.91,2.01,9.66,6.11.63,3.44-.79,6.12-3.72,7.89-3.09,1.87-9.92,1.37-12.44-.84-2.66-2.33-3.28-5.34-2.03-8.48,1.56-3.91,4.92-4.98,8.52-4.69Z"/>
  <path class="cls-1" d="M248.17,321c-7.08-.02-11.13-5.14-8.45-10.71,2.04-4.24,5.87-4.39,9.88-4.31,3.58.07,6.29,1.4,7.7,4.78,2.33,5.61-1.84,10.27-9.12,10.24Z"/>
  <path class="cls-1" d="M139.07,39c6.61,0,13.22-.05,19.82.01,5.04.05,8.41,3.2,8.32,7.62-.08,4.28-3.37,7.33-8.23,7.35-13.46.06-26.93.05-40.39,0-5.04-.02-8.4-3.2-8.32-7.62.08-4.28,3.36-7.29,8.22-7.34,6.86-.07,13.71-.02,20.57-.02Z"/>
  <path class="cls-1" d="M138.36,90c-6.48,0-12.97.03-19.45-.01-5.19-.04-8.52-2.91-8.63-7.32-.11-4.54,3.33-7.64,8.66-7.65,13.22-.03,26.43-.03,39.65,0,5.17.01,8.53,2.92,8.63,7.31.11,4.53-3.35,7.63-8.67,7.67-6.73.04-13.46.01-20.2.01Z"/>
  <path class="cls-1" d="M138.77,126c-6.61,0-13.22.03-19.82-.01-5.33-.04-8.77-3.12-8.67-7.66.1-4.41,3.44-7.3,8.63-7.32,13.22-.03,26.43-.03,39.65,0,5.33.01,8.78,3.11,8.67,7.65-.1,4.39-3.47,7.29-8.63,7.33-6.61.04-13.22.01-19.82.01Z"/>
  <path class="cls-1" d="M245.15,54c-6.48,0-12.97.02-19.45,0-5.47-.03-8.87-2.88-8.92-7.41-.06-4.54,3.37-7.56,8.74-7.57,13.09-.03,26.18-.03,39.27,0,5.46,0,8.87,2.87,8.93,7.4.06,4.64-3.44,7.57-9.12,7.59-6.48.02-12.97,0-19.45,0Z"/>
  <path class="cls-1" d="M245.19,90c-6.61,0-13.22.04-19.82-.01-5.16-.04-8.51-2.96-8.59-7.36-.08-4.56,3.32-7.6,8.71-7.61,13.22-.03,26.43-.03,39.65,0,5.16.01,8.51,2.95,8.59,7.35.08,4.53-3.37,7.59-8.71,7.62-6.61.04-13.22,0-19.82,0Z"/>
  <path class="cls-1" d="M245.15,126c-6.36,0-12.72.01-19.07,0-5.8-.02-9.24-2.77-9.3-7.41-.06-4.66,3.41-7.57,9.11-7.58,12.84-.02,25.68-.02,38.52,0,5.79,0,9.24,2.78,9.3,7.4.06,4.74-3.48,7.58-9.49,7.6-6.36.01-12.72,0-19.07,0Z"/>
  <path class="cls-1" d="M353.38,334.76c.74,7.28-5.54,10.55-10.41,8.54-3.34-1.38-4.83-4.64-4.59-9.75.18-3.72,1.76-6.48,5.41-7.68,5.31-1.76,9.6,2.27,9.59,8.9Z"/>
</svg>