<?xml version="1.0" encoding="UTF-8"?>
<svg id="Capa_1" data-name="Capa 1" xmlns="http://www.w3.org/2000/svg" viewBox="0 0 336.48 265.56">
  <defs>
    <style>
      .cls-1 {
        fill: #000;
        stroke-width: 0px;
      }
    </style>
  </defs>
  <path class="cls-1" d="M167.79,265.53c-36.51,0-73.01,0-109.52,0-29.86,0-54.86-21.79-57.89-51.43-2.03-19.84,4.43-37.68,16.03-53.64,14.81-20.38,35.01-33.9,57.61-44.11,21.36-9.65,43.83-15.09,67.14-17.46,17.35-1.77,34.7-2.16,52-.48,34.69,3.38,67.43,12.9,96.49,32.89,17.93,12.33,32.81,27.46,40.9,48.07,8.5,21.64,8.89,42.96-5.55,62.56-11.36,15.42-26.9,23.52-46.19,23.58-37.01.13-74.01.04-111.02.04ZM53.23,141.96c-11.75,8.08-21.68,17.44-29.31,29.08-7.7,11.76-12.38,24.67-11.62,38.77,1.35,25.14,21.44,43.67,46.73,43.69,72.76.05,145.52.05,218.28-.07,4.55,0,9.24-.72,13.63-1.94,22.41-6.18,38.75-29.61,31.32-57.95-6.2-23.66-21.85-39.84-41.35-53.05-.93-.63-2.36-.86-3.51-.75-20.08,1.85-37.14,16.77-41.82,36.46-.43,1.82-.81,3.67-1.44,5.42-3.18,8.88-12.62,13.7-21.8,11.19-8.99-2.45-14.62-11.3-12.94-20.44,2.56-13.91,8.21-26.44,17.16-37.38,4.89-5.97,10.13-11.66,14.82-17.03-2.61-.53-7.01-2.34-11.27-2.07-5.25.33-10.64,1.79-15.55,3.79-23.36,9.52-37.32,26.86-41.63,51.77-1.8,10.41-10.58,17.37-20.5,15.89-10.09-1.51-16.96-10.82-15.32-20.9,2.91-17.86,9.84-33.97,21.1-48.18,2.05-2.58,4.22-5.07,6.93-8.3-4.84.39-8.77.76-12.71,1-11.35.71-21.74,4.07-30.92,10.95-14.69,11-23.67,25.46-26.67,43.59-1.83,11.08-10.85,17.71-21.51,15.77-10.12-1.84-16.02-10.8-13.99-21.55,1.09-5.74,2.49-11.41,3.9-17.78ZM193.51,111.52c-12.55-3.28-22.78-2.07-31.54,8.74-11.53,14.21-19.78,29.55-22.75,47.63-.59,3.59,1.43,6.63,4.74,7.37,3.24.73,6.14-1.34,7.04-5.05.24-.97.44-1.95.61-2.93,1.58-8.93,4.73-17.3,9.31-25.11,7.77-13.25,18.61-23.3,32.59-30.65ZM263.37,130.45c-3.15-1.44-5.85-2.34-8.18-3.82-4.94-3.13-8.96-2.01-13.5,1.24-15.37,11.02-25.39,25.52-29.8,43.89-.68,2.82-1.34,5.98,1.38,7.96,1.53,1.11,4.39,2.1,5.69,1.39,1.99-1.08,4.03-3.48,4.55-5.67,4.42-18.77,15.03-32.62,32.12-41.5,2.27-1.18,4.67-2.12,7.74-3.49ZM92.31,122.06c-5.89,2.54-11.83,4.96-17.62,7.71-1.64.78-3.23,2.31-4.11,3.9-5.01,9.04-7.96,18.79-9.51,28.98-.54,3.56,1.17,6.16,4.31,6.78,3.73.74,6.84-1.2,7.42-5,2.44-15.87,9.13-29.68,19.51-42.38Z"/>
  <path class="cls-1" d="M179.46,18.75c-.11,6.33-2.32,11.73-6.47,16.41-5.36,6.05-5.53,11.16-.7,17.43,2.55,3.32,2.43,6.71-.34,8.96-2.76,2.25-6.12,1.76-8.94-1.31-8.01-8.74-8.19-22.27-.42-31.57,6.3-7.55,6.47-10.99.95-18.86-1.99-2.84-1.79-5.96.54-8.14,2.42-2.26,5.9-2.27,8.42.27,4.6,4.65,6.85,10.33,6.95,16.81Z"/>
  <path class="cls-1" d="M245.48,36.63c-.09,6.27-2.19,11.6-6.19,16.22-5.72,6.59-5.9,11.13-.77,18,2.34,3.13,2.14,6.48-.51,8.68-2.66,2.2-5.96,1.83-8.68-.98-8.15-8.4-8.58-22.17-.98-31.56,6.68-8.24,6.81-10.63,1.02-19.44-1.86-2.83-1.46-6.04.99-8.09,2.44-2.04,5.71-1.98,8.13.45,4.61,4.64,6.87,10.32,6.98,16.71Z"/>
  <path class="cls-1" d="M90.85,67.97c.14-6.07,2.27-11.38,6.31-15.97,5.54-6.29,5.72-11.2.76-17.71-2.41-3.16-2.31-6.42.25-8.71,2.65-2.37,6.14-1.99,8.95.99,8.21,8.7,8.42,22.38.5,31.85-6.22,7.43-6.36,10.75-.79,18.86,1.94,2.83,1.67,6.02-.7,8.13-2.47,2.19-5.91,2.11-8.43-.46-4.57-4.68-6.8-10.37-6.85-16.97Z"/>
  <path class="cls-1" d="M168.15,241.53c-32.37,0-64.75-.03-97.12.01-15.65.02-30.08-4.03-43.28-12.46-3.94-2.52-5.11-5.85-3.12-9.03,1.96-3.14,5.48-3.59,9.5-1.04,11.51,7.3,24.07,10.57,37.68,10.55,64.12-.07,128.25-.08,192.37,0,13.46.02,25.95-3.04,37.4-10.19,3.75-2.34,7.28-1.75,9.18,1.3,1.94,3.12.9,6.44-2.85,8.81-13.01,8.25-27.27,12.07-42.64,12.05-32.37-.04-64.75-.01-97.12-.01Z"/>
</svg>