<?xml version="1.0" encoding="UTF-8"?>
<svg id="Capa_1" data-name="Capa 1" xmlns="http://www.w3.org/2000/svg" viewBox="0 0 384 355.48">
  <defs>
    <style>
      .cls-1 {
        fill: #eee;
        stroke-width: 0px;
      }
    </style>
  </defs>
  <path class="cls-1" d="M384,147.7c-2.11,4.18-5.51,5.57-10.12,5.38-6.69-.27-13.4-.07-20.95-.07,1.62,1.79,2.77,2.98,3.83,4.25,2.66,3.19,2.64,7.42.02,10.21-2.71,2.88-7.38,3.26-10.46.34-5.88-5.58-11.62-11.32-17.2-17.19-3.07-3.23-2.95-7.13.19-10.4,5.45-5.67,11.01-11.22,16.67-16.68,3.26-3.14,7.83-3.01,10.72-.02,2.77,2.86,2.79,7.25-.1,10.48-.99,1.1-2.31,1.91-3.48,2.86.14.38.28.77.42,1.15h4.52c5.24,0,10.49.23,15.72-.07,4.61-.26,7.96,1.29,10.23,5.26v4.5Z"/>
  <path class="cls-1" d="M0,28.45c2.5-4.03,6.17-5.24,10.78-5.06,6.46.25,12.94.06,20.34.06-1.72-1.85-2.91-3.02-3.98-4.29-2.61-3.12-2.5-7.44.2-10.2,2.78-2.84,7.14-3.23,10.14-.39,5.98,5.68,11.8,11.52,17.5,17.48,2.91,3.05,2.82,7.03-.15,10.13-5.54,5.77-11.19,11.43-16.96,16.96-3.16,3.03-7.54,2.87-10.47,0-2.93-2.87-2.91-7.44.21-10.73,1-1.06,2.36-1.79,3.55-2.67-.25-.43-.49-.87-.74-1.3-4.31,0-8.62,0-12.93,0-2.62,0-5.26-.16-7.87.03-4.52.33-7.75-1.36-9.61-5.53v-4.5Z"/>
  <path class="cls-1" d="M318.04,76.32c.13,24.41-.95,46.35-6.89,67.72-1.45,5.21-3.59,10.47-6.51,14.99-5.35,8.3-13.12,8.2-21.09,2.43-7.5-5.44-15.88-10-24.44-13.59-54.6-22.95-107.22-17.68-157.86,12.08-1.06.62-2,1.48-2.94,2.29-5.96,5.1-13.43,5.06-18.12-1.28-3.55-4.8-6.36-10.5-8.1-16.22-5.37-17.57-6.71-35.79-7.07-54.06-.46-23.55.56-46.99,7.04-69.82,1.41-4.97,3.53-9.94,6.34-14.26,5.19-7.96,12.69-7.78,20.6-2.7,10.12,6.5,20.81,12.6,32.04,16.81,52.13,19.53,102.18,13.85,149.95-14.2,1.27-.75,2.39-1.79,3.5-2.78,5.8-5.16,12.62-4.99,18.01.6,4.74,4.92,7,11.17,8.75,17.58,5.1,18.58,6.4,37.62,6.79,54.4ZM293.22,17.7c-13.05,21.62-13.1,108.63,0,130.43,13.09-21.59,13.12-108.74,0-130.43ZM89.61,17.41c-13.41,24.83-12.51,110.31.16,130.88,13.36-23.93,12.71-109.77-.16-130.88ZM110.31,28.8c1.6,15.19,3.24,30.74,4.88,46.32h28.92c-1.45-11.54-2.8-22.65-4.31-33.74-.11-.84-1.19-1.9-2.06-2.24-9.28-3.58-18.6-7.03-27.43-10.34ZM272.59,28.69c-5.99,2.44-12.01,5.84-18.47,7.28-8.86,1.98-12.36,6.77-12.54,15.53-.17,7.81-1.36,15.6-2.13,23.64h28.28c1.64-15.71,3.25-31.06,4.86-46.45ZM110.3,137.02c8.86-3.31,18.39-6.8,27.84-10.51.94-.37,1.72-2.04,1.92-3.22.91-5.53,1.72-11.09,2.31-16.67.56-5.26.79-10.56,1.18-15.97h-28.36c-1.66,15.78-3.3,31.34-4.89,46.37ZM239.88,90.68c0,1.32-.09,2.41.01,3.49.82,8.44,1.93,16.87,2.45,25.33.32,5.16,2.52,7.89,7.57,8.68,1.82.29,3.56,1.12,5.3,1.82,5.94,2.41,11.87,4.88,17.41,7.17-1.62-15.46-3.24-30.9-4.88-46.5h-27.86ZM155.79,44.07c.79,7.35,1.55,14.39,2.3,21.44.34,3.18-.49,7.78,1.25,9.17,2.11,1.68,6.38.7,9.72.75,4.93.07,9.86.02,14.82.02v-28.05c-9.4-1.11-18.52-2.2-28.09-3.33ZM158.85,90.63c-1.01,10.73-1.98,20.97-2.95,31.27,6.03-.82,11.83-1.58,17.62-2.39,3.49-.49,8.44.15,10.07-1.87,1.79-2.23.55-6.91.57-10.53.03-5.45,0-10.89,0-16.48h-25.31ZM227.39,44.09c-9.58,1.13-18.71,2.21-27.98,3.31v28.02c7.95,0,15.66.06,23.37-.11.7-.02,1.84-1.49,1.95-2.39.44-3.58.47-7.22.8-10.82.55-5.93,1.22-11.86,1.86-18.02ZM199.38,90.66v27.76c9.4,1.11,18.6,2.2,27.91,3.3-.98-10.4-1.95-20.65-2.93-31.06h-24.98Z"/>
  <path class="cls-1" d="M209.9,193.42c2,0,3.48,0,4.96,0,38,0,76-.06,114,.03,21.23.05,37.94,13.74,41.96,34.09.34,1.71.56,3.47.56,5.21.04,27.75.48,55.5-.12,83.24-.46,21.28-18.03,38.2-39.35,39.34-1.87.1-3.75.1-5.62.1-51.87,0-103.75,0-155.62,0-1.5,0-3.02.09-4.49-.14-4.02-.63-6.69-4.01-6.42-7.94.26-3.78,3.16-6.61,7.12-6.88,1.24-.09,2.5-.03,3.75-.03,52.5,0,105,.01,157.5-.01,14.04,0,24.56-7.84,27.64-20.65.63-2.64.77-5.44.78-8.17.06-24.75.07-49.5.02-74.25-.03-17.94-11.08-28.91-29.05-28.92-40.87-.02-81.75,0-122.62,0-7.68,0-9.98-2.33-9.99-10.11,0-6.23,0-12.47,0-19.57-1.44,1.07-2.39,1.7-3.25,2.42-9.59,8.02-19.21,15.99-28.72,24.11-2.63,2.24-5.4,3.21-8.86,3.2-34.25-.08-68.5-.06-102.75-.05-18.61,0-29.52,10.97-29.52,29.63,0,24.5-.01,49,0,73.5.01,17.55,11.27,28.82,28.84,28.86,16.62.03,33.25-.03,49.87.03,6.19.02,10.2,5.67,7.25,10.57-1.18,1.96-3.99,4.14-6.07,4.16-19.73.14-39.56.91-59.18-.65-19.92-1.58-35.21-19.15-35.54-39.21-.46-27.24-.49-54.5,0-81.74.4-22.18,18.72-39.89,41-40.06,34-.26,68-.04,102-.2,2.23-.01,4.87-1.04,6.61-2.47,13.24-10.86,26.33-21.9,39.39-32.96,2.89-2.44,5.87-3.91,9.55-2.22,3.73,1.71,4.42,5.04,4.4,8.77-.06,9.49-.02,18.97-.02,28.98Z"/>
  <path class="cls-1" d="M159.51,287c0-6.25-.09-12.5.03-18.74.13-6.9,5.46-10.03,11.57-7.05.97.47,2.35.62,3.4.35,6.08-1.57,11.82-1.3,17.3,2.14.81.51,2.54.24,3.5-.28,4.86-2.64,10.01-3.16,15.28-2.18,8.02,1.48,13.63,7.35,14.29,16.13.72,9.69.61,19.46.52,29.2-.04,4.41-3.48,7.35-7.5,7.3-4.17-.04-7.25-3.19-7.32-7.85-.11-7.12-.01-14.25-.05-21.37,0-1.62.15-3.39-.45-4.81-.62-1.49-1.82-3.34-3.17-3.79-2.34-.78-4.88-.08-5.81,2.68-.58,1.73-.83,3.65-.86,5.49-.1,7.25.03,14.5-.08,21.74-.07,4.39-2.7,7.31-6.61,7.81-3.57.45-7.11-1.81-8.04-5.3-.31-1.18-.29-2.47-.3-3.72-.03-6.12,0-12.25-.03-18.37,0-1.62.05-3.28-.27-4.86-.49-2.42-.06-5.71-3.87-5.84-3.54-.11-5.06,2.41-5.8,5.35-.51,2.03-.67,4.19-.7,6.29-.09,6,.04,12-.06,17.99-.09,5.24-3.07,8.51-7.49,8.53-4.42.02-7.39-3.28-7.45-8.49-.07-6.12-.02-12.25-.02-18.37Z"/>
  <path class="cls-1" d="M56.5,269.14v10.38c3.83,0,7.53-.04,11.23.01,5.05.07,8.22,2.81,8.38,7.14.16,4.45-3.07,7.62-8.2,7.81-3.71.14-7.42.03-11.34.03v10.2c3.17,0,6.24-.02,9.32,0,1.75.01,3.51-.06,5.23.19,3.96.56,6.65,3.65,6.63,7.38-.02,3.88-2.97,7.19-7.07,7.3-7.36.19-14.74.2-22.11,0-4.32-.11-7.13-3.07-7.16-7.58-.11-16.74-.12-33.48.01-50.22.04-4.73,3.17-7.54,7.97-7.61,6.75-.09,13.49-.08,20.24,0,4.8.05,8.14,3.21,8.11,7.47-.03,4.26-3.35,7.38-8.17,7.48-4.23.09-8.46.02-13.07.02Z"/>
  <path class="cls-1" d="M321.53,266.66c2.68,0,4.76-.1,6.83.02,4.41.26,7.45,3.27,7.51,7.3.07,3.99-2.89,7.35-7.3,7.5-7.11.24-14.25.36-21.34-.03-7.33-.4-10.23-6.79-6-12.87,4.42-6.36,9.14-12.5,13.64-18.79,1.3-1.82,2.42-3.78,3.46-5.77.98-1.87,1-3.79-1.25-4.71-2.07-.85-3.6.05-4.4,2.19-.39,1.04-.82,2.12-1.46,3.01-2.05,2.85-5.86,3.76-9.03,2.28-3.2-1.49-4.88-4.82-4.23-8.36,1.82-9.85,12.29-16.48,22.15-14.02,10.1,2.52,16.52,12.97,12.91,22.5-2.17,5.73-6.05,10.8-9.18,16.16-.6,1.03-1.29,2.01-2.31,3.59Z"/>
  <path class="cls-1" d="M267.52,314.18c-12.53,0-22.77-7.26-26.55-17.89-3.73-10.48-.46-22.42,8.1-29.53,8.74-7.26,21.23-8.29,30.82-2.59,3.33,1.98,5.21,4.66,4.44,8.65-.68,3.51-3.07,5.66-6.44,5.77-2.19.07-4.5-1.09-6.64-2-6.16-2.63-13.05-.09-15.76,5.93-2.64,5.89-.13,12.72,5.79,15.48,4.09,1.91,7.92,1.67,11.43-1.54,3.83-3.5,8.27-3.52,11.26-.26,2.95,3.22,2.53,7.72-1.14,11.32-4.6,4.51-10.23,6.53-15.3,6.66Z"/>
  <path class="cls-1" d="M119.84,281.51c-4.24,0-8.49.09-12.73-.02-4.95-.14-8.11-3.13-8.1-7.45,0-4.28,3.18-7.38,8.12-7.46,8.48-.13,16.97-.14,25.46,0,4.93.08,8.14,3.21,8.13,7.48,0,4.28-3.22,7.3-8.15,7.43-4.24.12-8.49.02-12.73.02Z"/>
  <path class="cls-1" d="M120.17,292.36c4.24,0,8.49-.07,12.73.02,4.55.1,7.78,3.23,7.8,7.37.02,4.15-3.13,7.46-7.7,7.54-8.74.15-17.48.15-26.21,0-4.57-.07-7.75-3.32-7.78-7.45-.03-4.35,3.17-7.39,8.05-7.48,4.37-.08,8.74-.02,13.11-.01Z"/>
  <path class="cls-1" d="M126.61,347.71c.09-4.13,3.36-7.33,7.44-7.27,4.05.06,7.39,3.42,7.38,7.41-.02,4.2-3.61,7.69-7.7,7.5-4.1-.19-7.2-3.53-7.11-7.64Z"/>
</svg>