<?xml version="1.0" encoding="UTF-8"?>
<svg id="Capa_1" data-name="Capa 1" xmlns="http://www.w3.org/2000/svg" viewBox="0 0 384 384">
  <defs>
    <style>
      .cls-1 {
        fill: #000;
        stroke-width: 0px;
      }
    </style>
  </defs>
  <path class="cls-1" d="M185.25,0c6.5,0,13,0,19.5,0,.82.22,1.64.47,2.48.65,10.31,2.33,20.85,3.96,30.87,7.21,7.86,2.55,15.14,6.95,22.53,10.82,3.46,1.82,4.25,5.3,2.54,8.27-1.71,2.97-4.9,3.75-8.46,2.04-.75-.36-1.48-.78-2.48-1.31v43.21c.56.15.9.28,1.26.35,33.35,5.86,65.34,15.97,95.83,30.76,4.1,1.99,5.58,4.99,4.16,8.29-1.52,3.51-4.92,4.49-9.15,2.61-2.65-1.18-5.28-2.4-8.1-3.68v148.78h3.87c11.74,0,23.49.12,35.23-.07,3.67-.06,6.57.77,8.69,3.82v28.5c-2.12,3.03-5.01,3.88-8.68,3.82-11.72-.19-23.45-.07-35.18-.07h-4.14v4.6c0,25.57-.06,51.15.07,76.72.02,3.66-.78,6.56-3.82,8.68H51.75c-3.04-2.12-3.84-5.02-3.82-8.67.13-25.7.07-51.4.07-77.1v-4.23c-13.42,0-26.37-.11-39.32.07-3.66.05-6.56-.78-8.68-3.82v-28.5c2.12-3.06,5.03-3.88,8.7-3.82,11.75.19,23.5.07,35.24.07h3.77V109.15c-3.1,1.45-5.76,2.77-8.48,3.96-3.83,1.67-7.04.67-8.59-2.58-1.54-3.21-.26-6.45,3.48-8.26,21.97-10.61,44.72-19.14,68.42-24.96,11.6-2.85,23.36-5.09,35.27-7.66V27.77c-.75.35-1.3.57-1.82.84-4.11,2.06-7.3,1.5-9.13-1.62-1.91-3.26-.72-6.44,3.41-8.94,9.99-6.05,20.57-10.8,31.92-13.55C169.8,2.66,177.56,1.48,185.25,0ZM299.83,294.26H84.31v35.54h215.52v-35.54ZM299.83,342.26H84.3v29.55h215.52v-29.55ZM92.72,215.88c.12-.49.21-.63.18-.73-.13-.48-.3-.95-.46-1.42-5.36-16.05-1.31-30.01,9.65-42.28,5-5.6,9.67-4.45,12.25,2.53,1.48,4.01,3.3,7.9,4.98,11.87.69-.36.88-.39.91-.48.23-.7.46-1.41.65-2.12,3.29-12.1,9.43-22.5,18.52-31.15,2.08-1.98,4.42-2.82,7.16-1.45,2.85,1.42,3.73,3.85,3.31,6.87-.09.62-.28,1.22-.36,1.84-1.06,9.06.94,17.28,7.37,25.66,1.03-1.58,1.66-2.84,2.54-3.87,5.58-6.52,8.4-14.06,8.61-22.63.04-1.6.03-3.3.57-4.77,1.18-3.26,4.59-4.8,8.01-3.03,6.66,3.47,13.05,7.46,19.67,11.31,2.41-2.66,5.32-5.89,8.27-9.1,1.96-2.13,4.2-3.67,7.26-2.61,3.17,1.1,4.01,3.62,4.31,6.75.89,9.45,4.51,17.76,10.52,25.17,3.45,4.25,5.35,4.37,9.98-.29,3.46-3.48,4.02-8.15,3.47-12.95-.35-3.08.92-5.39,3.85-6.56,2.83-1.13,5.21-.15,6.98,2.11,2.69,3.44,5.43,6.87,7.76,10.55,2.51,3.95,4.57,8.19,7.39,13.34,1.48-5.68,2.41-10.53,4.1-15.1.75-2.04,2.8-4.44,4.72-4.95,1.72-.46,4.27,1.15,6.08,2.4,1.35.94,2.16,2.71,3.1,4.18,7.98,12.41,11.2,25.96,9.49,40.75h6.26v-71.52H84.24v71.68h8.48ZM299.83,228.26H84.31v29.54h215.52v-29.54ZM299.7,131.87v-23.68H84.23v23.68h215.47ZM371.84,270.27H12.19v11.53h359.65v-11.53ZM84.42,95.64h215.21c-71.77-23.3-143.51-23.29-215.21,0ZM179.47,165.85c-2.36,12.42-8.3,22.37-18.26,29.8-4.48,3.34-6.62,3.19-10.87-.57-5.68-5.02-9.44-11.22-11.53-18.48-.27-.92-.58-1.83-1.07-3.35-5.13,9.31-7.56,18.5-5.93,28.55.53,3.26-.08,6.01-3.3,7.57-3.11,1.5-5.64.29-7.64-2.09-3.14-3.71-6.27-7.45-9.11-11.39-2.11-2.94-3.75-6.23-5.8-9.7-4.97,9.03-5.13,17.68-.92,26.56,1.17,2.46,2.69,3.33,5.47,3.32,24.23-.12,48.46-.07,72.69-.07q12.9,0,14.55-12.99c1.81-14.29-6-30.42-18.25-37.17ZM239.85,42.25h-89.59v26.21c30-3.56,59.73-3.17,89.59.69v-26.9ZM251.02,184.11c-.43.04-.86.09-1.29.13-4,7.68-10.34,12.04-18.73,13.53-3.16.56-5.79-.07-8.24-2.35-7-6.51-12.2-14.16-15.49-23.12-.31-.85-.72-1.66-1.12-2.58-2.62,2.22-2.7,4.2-1.28,7.03,4.78,9.53,6.25,19.68,4.53,30.23-.48,2.92-1.14,5.8-1.73,8.76h73.55c1.6-8.94.69-17.3-2.83-25.58-3.02,5.65-5.8,10.8-8.54,15.96-1.5,2.83-3.75,4.4-7,3.8-3.07-.57-4.18-2.8-5.04-5.72-1.99-6.78-4.5-13.4-6.79-20.09ZM150.25,29.74h89.75c0-1.12-.13-2.01.02-2.84.77-4.24-.98-6.23-5.11-7.71-25.88-9.3-51.75-9.66-77.73-.65-7.73,2.68-7.71,2.73-6.94,11.2ZM312,99.64v20.11h12c0-1.85,0-3.45,0-5.05q0-11.5-10.63-14.94c-.23-.07-.49-.05-1.37-.12ZM71.81,119.83v-20.52c-3.8,1.47-7.28,2.74-10.68,4.21-.56.24-1.06,1.32-1.08,2.03-.09,4.71-.05,9.42-.05,14.29h11.8ZM71.73,215.84v-11.54h-11.53v11.54h11.53ZM312.16,215.8h11.61v-11.54h-11.61v11.54ZM71.82,228.21h-11.58v11.51h11.58v-11.51ZM323.85,180.18h-11.64v11.58h11.64v-11.58ZM312.2,228.16v11.61h11.54v-11.61h-11.54ZM60.15,143.82h11.64v-11.58h-11.64v11.58ZM323.72,143.85v-11.67h-11.51v11.67h11.51ZM71.73,167.84v-11.54h-11.53v11.54h11.53ZM312.16,167.73h11.54v-11.53h-11.54v11.53ZM71.85,312.28h-11.67v11.51h11.67v-11.51ZM323.86,312.29h-11.67v11.49h11.67v-11.49ZM71.77,347.93v-11.67h-11.47v11.67h11.47ZM323.85,336.18h-11.64v11.58h11.64v-11.58ZM60.16,191.81h11.62v-11.56h-11.62v11.56ZM60.21,360.18v11.58h11.51v-11.58h-11.51ZM323.84,360.19h-11.62v11.56h11.62v-11.56ZM60.18,299.76h11.54v-5.58h-11.54v5.58ZM312.26,294.17v5.55h11.56v-5.55h-11.56ZM60.06,257.77h11.66v-5.47h-11.66v5.47ZM323.94,252.28h-11.67v5.42h11.67v-5.42Z"/>
  <path class="cls-1" d="M216.03,246.06c-.03,3.28-2.65,5.9-5.9,5.92-3.2.02-5.96-2.66-6.04-5.85-.08-3.33,2.8-6.18,6.16-6.1,3.27.09,5.82,2.74,5.78,6.03Z"/>
  <path class="cls-1" d="M252.03,246.01c0,3.28-2.6,5.92-5.86,5.96-3.34.05-6.21-2.86-6.09-6.17.12-3.2,2.91-5.83,6.11-5.77,3.27.06,5.84,2.7,5.83,5.98Z"/>
  <path class="cls-1" d="M282.04,251.97c-3.19-.03-5.93-2.76-5.95-5.94-.02-3.33,2.91-6.14,6.25-6,3.27.14,5.77,2.83,5.69,6.12-.08,3.27-2.73,5.86-5.99,5.82Z"/>
  <path class="cls-1" d="M102.19,251.97c-3.2.05-5.99-2.59-6.1-5.79-.12-3.31,2.75-6.21,6.09-6.16,3.27.05,5.85,2.68,5.85,5.96,0,3.28-2.58,5.92-5.84,5.98Z"/>
  <path class="cls-1" d="M138.09,240.03c3.27,0,5.89,2.58,5.95,5.87.06,3.43-2.71,6.18-6.11,6.07-3.21-.1-5.88-2.88-5.83-6.06.05-3.18,2.8-5.88,6-5.88Z"/>
  <path class="cls-1" d="M174.04,251.97c-3.19-.03-5.93-2.76-5.95-5.93-.03-3.33,2.9-6.14,6.25-6.01,3.27.14,5.77,2.82,5.7,6.11-.07,3.27-2.73,5.86-5.99,5.83Z"/>
</svg>