<?xml version="1.0" encoding="UTF-8"?>
<svg id="Capa_1" data-name="Capa 1" xmlns="http://www.w3.org/2000/svg" viewBox="0 0 369 384">
  <defs>
    <style>
      .cls-1 {
        fill: #eee;
        stroke-width: 0px;
      }
    </style>
  </defs>
  <path class="cls-1" d="M100.54,0c8.22,1.98,16.59,3.47,24.61,6.05,11.06,3.57,11.28,4.63,7.09,15.14,4.45,3.1,8.92,6.22,14.63,10.19.85-1.26,1.66-3.04,2.97-4.31,2.65-2.55,5.73-2.52,8.31.04,12.46,12.37,20.64,27.14,24.48,44.28.76,3.36-.81,5.8-4.19,6.85-1.78.55-3.62.89-5.67,1.38.07,1.04.08,2,.2,2.95.1.85.31,1.69.54,2.84,1.79,0,3.52-.06,5.25.01,3.95.15,5.97,2.11,5.97,6.1,0,17.31-4.81,33.24-14.08,47.82-2.23,3.51-5.02,4.02-8.66,1.92-1.4-.8-2.75-1.68-4.26-2.6-3.78,4.03-7.5,8-11.38,12.16.83,1.13,1.7,2.32,2.58,3.5,2.88,3.9,2.58,6.73-1.28,9.57-12.08,8.9-25.56,14.48-40.37,16.86-1.85.3-3.71.59-5.57.72-5.03.34-6.82-1.14-7.52-6.1-.19-1.35-.34-2.71-.53-4.28-5.57-.51-11.09-1.01-16.76-1.53-.34,1.04-.68,1.96-.94,2.9-1.85,6.48-3.8,7.51-10.38,5.54-14.76-4.42-27.62-12.05-38.6-22.84-5.74-5.64-5.74-7.58.1-13.03.54-.5,1.25-.82,1.8-1.18-3.23-5.02-6.11-9.51-9.18-14.27-1.5.56-3.09,1.17-4.7,1.75-3.99,1.42-6.63.43-8.2-3.38C.37,109.45-1.52,93.27,1.22,76.6c.87-5.3,3.14-6.78,8.35-5.91,1.33.22,2.66.45,3.98.67,1.98-5.27,3.85-10.25,5.81-15.5-1.4-.83-2.9-1.67-4.35-2.6-3.32-2.13-4.23-4.99-2.26-8.3,8.97-15.1,21.32-26.64,36.96-34.61,3.3-1.69,6.03-.7,7.95,2.5.89,1.48,1.67,3.03,2.53,4.58,5.44-1.67,10.65-3.27,16.17-4.96-.15-1.24-.32-2.56-.47-3.89-.59-5.27,1.06-7.3,6.37-7.97C83.12.52,83.95.21,84.79,0c5.25,0,10.5,0,15.75,0ZM121.42,16.54c-10.76-4.03-21.82-5.81-33.7-5.11.22,1.72.42,3.16.58,4.6.42,3.79-1.41,6.06-5.06,7.11-7.64,2.19-15.25,4.48-22.78,6.98-3.41,1.14-5.85.42-7.7-2.54-.91-1.45-1.68-2.98-2.6-4.63-10.04,6.1-18.19,13.64-24.73,23.14.8.52,1.41.95,2.04,1.33,6.27,3.79,6.44,5.14,3.31,11.71-2.4,5.04-4.48,10.3-6.01,15.66-2.57,9.02-2.7,9.33-12.08,7.97-.21-.03-.45.16-.98.37-1.2,11.06.02,21.94,3.68,32.8,1.14-.38,2.08-.66,2.99-1.01,5.92-2.28,7.58-1.41,10.58,4.32,2.42,4.62,5.08,9.2,8.2,13.37,6.43,8.59,6.59,8.47-.36,16.34,8.39,7.82,17.97,13.57,29.02,17.29.4-1.21.73-2.13,1-3.08,1.62-5.67,3.51-6.64,9.28-5.67,5.52.93,11.11,1.82,16.69,1.97,10.24.29,10.25.06,12.66,10.19,11.27-1.84,21.73-5.69,31.49-12.1-.59-.89-.96-1.51-1.39-2.09-4.2-5.58-3.8-7.22,1.31-11.82,4.25-3.82,8.3-7.97,11.87-12.42,5.92-7.36,5.88-7.54,14.19-2.73.19.11.47.09.98.17,5.37-9.87,8.64-20.37,9.36-32-1.4,0-2.38.01-3.36,0-5.83-.08-7.51-1.83-7.84-7.55-.22-3.85-.7-7.7-1.3-11.51-.74-4.77.59-6.92,5.38-8.13,1.29-.32,2.57-.67,4.07-1.06-3.38-11.15-8.74-20.8-16.38-29.43-.89.81-1.54,1.37-2.16,1.96-4.88,4.67-6.36,4.51-11.67.09-4.11-3.42-8.42-6.69-13-9.43-8.88-5.31-8.98-5.13-5.58-15.05Z"/>
  <path class="cls-1" d="M86.29,384c-1.82-2.74-3.64-5.48-6.12-9.21-2.5-.23-6.57-.61-10.78-.99-.17.18-.56.41-.63.71-1.69,7.92-5.49,8.05-11.76,5.94-12.3-4.15-23.11-10.58-32.26-19.78-4.59-4.61-4.55-6.99.15-11.48.36-.34.68-.72,1.15-1.22-2.21-3.44-4.41-6.85-6.61-10.26-.26-.06-.53-.21-.73-.15-8.33,2.68-9.62,2.04-12.49-6.34-4.09-11.92-5.21-24.13-3.38-36.58.96-6.55,2.57-7.63,9.29-6.7.49.07.99,0,1.7,0,1.42-3.76,2.85-7.57,4.28-11.35-.18-.26-.27-.54-.46-.66-7.01-4.67-7.31-6.02-2.61-13.09,7.11-10.71,16.34-19.15,27.59-25.37,5.83-3.22,7.85-2.65,11.07,3.14.24.43.5.85.86,1.45,4.05-1.25,8.05-2.48,12.02-3.71.11-.3.27-.53.26-.76-.23-8.47.19-9.15,8.66-9.92,13.19-1.2,25.88,1.09,38.04,6.3,5.34,2.28,6.24,4.73,3.91,9.98-.25.56-.47,1.14-.81,1.97,3.45,2.43,6.88,4.84,10.31,7.26.24-.09.5-.11.66-.25,6.24-5.67,7.63-5.64,13.38.67,8.92,9.8,14.97,21.13,18.08,34.02,1.18,4.9-.29,7.21-5.1,8.59-1.05.3-1.89,1.35-2.83,2.06,1.1.63,2.16,1.71,3.31,1.81,5.01.42,6.93,2.29,6.81,7.36-.35,13.76-4.02,26.58-11.14,38.39-3.28,5.44-5.44,6-10.95,2.77-.52-.3-1.06-.57-1.73-.93-2.88,3.09-5.67,6.08-8.44,9.05.06.3.03.59.16.77,4.6,6.75,4.35,8.33-2.35,12.89-9.96,6.79-20.92,11.04-32.82,12.92-.83.13-1.63.47-2.45.7h-5.25ZM57.93,369.81c.68-1.85,1.04-2.75,1.35-3.68,1.32-3.92,3.34-5.05,7.35-4.64,6.55.68,13.11,1.24,19.68,1.66,3.73.24,5.79,1.77,6.48,5.44.2,1.08.32,2.18.5,3.44,9.05-1.72,17.39-4.61,24.97-9.62-3.95-6.2-3.88-7.89-.68-11.16,4.62-4.7,9.09-9.54,13.47-14.47,2.37-2.67,4.9-3.19,7.98-1.57.98.51,1.93,1.07,3.13,1.73,4.29-8.02,6.9-16.28,7.46-25.43-1.17-.06-1.89-.11-2.62-.14-4.74-.21-6.42-1.97-6.75-6.6-.25-3.6-.74-7.19-1.24-10.77-.51-3.67.87-6.07,4.38-7.16,1.05-.33,2.13-.55,3.51-.91-2.68-8.77-7-16.35-12.91-23.29-.96.87-1.77,1.62-2.59,2.36-2.62,2.36-5.23,2.37-8.11.3-5.55-3.99-11.17-7.89-16.83-11.71-2.81-1.89-3.65-4.28-2.54-7.41.36-1.03.82-2.02,1.39-3.37-8.74-3.13-17.39-4.59-26.43-4.07,0,1.46-.01,2.45,0,3.44.05,3.88-1.43,5.53-5.2,6.6-6.33,1.8-12.62,3.75-18.87,5.79-3.6,1.18-5.92.5-7.94-2.78-.52-.84-.99-1.71-1.64-2.85-7.79,4.87-14.35,10.77-19.48,18.29,6.92,4.64,6.95,5.56,3.51,12.88-2.16,4.59-3.72,9.5-5.13,14.38-1.35,4.64-2.78,5.92-7.71,5.55-.84-.06-1.69-.08-2.81-.14-.73,9.02-.17,17.65,2.98,26.06,6.62-2.31,8.53-1.84,10.79,1.8,3.54,5.7,7.21,11.32,10.96,16.89,1.99,2.95,1.92,5.57-.6,8.05-.78.77-1.75,1.35-3.65,2.8,8.46,5.06,15.99,9.57,23.86,14.29Z"/>
  <path class="cls-1" d="M261.49,313.17c-7.41-.66-14.58-1.3-22.24-1.99-.52,1.89-1.09,4.01-1.7,6.13-1.44,4.98-3.95,6.41-9,4.95-15.82-4.6-30-12.24-42.35-23.17-2.8-2.48-5.49-5.12-8.04-7.85-2.98-3.19-2.82-6.11.31-9.13,1.7-1.65,3.48-3.21,5.19-4.77-4.02-6.3-7.94-12.46-12.04-18.88-2.2.87-4.49,1.82-6.81,2.67-3.77,1.38-6.49.41-7.96-3.2-7.97-19.57-10.11-39.81-6.55-60.63.63-3.65,3.13-5.28,6.8-4.81,2.47.31,4.91.78,7.48,1.19,2.58-6.97,5.12-13.82,7.79-21.04-1.9-1.11-4.05-2.32-6.14-3.61-3.57-2.21-4.45-5.04-2.38-8.54,10.67-18.09,25.33-32.04,43.91-41.84,3.48-1.84,6.23-.91,8.22,2.52,1.24,2.14,2.32,4.38,3.45,6.55,7.18-2.24,14.15-4.41,21.4-6.66-.26-2.22-.61-4.54-.78-6.88-.35-4.61,1.08-6.72,5.54-7.25,20.83-2.46,40.83.62,59.86,9.49,3.38,1.57,4.28,4.36,2.87,7.81-.98,2.4-2.13,4.74-3.13,6.95,6.12,4.33,12.01,8.5,19.15,13.55,1.12-1.53,2.33-3.62,3.96-5.3,3.21-3.31,6.26-3.32,9.39-.11,14.55,14.94,24.14,32.61,28.72,52.96.85,3.76-.74,6.25-4.53,7.28-2.39.65-4.83,1.16-7.54,1.8.28,3,.56,5.91.88,9.34,2.75,0,5.33-.08,7.9.02,3.73.14,5.89,2.15,5.88,5.85-.04,21.13-5.73,40.65-16.99,58.52-2.14,3.4-4.88,3.94-8.35,1.94-2.16-1.24-4.22-2.65-6.32-3.98-5.02,5.48-9.97,10.87-15.13,16.5,1.36,1.81,2.89,3.76,4.33,5.78,2.37,3.34,2.03,6.35-1.21,8.81-16.74,12.69-35.65,19.85-56.5,21.91-3.61.36-5.92-1.54-6.51-5.21-.41-2.56-.56-5.16-.82-7.68ZM176.32,161.77c2.21,1.34,4.37,2.56,6.44,3.91,3.25,2.12,4.12,4.68,2.26,7.99-4.81,8.57-8.08,17.66-10.08,27.27-.83,3.97-3.02,5.27-7.12,4.75-2.31-.3-4.6-.68-7.11-1.05-1.95,15.2-.21,29.6,4.68,44.01,2.53-.99,4.7-1.9,6.9-2.71,3.63-1.33,6.24-.5,7.76,2.94,4.02,9.11,9.25,17.38,15.84,24.84,2.34,2.65,2.02,5.55-.43,8.06-1.73,1.77-3.64,3.38-5.7,5.26,10.97,10.58,23.38,18.32,37.97,23.06.72-2.63,1.26-4.92,1.97-7.17,1.13-3.55,3.58-5.18,7.2-4.29,9.66,2.39,19.42,3.25,29.35,2.65,3.64-.22,5.64,1.9,6.06,5.69.26,2.33.51,4.66.79,7.16,15.12-2.24,28.69-7.49,41.33-16.07-1.6-2.1-3.17-4.02-4.57-6.04-2.18-3.15-1.96-5.89,1.01-8.26,7.69-6.13,14.21-13.28,19.71-21.42,2.22-3.29,4.92-3.64,8.44-1.58,2.01,1.18,3.97,2.43,6.15,3.78,7.44-13.41,11.5-27.33,12.38-42.61-2.4,0-4.5.03-6.6,0-4.7-.09-6.46-1.91-6.87-6.51-.5-5.59-1.19-11.16-1.91-16.73-.52-4.05,1.01-6.45,5.01-7.42,2.27-.54,4.55-1.05,6.96-1.6-4.27-14.82-11.17-27.68-21.52-39.2-1.87,2.02-3.32,3.75-4.95,5.29-2.84,2.7-5.85,2.84-8.61.18-7.08-6.81-14.96-12.41-23.79-16.76-3.37-1.66-4.14-4.39-2.68-7.88.94-2.24,2.04-4.43,3.17-6.87-14.34-5.61-28.66-7.9-43.88-6.77.32,2.76.69,5.08.85,7.42.25,3.77-1.37,6.16-5.03,6.67-9.74,1.36-18.93,4.35-27.76,8.63-3.52,1.71-6.15.66-8.14-2.84-1.16-2.04-2.2-4.15-3.37-6.38-13.15,7.84-23.68,17.91-32.13,30.59Z"/>
  <path class="cls-1" d="M127.72,114.03c10.97-14.12,9.45-36.64-3.09-50.54-12.56-13.92-32.06-18.24-49.32-10.93-.46.19-.9.43-1.36.62-3.72,1.53-6.86.56-8.23-2.55-1.36-3.08.02-6.01,3.76-7.78,7.47-3.53,15.38-5.21,23.61-5.07,30.76.53,54.17,25.16,53.23,55.87-.78,25.43-21.96,47.55-48.09,50.24-27.94,2.87-53.17-15.39-58.74-42.85-3.07-15.13.37-29,9.44-41.46,2.6-3.57,5.79-4.32,8.62-2.22,2.81,2.08,2.96,5.24.4,8.91-9.81,14.08-10.98,28.81-3.29,44.19.55,1.1,1.26,2.12,2,3.35,1.92-3.86,3.49-7.63,5.58-11.08,3.17-5.23,5.78-13.2,5.89-18.99.2-10.24,5.05-17.76,14.24-21.96,9.38-4.29,18.46-2.9,26.17,3.96,7.57,6.74,9.99,15.36,7.09,25.16-.7,2.36-.47,3.7,1.45,5.37,5.33,4.62,8.56,10.65,10.62,17.76ZM107.77,103.1c-11.16,6.69-17.8,6.82-29.11,1.02-.85-.44-2.71-.13-3.41.55-5.21,4.98-7.95,11.13-7.69,18.39.04,1.09.98,2.51,1.93,3.15,13.07,8.87,32.81,8.82,46.04-.08.89-.6,1.96-1.82,1.94-2.72-.2-8.1-2.96-15.08-9.7-20.3ZM92.27,96.95c7.25.08,13.21-5.69,13.32-12.9.11-7.09-5.86-13.2-13.01-13.32-7.15-.12-13.14,5.77-13.21,13-.07,7.37,5.55,13.14,12.89,13.21Z"/>
  <path class="cls-1" d="M50.57,322.35c3.39-4.48,6.86-8.82,10.01-13.38.7-1.01.69-2.89.33-4.18-2.42-8.54.07-17.63,6.84-23.06,7.2-5.78,15.18-6.75,23.5-2.75,9.53,4.57,14.21,15.45,10.91,25.57-.85,2.6-.07,3.82,1.51,5.7,3.25,3.87,5.96,8.19,9.4,13.05,1.31-4.46,3.33-8.88,3.82-13.47,2.63-24.62-19.94-43.92-43.95-37.87-5.88,1.48-8.94.42-9.82-3.39-.86-3.75,1.52-6.22,7.31-7.59,25.88-6.13,52.07,10.13,57.09,35.45,5.19,26.17-11.9,50.49-38.71,55.07-18.11,3.09-37.32-5.76-47.24-21.76-9.76-15.76-9.01-35.86,1.98-50.75,1.01-1.37,2.4-3.28,3.73-3.38,2.08-.17,4.78.41,6.29,1.74,2.21,1.95,1.65,4.79-.15,7.12-4.24,5.48-6.64,11.66-7.34,18.55-.69,6.72,1.29,15,4.48,19.34ZM81.65,340.66c6.52.12,12.62-1.5,18.11-4.93,1.16-.72,2.19-2.69,2.17-4.07-.05-5.19-2.29-9.58-5.87-13.33-1.47-1.54-2.67-1.95-4.79-.81-5.55,2.99-11.46,3.11-17.35.97-5.39-1.96-6.39-1.91-9.28,3.12-1.62,2.83-2.36,6.2-3.35,9.37-.74,2.37.25,3.89,2.49,5.09,5.61,3,11.49,4.71,17.86,4.6ZM91.98,298.18c-.06-5.75-4.84-10.34-10.64-10.21-5.61.13-10.1,4.77-10.05,10.39.05,5.79,4.81,10.39,10.6,10.23,5.62-.16,10.15-4.83,10.09-10.41Z"/>
  <path class="cls-1" d="M220.25,250.07c1.91-9.25,5.97-16.73,12.74-22.76.76-.68.62-2.91.24-4.23-3.62-12.61,2.62-25.7,14.65-30.43,12.16-4.79,25.72.33,31.53,11.98,3.1,6.22,3.44,12.65,1.33,19.3-.34,1.08,0,3,.78,3.7,7.5,6.76,11.67,15.13,12.7,25.14.36.35.72.7,1.08,1.06.94-1.38,1.76-2.87,2.83-4.13,17.33-20.47,16.25-50.39-2.54-69.55-4.29-4.37-4.89-7.45-1.99-10.17,2.72-2.55,6.04-1.82,9.99,2.21,18.46,18.78,23.3,47,12.13,70.75-11.21,23.85-36.3,38.28-62.56,35.96-31.5-2.78-56.08-29.03-57.16-61.03-1.04-30.74,21.7-58.39,52.18-63.46,9.51-1.58,18.91-1.13,28.19,1.57,4.4,1.28,6.48,4.09,5.47,7.42-1.02,3.38-4.07,4.56-8.63,3.33-30.04-8.06-59.19,9.85-65.03,40.24-2.86,14.9.75,28.49,9.81,40.63.57.76,1.29,1.41,2.26,2.46ZM241.33,235.28c-7.33,5.88-10.59,13.44-10,22.64.07,1.1,1.14,2.55,2.15,3.1,15.21,8.41,30.83,9.07,46.73,2.09,1.05-.46,2.13-1.81,2.39-2.93,2.05-8.91-2.23-19.53-9.88-24.77-10.33,7.13-20.81,7.17-31.39-.13ZM270.79,215.91c.07-7.6-6.14-13.87-13.71-13.85-7.46.02-13.58,6.12-13.61,13.56-.03,7.5,5.92,13.68,13.33,13.85,7.57.18,13.92-5.97,13.99-13.55Z"/>
</svg>