<?xml version="1.0" encoding="UTF-8"?>
<svg id="Capa_3" data-name="Capa 3" xmlns="http://www.w3.org/2000/svg" viewBox="0 0 150.72 179.84">
  <defs>
    <style>
      .cls-1 {
        fill: #eee;
        stroke-width: 0px;
      }
    </style>
  </defs>
  <path class="cls-1" d="M73.84,179.84c-5.9-2.5-11.94-4.74-17.69-7.56-27.19-13.36-44.65-34.67-51.85-64.21C1.84,97.92.33,87.6.15,77.17c-.26-14.86-.1-29.73-.06-44.59,0-3.9,2.59-6.27,6.78-6.5,4.5-.25,9.01-.32,13.49-.8,18.29-1.93,34.42-8.82,48.08-21.27.74-.67,1.45-1.37,2.19-2.03,2.99-2.69,6.2-2.61,9.28-.02,3.93,3.31,7.8,6.75,12.01,9.68,10.61,7.39,22.52,11.59,35.29,13.23,5.21.67,10.49.89,15.74,1.15,5.2.25,7.46,2.44,7.5,7.59.1,11.77.37,23.53.25,35.29-.14,14.07-1.51,28.03-5.16,41.69-7.47,27.93-24.39,48.17-50.1,61.1-6.08,3.06-12.51,5.43-18.78,8.12h-2.81ZM12.67,38.79c-.03.64-.07,1.22-.08,1.8-.1,7.55-.24,15.1-.27,22.65-.05,13.83.74,27.59,3.9,41.13,3.85,16.5,11.47,30.81,24.1,42.29,9.98,9.07,21.64,15.26,34.2,19.89.52.19,1.29.13,1.8-.11,6.56-3.06,13.32-5.77,19.58-9.36,13.66-7.84,24.26-18.76,31.35-32.95,6.9-13.82,9.7-28.68,10.37-43.88.59-13.26.22-26.56.27-39.84,0-.57-.08-1.13-.11-1.65-4.56-.51-8.98-.92-13.38-1.52-17.76-2.44-33.58-9.34-47.31-20.89-1.48-1.24-2.27-1.19-3.72.02-13.21,11.08-28.37,17.97-45.42,20.56-5.02.76-10.08,1.26-15.29,1.89Z"/>
  <path class="cls-1" d="M66.81,98.61c.43-.6.75-1.17,1.2-1.62,9.42-9.44,18.86-18.87,28.28-28.31,1.32-1.32,2.76-2.35,4.71-2.42,2.64-.09,4.68.97,5.9,3.32,1.21,2.34.99,4.63-.59,6.75-.42.56-.92,1.06-1.42,1.55-10.96,10.97-21.92,21.93-32.88,32.89-3.85,3.85-7.04,3.86-10.87.04-5.42-5.42-10.84-10.83-16.26-16.26-1.8-1.8-2.45-3.97-1.74-6.43.69-2.41,2.38-3.86,4.8-4.37,2.39-.51,4.34.41,6.02,2.09,3.72,3.73,7.45,7.45,11.17,11.16.45.45.92.88,1.68,1.6Z"/>
</svg>