<?xml version="1.0" encoding="UTF-8"?>
<svg id="Capa_1" data-name="Capa 1" xmlns="http://www.w3.org/2000/svg" version="1.1" viewBox="0 0 400 400">
  <defs>
    <style>
      .cls-1 {
        fill: #042620;
      }

      .cls-1, .cls-2, .cls-3 {
        stroke-width: 0px;
      }

      .cls-2, .cls-3 {
        fill: #59c2ab;
      }

      .cls-3 {
        fill-rule: evenodd;
      }
    </style>
  </defs>
  <g>
    <path class="cls-2" d="M13,13h374v374H13V13Z"/>
    <path class="cls-1" d="M29.5,29.5h341.1v341.1H29.5V29.5Z"/>
    <path class="cls-2" d="M163.1,198.6c-4.4-17.7-15.3-53.5-19.7-72h-.2c-3.3,17.5-12.4,47.4-19.1,72h39.1ZM118.2,224.5l-13.5,46.1c-.2,1.6-.9,2.1-2.2,2.1h-22.6c-1.6,0-2-.8-1.6-2.6,12-40.5,32.2-108,46.4-153.8.7-2.6,1.3-5.3,1.8-14.6,0-1.1.7-1.6,1.3-1.6h30.6c1.1,0,1.3.3,1.8,1.3,16.4,54.3,34.4,114.1,51.3,168.9.4,1.6,0,2.4-1.3,2.4h-24.9c-1.1,0-1.6-.5-2-1.6l-14.2-46.6h-50.8Z"/>
  </g>
  <path class="cls-3" d="M317.6,247c0,1.8.3,7.2.8,15.9,0,1,0,1.5-1.1,1.8-13.6,5.1-28.7,10.5-47.8,10.5s-45.8-9-45.8-45v-82.1c0-1.3.5-2.1,1.8-2.1h24.5c1.3,0,1.8.8,1.8,2.1v78.8c0,15.2,5.7,23.4,21.7,23.4s12.3-1.3,16.1-2.8v-99.4c0-1.3.5-2.1,1.8-2.1h24.4c1.5,0,1.8.8,1.8,2.1v98.9Z"/>
</svg>