<?xml version="1.0" encoding="UTF-8"?>
<svg id="Capa_1" data-name="Capa 1" xmlns="http://www.w3.org/2000/svg" version="1.1" viewBox="0 0 500 500">
  <defs>
    <style>
      .cls-1 {
        fill: #00ac47;
      }

      .cls-1, .cls-2, .cls-3, .cls-4, .cls-5, .cls-6 {
        stroke-width: 0px;
      }

      .cls-2 {
        fill: #0066da;
      }

      .cls-3 {
        fill: #2684fc;
      }

      .cls-4 {
        fill: #00832d;
      }

      .cls-5 {
        fill: #ea4335;
      }

      .cls-6 {
        fill: #ffba00;
      }
    </style>
  </defs>
  <path class="cls-2" d="M56.5,395.5l20.1,34.7c4.2,7.3,10.2,13.1,17.2,17.2l71.8-124.3H22c0,8.1,2.1,16.2,6.3,23.5l28.2,48.8Z"/>
  <path class="cls-1" d="M250,176.9l-71.8-124.3c-7.1,4.2-13.1,9.9-17.2,17.2L28.3,299.6c-4.1,7.2-6.3,15.3-6.3,23.5h143.6l84.4-146.3Z"/>
  <path class="cls-5" d="M406.2,447.4c7.1-4.2,13.1-9.9,17.2-17.2l8.4-14.4,40-69.2c4.2-7.3,6.3-15.4,6.3-23.5h-143.7l30.6,60.1,41.3,64.2Z"/>
  <path class="cls-4" d="M250,176.9l71.8-124.3c-7.1-4.2-15.1-6.3-23.5-6.3h-96.6c-8.4,0-16.5,2.4-23.5,6.3l71.8,124.3Z"/>
  <path class="cls-3" d="M334.4,323.1h-168.7l-71.8,124.3c7.1,4.2,15.1,6.3,23.5,6.3h265.3c8.4,0,16.5-2.4,23.5-6.3l-71.8-124.3Z"/>
  <path class="cls-6" d="M405.4,184.7l-66.3-114.9c-4.2-7.3-10.2-13.1-17.2-17.2l-71.8,124.3,84.4,146.3h143.4c0-8.1-2.1-16.2-6.3-23.5l-66.1-114.9Z"/>
</svg>