<?xml version="1.0" encoding="UTF-8"?>
<svg id="Capa_1" data-name="Capa 1" xmlns="http://www.w3.org/2000/svg" version="1.1" viewBox="0 0 2249 2249">
  <defs>
    <style>
      .cls-1 {
        fill: #3b8739;
      }

      .cls-1, .cls-2, .cls-3, .cls-4, .cls-5, .cls-6 {
        stroke-width: 0px;
      }

      .cls-2 {
        fill: #66a060;
      }

      .cls-3 {
        fill: #639d57;
      }

      .cls-4 {
        fill: #333;
      }

      .cls-5 {
        fill: #6da75d;
      }

      .cls-6 {
        fill: #55a344;
      }
    </style>
  </defs>
  <path class="cls-1" d="M1068.3,1214.8v-292.4l-253.2-146.1-253.2,146.1v292.4l253.2,146.2,253.2-146.2Z"/>
  <path class="cls-4" d="M2065.4,1170.4l165,95.3-165,95.3-253.2-146.2v-292.3l253.2-146.2,153.4,88.6c15.6,65.8,25.1,132.9,28.6,200.5l-93.8,54.2v-101.8l-88.2-50.9-88.2,50.9v101.8l88.2,50.8Z"/>
  <path class="cls-2" d="M2114.6,1097v-56.8l-49.1-28.4-49.2,28.4v56.8l49.2,28.4,49.1-28.4Z"/>
  <path class="cls-4" d="M442.3,922.5v385.5l-168.9-96.3v-197.7l-84.3-48.7-84.3,48.7v197.6l-95.9,54.7C3,1219.3,0,1171.9,0,1124.5,0,1036.5,10.1,950.8,29.2,868.6l159.9-92.3,253.2,146.2Z"/>
  <path class="cls-5" d="M815,776.2l253.2,438.5-253.2,146.2-253.1-438.5,253.1-146.2Z"/>
  <path class="cls-6" d="M561.9,1214.8l86.9-141.8-86.9-150.6v292.4Z"/>
  <path class="cls-3" d="M983.8,1068.6l84.4-146.2-253.1-146.1,168.7,292.3Z"/>
  <path class="cls-4" d="M1522.3,437.4v387.9l-84.9-49-253.2,146.2v292.4l253.2,146.2,253.2-146.2v-687.4l-168.3-90.1ZM1521.8,1117.3l-84.4,48.7-84.4-48.7v-97.4l84.4-48.7,84.4,48.7v97.4Z"/>
  <g>
    <path class="cls-2" d="M1239.4,1575.7s-5-42.7-50.7-42.7-77,6-77,31.3,88.9,25.3,122.7,35.3c33.8,9.9,63.6,35.8,48.7,81.5s-60.6,50.7-131.2,50.7-86.5-58.6-86.5-81.5h39.8s-5,35.8,41.7,41.7,91.4,9.3,97.4-26.8c8-47.7-151.1-23.9-165-70.6-11.8-39.5-5-91.4,74.5-99.4s123.2,27.2,123.2,79.5l-37.6,1Z"/>
    <path class="cls-2" d="M855.3,1762l87.9,50.7c44.2,25.5,99.4-6.4,99.4-57.4v-252.6h-35.8v242.6c0,27.8-30.1,45.3-54.3,31.3l-61.3-35.4v-258.9l224.2-129.4,224.2,129.4v258.9l-224.2,129.4-64.6-37.3-42.2,17,106.8,61.6,260-150.1v-300.2l-260-150.1-260,150.1v300.4Z"/>
  </g>
</svg>