<?xml version="1.0" encoding="UTF-8"?>
<svg xmlns="http://www.w3.org/2000/svg" xmlns:xlink="http://www.w3.org/1999/xlink" viewBox="0 0 1182.41 1651.13">
  <defs>
    <style>
      .cls-1 {
        fill: #c9ff8f;
      }

      .cls-1, .cls-2, .cls-3, .cls-4, .cls-5, .cls-6, .cls-7, .cls-8, .cls-9, .cls-10, .cls-11, .cls-12, .cls-13, .cls-14 {
        stroke-width: 0px;
      }

      .cls-15, .cls-2 {
        fill: #000;
      }

      .cls-15, .cls-16, .cls-17 {
        stroke: #000;
      }

      .cls-15, .cls-16, .cls-17, .cls-18, .cls-19, .cls-20 {
        stroke-miterlimit: 10;
      }

      .cls-16, .cls-18, .cls-11 {
        fill: #fff;
      }

      .cls-3 {
        fill: #9ea09f;
      }

      .cls-4 {
        fill: #fe9ad0;
      }

      .cls-5 {
        fill: #e6bffe;
      }

      .cls-6, .cls-20 {
        fill: none;
      }

      .cls-7 {
        fill: #4ff1fe;
      }

      .cls-17 {
        fill: #9a00ff;
      }

      .cls-8 {
        fill: #ff9bd1;
      }

      .cls-18 {
        stroke: #1d1d1b;
      }

      .cls-9 {
        fill: #4deffe;
      }

      .cls-21 {
        clip-path: url(#clippath);
      }

      .cls-19 {
        fill: #ffd374;
        stroke: #ffd374;
      }

      .cls-10 {
        fill: #e5befe;
      }

      .cls-12 {
        fill: #9c9e9e;
      }

      .cls-13 {
        fill: #caff8c;
      }

      .cls-14 {
        fill: #fed273;
      }

      .cls-20 {
        stroke: #6c418e;
        stroke-width: 50px;
      }
    </style>
    <clipPath id="clippath">
      <circle class="cls-6" cx="594.88" cy="819.22" r="578.6"/>
    </clipPath>
  </defs>
  <g id="Fondo">
    <g class="cls-21">
      <path class="cls-9" d="M1173.4,1.66v164.23C1087.81,131.07,1015.35,1.66,1015.35,1.66h158.05Z"/>
      <path class="cls-4" d="M1173.4,165.89v209.99c-.06,0-.1-.02-.16-.02C841.07,317.94,814.06,27.17,812.41,3.24c-.08-1.03-.1-1.58-.1-1.58h203.04s72.46,129.41,158.05,164.23Z"/>
      <path class="cls-14" d="M1173.54,552.9c-.04.39-.14.74-.27,1.05-1.99,4.69-13.61.6-18.56.16-11.45-2.06-21.97-3.86-31.59-5.41-12.68-2.03-25.74-3.91-38.7-5.55-30.63-4.11-35.48-2.96-49.11-4.65-60.72-8.98-111.94-24.32-162.73-51.41-213.9-119.65-217.53-332.11-223.49-367.44-4.46-38.83-18.97-99.1-20.72-118.01l.04-.04c.33-.02.66-.04,1.01-.06,28.9-1.79,133.24,0,180.19-.58.72.55,1.66,1.3,2.78,2.3,1.66,23.93,28.67,314.7,360.84,372.62.27.6.31,1.38.39,2.16.04,43.17.23,143.5-.1,174.88Z"/>
      <path class="cls-1" d="M1173.15,799.22c-.16.1-.35.08-.6-.04-1.13-.51-3.31-3-6.72-6.74-1.66-1.83-3.58-3.89-5.65-6.02-78.99-81.09-282.08-96.86-304.61-98.42-30.87-2.88-64.09-9.7-91.45-18.66-234.39-70.94-272.13-350.34-269.05-391.45-3-127.96-75.7-236.73-114.55-276.79-.19-.19-.39-.37-.56-.56h.02c21.32-.33,184.69-.18,245.9-.21.39,0,.7.02.99.02,1.17.04,1.54.18,1.99.55.16.16.35.37.58.62-.35.02-.68.04-1.01.06l-.04.04c1.75,18.91,16.26,79.18,20.72,118.01,5.96,35.33,9.58,247.79,223.49,367.44,50.79,27.09,102.01,42.43,162.73,51.41,13.63,1.69,18.48.55,49.11,4.65,12.95,1.64,26.02,3.52,38.7,5.55,9.62,1.56,20.14,3.35,31.59,5.41,4.95.45,16.57,4.54,18.56-.16.19.23.37.43.49.58.19,3.68-.12,9.09.04,20.06-.68,55.19,1.03,199.34-.64,224.63Z"/>
      <path class="cls-10" d="M1173.73,1338.17c-.06,1.01-.02.16-.23-1.87-.49-12.5-1.3-24.87-2.45-37.04-.02-.18-.04-.37-.04-.55-23.56-249.79-180.76-430.87-382.14-442.14-291.06,3.06-426.97-221.91-443.09-343.02C341.85,234.24,164.42,63.36,16.42,45.05c-.68-.1-1.38-.18-2.06-.25-.88-12.31-.39-29.58-.19-42.04l.02-.14C97.22-.68,352.33-.48,380.51,1.12c38.85,40.06,111.55,148.82,114.55,276.79-3.08,41.11,34.66,320.51,269.05,391.45,27.36,8.96,60.58,15.77,91.45,18.66,22.53,1.56,225.63,17.33,304.61,98.42,2.06,2.12,3.99,4.19,5.65,6.02,3.41,3.74,5.59,6.23,6.72,6.74,1.73,27.17.45,410.22,1.19,538.99Z"/>
      <path class="cls-7" d="M1173.4,1637.72c.51,4.63-4.15,4.07-7.79,4.05-15.62.04-65.74.02-87.46.02-5.43.62-9.76-.88-13.4-3.58-5.65-4.21-9.64-11.33-13.46-18.01-42.3-76.07-51.39-162.76-56.53-193.26-9.99-71.74-29.6-140.6-54.49-192.09-94.24-205.08-280.43-221.48-332.99-220.7-318.77-24.6-441.34-245.2-429.07-416.59-3.02-37.47-10.07-72.81-21.67-108.16-10.96-34.2-26.13-66.93-41.58-93.83-42.32-74.53-89.89-114.45-100.1-124.95-.27-.27-.51-.53-.72-.76l-.02-.06c-.76-31.2.39-196.07-.1-221.09.16-2.38.7-3.19,2.4-3.66,148,18.31,325.43,189.19,329.35,468.51,16.12,121.11,152.03,346.07,443.09,343.02,201.38,11.28,358.58,192.35,382.14,442.14,0,.18.02.37.04.55.62,9.37,1.23,18.05,1.83,25.92,1.6,34.06.62,270.75.53,312.54Z"/>
      <path class="cls-8" d="M1079.29,1650.24c-.04.49-.2.69-.81.77-19.05.34-185.67-.16-209.09.06-2.09-.34-2.67-1.4-2.92-3.38-.18-1.24-.24-2.86-.49-4.9-.22-3.06-.38-7.21-.61-10.72-9.5-97.15-20.81-152.49-54.94-227.31-4.24-8.77-8.43-16.64-13.76-26.02-104-178.96-278.38-199.65-297.85-202.3-36.66-3.44-80.13-8.94-106.49-13.74-9.73-1.7-19.9-3.67-29.99-5.82-56.32-12-73.38-23.24-76.28-25.33-1.26-.81-4.76-1.72-6.97-2.65C84.34,1058.51,27.85,848.4,15.02,711.31c-.39-4.22-.75-8.37-1.07-12.44v-.04c1.09-92.12-1.56-422.56,0-436.5.08-.91.28-1.13.93-1.15,10.34,10.64,58.57,51.11,101.47,126.66,15.66,27.26,31.03,60.45,42.15,95.12,11.77,35.83,18.91,71.66,21.97,109.65-12.44,173.75,111.82,397.39,434.98,422.32,53.28-.79,242.04,15.83,337.57,223.74,25.23,52.2,45.11,122.01,55.24,194.74,5.21,30.92,14.43,118.81,57.31,195.92,3.87,6.77,7.92,14,13.64,18.26.06,1.26.1,2.13.08,2.65Z"/>
      <path class="cls-19" d="M866.31,1641.59c2.94.05-175.72,0-175.72,0-63.72-154.68-208.31-308.5-363.45-321.77-105.5,13.01-231.55-40.36-303.36-93.79-4.53-4.14-6.12-8.77-6.46-14.67-1.95-70.08-.68-277.87-.15-378.04,1.08-57.11-1.12-92.37.82-124.67,15.63,145.11,83.06,351.77,269.33,415.42,68.78,32.69,148.37,37.55,222.95,46.9,219.88,33.76,364.83,243.38,356.2,470.35l-.16.25Z"/>
      <path class="cls-13" d="M679.33,1641.93c-22.61-.06-176.5-.24-230.29-.32-3.74,0-5.61.23-7.77-1.29-.37-.25-.74-.56-1.15-.93-7.21-7.63-15.15-17.8-22.77-25.49-86.82-98.73-245.43-141.28-354.88-144.97h-.06c-17.31-.56-33.42-.18-47.79,1.13l-.02-.02c-.88-52.81-.04-215.17-.76-243.25-.04-1.44.33-2.04,1.07-2.28,31.9,26.93,174.68,107.03,270.96,96.3,22.32-1.3,37.96-2.24,59.28,1.4,129.64,26.58,253.63,128.1,319.41,278.38,5.76,13.87,19.39,41.54,14.75,41.33Z"/>
      <path class="cls-5" d="M441.43,1641.6H13.97l.66-171.1,47.79-1.56h.06c109.44,3.68,268.06,46.23,354.88,144.97,7.61,7.69,15.56,17.86,22.77,25.49.41.37.78.68,1.15.93l.16,1.27Z"/>
    </g>
  </g>
  <g id="Capa_3" data-name="Capa 3">
    <circle class="cls-20" cx="591.2" cy="811.63" r="566.2"/>
  </g>
  <g id="Capa_2" data-name="Capa 2">
    <path class="cls-16" d="M516.43,1104.12c-157.38-33.77-254.68-204.8-196.46-354.25,2.43-6.69,5.86-13.18,7.48-20.04.32-1.81-.03-2.75.08-5.19.05-1.04.07-2.01.12-3.1,2.49-55.57,6.02-179.41,8.44-211.29,2.44-5.77,13.03-11.2,19.25-10.02,2.86.41,5.88,1.79,8.93,2.98,40.05,16.76,127.37,59.68,147.98,69.66,3.34,1.71,5.54,1.65,9.9,1.16,10.51-1.49,22.47-3.79,33.24-4.46,12.8-.99,23.62-.72,35.93.58,3.8.38,7.98.93,11.75,1.47,3.99.51,7.74,1.28,11.67,1.15,3.6-.1,7.19-2.61,10.91-4.41,39.5-20.3,105.29-54.13,146.85-75.49.99-.59,1.93-1.03,2.86-1.33,2.69-.9,5.25-.65,8.31.45,5.15,1.94,11.58,6.19,14.29,11.49.22.42.41.84.58,1.25.93,6.3,1.88,15.43,2.83,26.41.02.15.03.3.04.45,1.44,19.29,3.32,45.42,5.21,71.79,0,.05.01.1.01.15,0,.05,0,.11.01.16,1.9,28.46,3.81,57.16,5.68,78.66.52,7.94,1,13.18,1.38,18.9.22,2.66.08,5.18,1.1,7.62.38.63.75,1.26,1.12,1.9,1.26,2.63,2.66,4.89,4.31,7.98,1.53,2.69,3,5.43,4.43,8.22,0,0,0,.01,0,.01,8.6,17.31,15.49,35.78,20.12,55.12.15.65.31,1.3.45,1.95.09.38.18.77.26,1.15,3.95,17.75,6.03,36.16,5.94,54.6v.13c1.52,172.21-165.57,303.57-334.98,264.19Z"/>
    <path class="cls-17" d="M877.1,837.56v-.13c.09-21.26-2.36-42.47-7.01-62.87-.09-.44-.2-.88-.3-1.31-5.03-21.29-12.48-41.63-21.78-60.71-1.66-3.31-3.39-6.57-5.17-9.76-1.81-3.45-3.36-5.97-4.75-8.92-.4-.69-.8-1.38-1.2-2.07-1.13-2.72-.97-5.52-1.22-8.48-.41-6.35-.94-12.18-1.51-21.02-2.06-23.94-4.15-55.92-6.24-87.62,0-.02,0-.04,0-.06,0-.06,0-.11-.01-.17-2.09-29.52-4.16-58.79-5.75-80.28,0-.03,0-.04,0-.07-1.05-12.2-2.08-22.36-3.11-29.37-.19-.46-.4-.92-.64-1.39-2.98-5.89-10.04-10.63-15.69-12.78-3.35-1.22-6.14-1.5-9.08-.52-1.03.34-2.07.83-3.17,1.5-45.63,23.76-117.85,61.4-161.22,83.98-4.08,1.99-8.03,4.78-11.98,4.9-4.3.15-8.43-.71-12.81-1.28-4.14-.59-8.72-1.21-12.89-1.63-13.51-1.45-25.39-1.74-39.44-.65-11.82.74-24.95,3.3-36.49,4.96-4.79.54-7.2.61-10.87-1.3-22.62-11.1-118.48-58.84-162.44-77.48-3.35-1.33-6.66-2.86-9.8-3.31-6.83-1.31-18.47,4.73-21.14,11.14-2.66,35.46-6.53,173.21-9.26,235.02-.06,1.21-.08,2.29-.13,3.45-.12,2.71.26,3.75-.09,5.76-1.78,7.63-5.54,14.84-8.21,22.29-63.91,166.23,42.91,356.46,215.68,394.03,185.97,43.8,369.41-102.31,367.74-293.86ZM515.46,1113.06c-163.97-35.01-265.34-212.29-204.68-367.22,2.53-6.94,6.11-13.66,7.79-20.77.33-1.88-.03-2.85.09-5.38.05-1.08.07-2.09.12-3.21,2.6-57.6,6.27-185.98,8.79-219.02,2.54-5.98,13.58-11.61,20.06-10.39,2.98.43,6.12,1.85,9.3,3.09,41.72,17.37,132.7,61.87,154.17,72.21,3.48,1.77,5.77,1.71,10.31,1.21,10.95-1.55,23.41-3.93,34.63-4.62,13.34-1.02,24.61-.75,37.43.6,3.96.4,8.31.97,12.24,1.52,4.16.52,8.07,1.33,12.16,1.19,3.75-.11,7.49-2.71,11.37-4.57,41.15-21.04,109.7-56.11,153-78.26,1.03-.61,2.01-1.07,2.98-1.38,2.8-.94,5.46-.68,8.66.46,5.36,2.01,12.07,6.42,14.89,11.91.23.44.43.87.61,1.3.97,6.54,1.96,16,2.95,27.37.02.16.03.31.04.47,1.5,19.99,3.46,47.08,5.43,74.42,0,.06.01.11.01.16,0,.06,0,.11.01.17,1.98,29.5,3.97,59.25,5.91,81.54.54,8.24,1.04,13.66,1.43,19.59.23,2.76.08,5.37,1.15,7.9.39.65.78,1.31,1.16,1.97,1.31,2.72,2.77,5.07,4.49,8.27,1.59,2.79,3.13,5.63,4.62,8.52,0,0,0,.01,0,.01,8.96,17.94,16.14,37.09,20.96,57.14.16.68.32,1.35.47,2.02.09.4.19.8.27,1.19,4.11,18.4,6.28,37.48,6.19,56.6v.13c1.59,178.52-172.5,314.68-349,273.86Z"/>
    <path class="cls-15" d="M863.53,838.35v-.13c.09-20.5-2.27-40.97-6.72-60.65-.09-.42-.19-.85-.29-1.27-4.83-20.54-11.98-40.16-20.91-58.56-1.59-3.19-3.25-6.33-4.97-9.41-1.74-3.33-3.23-5.76-4.56-8.6-.38-.66-.76-1.33-1.15-1.99-1.09-2.62-.93-5.32-1.17-8.18-.39-6.13-.9-11.75-1.45-20.27-1.98-23.1-3.98-53.95-5.98-84.52,0-.02,0-.04,0-.05,0-.05,0-.11-.01-.16-2.01-28.48-4-56.71-5.52-77.45,0-.02,0-.04,0-.07-1.01-11.77-2-21.57-2.99-28.33-.18-.45-.38-.89-.61-1.34-2.86-5.68-9.64-10.26-15.06-12.33-3.21-1.18-5.89-1.45-8.72-.5-.99.33-1.99.8-3.04,1.45-43.8,22.93-113.12,59.23-154.74,81.01-3.92,1.92-7.71,4.62-11.5,4.73-4.13.15-8.09-.69-12.29-1.23-3.97-.57-8.37-1.16-12.38-1.57-12.96-1.4-24.37-1.68-37.86-.63-11.35.71-23.95,3.18-35.02,4.79-4.6.52-6.91.59-10.43-1.25-21.71-10.71-113.72-56.76-155.92-74.74-3.21-1.28-6.39-2.76-9.4-3.19-6.55-1.27-17.72,4.56-20.29,10.75-2.55,34.2-6.27,167.09-8.89,226.72-.05,1.17-.07,2.21-.13,3.33-.12,2.61.25,3.62-.08,5.56-1.7,7.36-5.32,14.32-7.88,21.5-61.34,160.36,41.19,343.87,207.02,380.11,178.5,42.25,354.57-98.69,352.97-283.49ZM516.43,1104.12c-157.38-33.77-254.68-204.8-196.46-354.25,2.43-6.69,5.86-13.18,7.48-20.04.32-1.81-.03-2.75.08-5.19.05-1.04.07-2.01.12-3.1,2.49-55.57,6.02-179.41,8.44-211.29,2.44-5.77,13.03-11.2,19.25-10.02,2.86.41,5.88,1.79,8.93,2.98,40.05,16.76,127.37,59.68,147.98,69.66,3.34,1.71,5.54,1.65,9.9,1.16,10.51-1.49,22.47-3.79,33.24-4.46,12.8-.99,23.62-.72,35.93.58,3.8.38,7.98.93,11.75,1.47,3.99.51,7.74,1.28,11.67,1.15,3.6-.1,7.19-2.61,10.91-4.41,39.5-20.3,105.29-54.13,146.85-75.49.99-.59,1.93-1.03,2.86-1.33,2.69-.9,5.25-.65,8.31.45,5.15,1.94,11.58,6.19,14.29,11.49.22.42.41.84.58,1.25.93,6.3,1.88,15.43,2.83,26.41.02.15.03.3.04.45,1.44,19.29,3.32,45.42,5.21,71.79,0,.05.01.1.01.15,0,.05,0,.11.01.16,1.9,28.46,3.81,57.16,5.68,78.66.52,7.94,1,13.18,1.38,18.9.22,2.66.08,5.18,1.1,7.62.38.63.75,1.26,1.12,1.9,1.26,2.63,2.66,4.89,4.31,7.98,1.53,2.69,3,5.43,4.43,8.22,0,0,0,.01,0,.01,8.6,17.31,15.49,35.78,20.12,55.12.15.65.31,1.3.45,1.95.09.38.18.77.26,1.15,3.95,17.75,6.03,36.16,5.94,54.6v.13c1.52,172.21-165.57,303.57-334.98,264.19Z"/>
    <path class="cls-2" d="M369.68,937.04c-4.33-.7-18.73-5.78-37.64-10.52-8.28-2.08-17.35-4.66-26.96-5.64-34.53-3.51-53.1-4.15-62.2-4.66-1.09-.06-1.91-.13-2.4-.21"/>
    <path class="cls-2" d="M395.05,972.38c-72.62-2.72-108.47,4.9-126.53,7.17-2.18.27-3.85.32-4.96.06"/>
    <path class="cls-2" d="M347.49,884.99c-62.47-26.7-95.26-29.95-111.44-33.33-1.95-.41-3.41-.9-4.32-1.55"/>
    <path class="cls-2" d="M802.95,918.94c.53.03,1.38.01,2.53-.05,9.54-.5,28.97-2.01,65.41-2.14,10.15-.04,19.93,1.82,28.82,3.2,20.31,3.14,35.98,7.19,40.58,7.48"/>
    <path class="cls-2" d="M797.39,965.17c1.17.56,2.86.79,5.04.8,18.07.03,53.54-4.31,127.73,12.47"/>
    <path class="cls-2" d="M814.26,880.64c1.14.32,2.85.34,5.07.13,18.43-1.7,55.02-8.41,129.11-2.57"/>
    <path id="Marco" class="cls-2" d="M823.43,778.11c-.55-8.24-5.06-9.51-11.65-10.62-5.37-.83-10.87-1.38-15.91-2.95-6.88-2.04-13.87-4.66-20.56-6.15-16.3-3.52-37.41-6.3-61.24-5.92-12.25.09-23.53,1.99-35.62,4.42-12.04,2.37-25.22,5.08-37.77,6.87-13.8,1.98-26.21,3.82-38.28,6.2-9.36,1.52-17.74,1.77-27.91,1.93-12.69-.09-23.7-.68-35.73-3.74-26.18-5.61-53.08-10.64-79.48-14.15-33.01-6.15-74.55.13-104.54,9.99-5.99,1.15-13.61,1.77-20,3.13-1.89.4-3.48.88-4.64,1.67-4.45,3.15-2.87,11.98-2.74,17.58.19,2.65.24,5.32,1.21,7.8.79,1.93,1.92,3.6,3.41,5.29,7.92,8.65,10.13,8.38,13.47,20.69,1.85,6.37,3.17,12.22,5.52,18.74,2.21,6.23,4.85,12.49,7.03,18.64,2.56,7.1,4.65,15.33,7.73,22.46,2.48,5.85,5.54,11.34,9.56,16.25,16.85,20.32,44.46,25.99,70.67,27.38,51.69,3.91,89.93-28.69,104.94-75.25,2.77-8.61,5.39-18.4,9.57-26.94,1.54-2.93,2.99-6.58,5.49-8.05,4.01-2.25,9.01-1.74,13.47-1.66,3.8.26,8.62.19,11.13,2.08,2.4,1.72,3.94,4.32,5.44,6.87,1.44,2.54,2.78,5.16,3.91,7.85,1.69,4.02,2.77,8.29,4,12.89,12.89,52.35,48.11,78.4,98.64,80.94,56.59,4.94,88.34-27.82,98.34-80.7.79-3.84,1.68-7.31,2.91-11.08,2.86-8.32,6.03-18.05,11.13-24.91,2.02-2.74,4.91-4.77,6.91-7.41l.06-.08c1.29-1.79,1.83-4.03,1.97-6.26.25-3.92.05-9.44-.43-13.81ZM546.78,813.63c-.72,5.87-2.41,12.1-3.75,17.8-.97,3.98-1.83,7.18-2.99,10.5l-.04.11c-20.08,55.47-55.22,76.96-112.07,69.49-28.97-2.9-47.9-21.48-58.89-59.92-3.8-12.57-6.94-24.85-7.42-37.93-2.16-39.76,36.45-48.31,70.24-50.12,32.77-1.6,87.37.26,107.76,26.6,5.44,6.76,8.48,14.58,7.16,23.47ZM791.92,816.94c-.36,7.48-1.24,14.85-2.53,22.21l-.02.12c-4.63,27.07-15.53,55.86-42.61,67.11-15.24,6.71-35.28,7.16-51.79,5.56-37.11-3.03-65.2-29.55-78.55-64.55-5.13-13.72-10.61-31.75-6.95-45.91,6.77-21.56,35.16-31.69,63.34-36.04,15.11-2.26,30.59-1.54,45.11-.24,13.64,1.15,27.06,2.44,39.89,4.96,7.5,1.49,15,3.7,21.14,8.47,11.91,8.88,13.9,24.08,12.98,38.31Z"/>
    <path class="cls-3" d="M510.6,580.88c-3.07,2.39-4.15,6.34-5.61,9.81-1.79,4.57-3.9,10.33-5.49,15.25-4.67,15.39-11.43,36.08-5.1,51.76,3.68,8.83,12.34,14.25,21.07,17.11,6.97,2.32,14.07,3.32,21.3,3.87,8.38.8,11.43-1.21,15.76-8.18,7.35-11.39,13.85-24.61,11.87-38.53-.52-4.62-1.52-8.93-2.31-13.43-1.89-10.52-3.1-22.88-7-32.05-3.34-8.7-10.48-10.64-18.97-10.32-5.24.18-10.47.79-15.59,1.63-3.3.64-7.09,1.05-9.85,3.01l-.08.06Z"/>
    <path class="cls-3" d="M596.09,587.82c-14.42,16.43-15.92,60.31,2.74,73.82,10.41,7.61,24.43,3.27,34.05-3.67,4.97-3.52,9.66-7.55,12.56-12.86,11.14-22.97-16.88-43.17,16.04-72.72,8.72-8.04,19.4-16.28,28.46-23.63,1.68-1.51,8.2-6.27,7.42-7.24-.51-.17-1.16.03-1.83.2-3.92,1.1-13.6,5.33-23.92,9.66-10.22,4.31-20.75,8.75-31.23,13.15-5.4,2.27-10.72,4.51-16.06,6.76-10.67,4.51-22.08,9.32-28.17,16.47l-.06.07Z"/>
    <path class="cls-2" d="M614.78,895.99c-.19,2.7-2.38,5.08-3.63,7.44-2.07,3.36-4.39,6.92-7.15,11.1-4.66,7.03-9.83,14.56-14.52,21.11-2.58,3.61-6.4,8.77-8.79,11.63-2.25,2.61-3.39,4.41-6.18.88-8.67-11-16.67-23.44-24.71-35.71-2.47-3.84-4.9-7.65-7.25-11.54-1.11-2.08-3.14-4.36-2.78-6.85,1.19-7.02,27.82-8.61,33.41-8.98,5.51-.3,11.1.2,16.63.72,6.63.81,23.13,1.84,24.96,10.1v.1Z"/>
    <path class="cls-12" d="M682.5,594.55c-7.8,12.54,26.51-55.66,96.28-90.93,2.23-1.13,18.52,208.49,15.59,204.99-77.57-92.89-111.88-114.06-111.88-114.06Z"/>
    <path class="cls-3" d="M355.84,519.29c2.01.23,76.22,31.59,101.45,80.56.22.43.29.57.28.6-1.72,1.76-22.77,18.95-58.72,61-14.77,16.96-31.95,38.15-50.93,62.11-2.55-14.03,7.3-189.36,7.93-204.27h0Z"/>
    <g id="der">
      <ellipse class="cls-18" cx="456.35" cy="837.3" rx="60.68" ry="61.01"/>
      <ellipse class="cls-2" cx="456.65" cy="837.57" rx="56.7" ry="57.01"/>
      <path class="cls-11" d="M455.63,796.74c.55,0,1.17.77,2.25,2.09.77.94,1.75,2.15,2.83,3.46,2.71,3.32,5.55,6.81,8.25,10.12,1.49,1.82,1.97,2.19,4.09,3.02,1.72.68,3.44,1.32,5.22,2.01,3.36,1.28,7.42,2.85,10.62,4.08,1.59.62,2.56.98,2.77,1.51.23.52-.25,1.29-1.11,2.62-2.42,3.66-5.33,8.06-7.81,11.82-.36.55-.69,1.04-1.02,1.55-1.91,2.54-1.47,5.25-1.75,8.31-.27,4.55-.6,9.81-.86,14.26-.12,1.83-.15,3.1-.4,3.72-.29.72-.99.61-2.55.16-1.05-.31-2.48-.75-4.1-1.24-3.45-1.05-7.2-2.18-10.65-3.22-2.63-.81-4.41-1.58-7.04-.66-4.05,1.12-8.26,2.29-12.33,3.42-2.59.65-6.3,1.97-8.23,2.08-.74-.07-.83-.85-.92-2.57-.05-1.16-.12-2.74-.19-4.5-.19-4.51-.39-9.29-.58-13.79-.05-2.63-.5-3.53-1.91-5.56-1.44-2.16-2.91-4.36-4.38-6.57-1.47-2.19-3.26-4.89-4.58-6.86-.92-1.39-1.46-2.2-1.29-2.74.16-.55,1.08-.9,2.67-1.52,3.26-1.25,7.43-2.87,10.87-4.19,1.84-.71,3.62-1.39,5.39-2.09,2.12-.83,2.61-1.19,4.01-2.96,2.54-3.26,5.19-6.7,7.74-9.99,1.05-1.35,2.01-2.6,2.76-3.57,1.06-1.36,1.67-2.16,2.22-2.19h.04Z"/>
    </g>
    <g id="izq">
      <ellipse class="cls-18" cx="698.88" cy="837.11" rx="60.68" ry="61.01"/>
      <ellipse class="cls-2" cx="700.41" cy="837.57" rx="56.7" ry="57.01"/>
      <path class="cls-11" d="M699.47,796.74c.55,0,1.17.77,2.25,2.09.77.94,1.75,2.15,2.83,3.46,2.71,3.32,5.55,6.81,8.25,10.12,1.49,1.82,1.97,2.19,4.09,3.02,1.72.68,3.44,1.32,5.22,2.01,3.36,1.28,7.42,2.85,10.62,4.08,1.59.62,2.56.98,2.77,1.51.23.52-.25,1.29-1.11,2.62-2.42,3.66-5.33,8.06-7.81,11.82-.36.55-.69,1.04-1.02,1.55-1.91,2.54-1.47,5.25-1.75,8.31-.27,4.55-.6,9.81-.86,14.26-.12,1.83-.15,3.1-.4,3.72-.29.72-.99.61-2.55.16-1.05-.31-2.48-.75-4.1-1.24-3.45-1.05-7.2-2.18-10.65-3.22-2.63-.81-4.41-1.58-7.04-.66-4.05,1.12-8.26,2.29-12.33,3.42-2.59.65-6.3,1.97-8.23,2.08-.74-.07-.83-.85-.92-2.57-.05-1.16-.12-2.74-.19-4.5-.19-4.51-.39-9.29-.58-13.79-.05-2.63-.5-3.53-1.91-5.56-1.44-2.16-2.91-4.36-4.38-6.57-1.47-2.19-3.26-4.89-4.58-6.86-.92-1.39-1.46-2.2-1.29-2.74.16-.55,1.08-.9,2.67-1.52,3.26-1.25,7.43-2.87,10.87-4.19,1.84-.71,3.62-1.39,5.39-2.09,2.12-.83,2.61-1.19,4.01-2.96,2.54-3.26,5.19-6.7,7.74-9.99,1.05-1.35,2.01-2.6,2.76-3.57,1.06-1.36,1.67-2.16,2.22-2.19h.04Z"/>
    </g>
  </g>
</svg>