<?xml version="1.0" encoding="UTF-8"?>
<svg id="Capa_1" data-name="Capa 1" xmlns="http://www.w3.org/2000/svg" version="1.1" xmlns:xlink="http://www.w3.org/1999/xlink" viewBox="0 0 500 500">
  <defs>
    <style>
      .cls-1 {
        fill: #c9ff8f;
      }

      .cls-1, .cls-2, .cls-3, .cls-4, .cls-5, .cls-6, .cls-7, .cls-8, .cls-9, .cls-10, .cls-11, .cls-12, .cls-13, .cls-14 {
        stroke-width: 0px;
      }

      .cls-15, .cls-2 {
        fill: #000;
      }

      .cls-15, .cls-16, .cls-17 {
        stroke: #000;
      }

      .cls-15, .cls-16, .cls-17, .cls-18, .cls-19, .cls-20 {
        stroke-miterlimit: 10;
      }

      .cls-16, .cls-18, .cls-11 {
        fill: #fff;
      }

      .cls-3 {
        fill: #9ea09f;
      }

      .cls-4 {
        fill: #fe9ad0;
      }

      .cls-5 {
        fill: #e6bffe;
      }

      .cls-6, .cls-20 {
        fill: none;
      }

      .cls-7 {
        fill: #4ff1fe;
      }

      .cls-17 {
        fill: #9a00ff;
      }

      .cls-8 {
        fill: #ff9bd1;
      }

      .cls-18 {
        stroke: #1d1d1b;
      }

      .cls-9 {
        fill: #4deffe;
      }

      .cls-21 {
        clip-path: url(#clippath);
      }

      .cls-19 {
        fill: #ffd374;
        stroke: #ffd374;
      }

      .cls-10 {
        fill: #e5befe;
      }

      .cls-12 {
        fill: #9c9e9e;
      }

      .cls-13 {
        fill: #caff8c;
      }

      .cls-14 {
        fill: #fed273;
      }

      .cls-20 {
        stroke: #6c418e;
        stroke-width: 50px;
      }
    </style>
    <clipPath id="clippath">
      <circle class="cls-6" cx="250" cy="250" r="219"/>
    </clipPath>
  </defs>
  <g id="Fondo">
    <g class="cls-21">
      <g>
        <path class="cls-9" d="M469-59.5V2.7c-32.4-13.2-59.8-62.2-59.8-62.2h59.8Z"/>
        <path class="cls-4" d="M469,2.7v79.5s0,0,0,0c-125.7-21.9-136-132-136.6-141.1,0-.4,0-.6,0-.6h76.9s27.4,49,59.8,62.2Z"/>
        <path class="cls-14" d="M469.1,149.2c0,.1,0,.3-.1.4-.8,1.8-5.2.2-7,0-4.3-.8-8.3-1.5-12-2-4.8-.8-9.7-1.5-14.6-2.1-11.6-1.6-13.4-1.1-18.6-1.8-23-3.4-42.4-9.2-61.6-19.5C274.2,79,272.8-1.4,270.5-14.8c-1.7-14.7-7.2-37.5-7.8-44.7h0c.1,0,.2,0,.4,0,10.9-.7,50.4,0,68.2-.2.3.2.6.5,1.1.9.6,9.1,10.9,119.1,136.6,141.1.1.2.1.5.1.8,0,16.3,0,54.3,0,66.2h0Z"/>
        <path class="cls-1" d="M468.9,242.4c0,0-.1,0-.2,0-.4-.2-1.3-1.1-2.5-2.6-.6-.7-1.4-1.5-2.1-2.3-29.9-30.7-106.8-36.7-115.3-37.3-11.7-1.1-24.3-3.7-34.6-7.1-88.7-26.9-103-132.6-101.8-148.2-1.1-48.4-28.7-89.6-43.4-104.8,0,0-.1-.1-.2-.2h0c8.1-.1,69.9,0,93.1,0,.1,0,.3,0,.4,0,.4,0,.6,0,.8.2,0,0,.1.1.2.2-.1,0-.3,0-.4,0h0c.7,7.2,6.2,30,7.8,44.7,2.3,13.4,3.6,93.8,84.6,139.1,19.2,10.3,38.6,16.1,61.6,19.5,5.2.6,7,.2,18.6,1.8,4.9.6,9.8,1.3,14.6,2.1,3.6.6,7.6,1.3,12,2,1.9.2,6.3,1.7,7,0,0,0,.1.2.2.2,0,1.4,0,3.4,0,7.6-.3,20.9.4,75.5-.2,85h0Z"/>
        <path class="cls-10" d="M469.1,446.4c0,.4,0,0,0-.7-.2-4.7-.5-9.4-.9-14,0,0,0-.1,0-.2-8.9-94.6-68.4-163.1-144.7-167.4-110.2,1.2-161.6-84-167.7-129.9C154.2,28.6,87-36.1,31-43.1c-.3,0-.5,0-.8,0-.3-4.7-.1-11.2,0-15.9h0c31.4-1.3,128-1.2,138.7-.6,14.7,15.2,42.2,56.3,43.4,104.8-1.2,15.6,13.1,121.3,101.8,148.2,10.4,3.4,22.9,6,34.6,7.1,8.5.6,85.4,6.6,115.3,37.3.8.8,1.5,1.6,2.1,2.3,1.3,1.4,2.1,2.4,2.5,2.6.7,10.3.2,155.3.5,204h0Z"/>
        <path class="cls-7" d="M469,559.8c.2,1.8-1.6,1.5-2.9,1.5-5.9,0-24.9,0-33.1,0-2.1.2-3.7-.3-5.1-1.4-2.1-1.6-3.6-4.3-5.1-6.8-16-28.8-19.5-61.6-21.4-73.2-3.8-27.2-11.2-53.2-20.6-72.7-35.7-77.6-106.2-83.8-126.1-83.5-120.7-9.3-167.1-92.8-162.4-157.7-1.1-14.2-3.8-27.6-8.2-40.9-4.1-12.9-9.9-25.3-15.7-35.5-16-28.2-34-43.3-37.9-47.3-.1-.1-.2-.2-.3-.3h0c-.3-11.8.1-74.2,0-83.7,0-.9.3-1.2.9-1.4,56,6.9,123.2,71.6,124.7,177.4,6.1,45.8,57.6,131,167.7,129.9,76.2,4.3,135.7,72.8,144.7,167.4,0,0,0,.1,0,.2.2,3.5.5,6.8.7,9.8.6,12.9.2,102.5.2,118.3h0Z"/>
        <path class="cls-8" d="M433.4,564.6c0,.2,0,.3-.3.3-7.2.1-70.3,0-79.2,0-.8-.1-1-.5-1.1-1.3,0-.5,0-1.1-.2-1.9,0-1.2-.1-2.7-.2-4.1-3.6-36.8-7.9-57.7-20.8-86-1.6-3.3-3.2-6.3-5.2-9.8-39.4-67.7-105.4-75.6-112.8-76.6-13.9-1.3-30.3-3.4-40.3-5.2-3.7-.6-7.5-1.4-11.4-2.2-21.3-4.5-27.8-8.8-28.9-9.6-.5-.3-1.8-.7-2.6-1-73.7-26.6-95.1-106.2-100-158.1-.1-1.6-.3-3.2-.4-4.7h0c.4-34.9-.6-160,0-165.3,0-.3.1-.4.4-.4,3.9,4,22.2,19.3,38.4,47.9,5.9,10.3,11.7,22.9,16,36,4.5,13.6,7.2,27.1,8.3,41.5-4.7,65.8,42.3,150.4,164.7,159.9,20.2-.3,91.6,6,127.8,84.7,9.6,19.8,17.1,46.2,20.9,73.7,2,11.7,5.5,45,21.7,74.2,1.5,2.6,3,5.3,5.2,6.9,0,.5,0,.8,0,1h0Z"/>
        <path class="cls-19" d="M352.8,561.3c1.1,0-66.5,0-66.5,0-24.1-58.6-78.9-116.8-137.6-121.8-39.9,4.9-87.7-15.3-114.8-35.5-1.7-1.6-2.3-3.3-2.4-5.6-.7-26.5-.3-105.2,0-143.1.4-21.6-.4-35,.3-47.2,5.9,54.9,31.4,133.2,102,157.3,26,12.4,56.2,14.2,84.4,17.8,83.2,12.8,138.1,92.1,134.8,178.1h0Z"/>
        <path class="cls-13" d="M282,561.4c-8.6,0-66.8,0-87.2-.1-1.4,0-2.1,0-2.9-.5-.1,0-.3-.2-.4-.4-2.7-2.9-5.7-6.7-8.6-9.6-32.9-37.4-92.9-53.5-134.3-54.9h0c-6.6-.2-12.7,0-18.1.4h0c-.3-20,0-81.5-.3-92.1,0-.5.1-.8.4-.9,12.1,10.2,66.1,40.5,102.6,36.5,8.4-.5,14.4-.8,22.4.5,49.1,10.1,96,48.5,120.9,105.4,2.2,5.3,7.3,15.7,5.6,15.6h0Z"/>
        <path class="cls-5" d="M191.9,561.3H30.1l.2-64.8,18.1-.6h0c41.4,1.4,101.5,17.5,134.3,54.9,2.9,2.9,5.9,6.8,8.6,9.6.2.1.3.3.4.4v.5c0,0,0,0,0,0Z"/>
      </g>
    </g>
  </g>
  <g id="Capa_3" data-name="Capa 3">
    <circle class="cls-20" cx="248.6" cy="247.1" r="214.3"/>
  </g>
  <g id="Capa_2" data-name="Capa 2">
    <path class="cls-16" d="M220.3,357.8c-59.6-12.8-96.4-77.5-74.4-134.1.9-2.5,2.2-5,2.8-7.6.1-.7,0-1,0-2,0-.4,0-.8,0-1.2.9-21,2.3-67.9,3.2-80,.9-2.2,4.9-4.2,7.3-3.8,1.1.2,2.2.7,3.4,1.1,15.2,6.3,48.2,22.6,56,26.4,1.3.6,2.1.6,3.7.4,4-.6,8.5-1.4,12.6-1.7,4.8-.4,8.9-.3,13.6.2,1.4.1,3,.4,4.4.6,1.5.2,2.9.5,4.4.4,1.4,0,2.7-1,4.1-1.7,15-7.7,39.9-20.5,55.6-28.6.4-.2.7-.4,1.1-.5,1-.3,2-.2,3.1.2,1.9.7,4.4,2.3,5.4,4.3,0,.2.2.3.2.5.4,2.4.7,5.8,1.1,10,0,0,0,.1,0,.2.5,7.3,1.3,17.2,2,27.2,0,0,0,0,0,0s0,0,0,0c.7,10.8,1.4,21.6,2.2,29.8.2,3,.4,5,.5,7.2,0,1,0,2,.4,2.9.1.2.3.5.4.7.5,1,1,1.9,1.6,3,.6,1,1.1,2.1,1.7,3.1h0c3.3,6.6,5.9,13.5,7.6,20.9,0,.2.1.5.2.7,0,.1,0,.3,0,.4,1.5,6.7,2.3,13.7,2.2,20.7h0c.6,65.2-62.7,115-126.8,100.1h0Z"/>
    <path class="cls-17" d="M356.8,256.9h0c0-8.1-.9-16.1-2.7-23.8,0-.2,0-.3-.1-.5-1.9-8.1-4.7-15.8-8.2-23-.6-1.3-1.3-2.5-2-3.7-.7-1.3-1.3-2.3-1.8-3.4-.2-.3-.3-.5-.5-.8-.4-1-.4-2.1-.5-3.2-.2-2.4-.4-4.6-.6-8-.8-9.1-1.6-21.2-2.4-33.2h0s0,0,0,0c-.8-11.2-1.6-22.3-2.2-30.4h0c-.4-4.6-.8-8.5-1.2-11.1,0-.2-.2-.3-.2-.5-1.1-2.2-3.8-4-5.9-4.8-1.3-.5-2.3-.6-3.4-.2-.4.1-.8.3-1.2.6-17.3,9-44.6,23.2-61,31.8-1.5.8-3,1.8-4.5,1.9-1.6,0-3.2-.3-4.8-.5-1.6-.2-3.3-.5-4.9-.6-5.1-.5-9.6-.7-14.9-.2-4.5.3-9.4,1.2-13.8,1.9-1.8.2-2.7.2-4.1-.5-8.6-4.2-44.9-22.3-61.5-29.3-1.3-.5-2.5-1.1-3.7-1.3-2.6-.5-7,1.8-8,4.2-1,13.4-2.5,65.6-3.5,89,0,.5,0,.9,0,1.3,0,1,0,1.4,0,2.2-.7,2.9-2.1,5.6-3.1,8.4-24.2,62.9,16.2,134.9,81.6,149.2,70.4,16.6,139.8-38.7,139.2-111.2h0ZM219.9,361.2c-62.1-13.3-100.4-80.4-77.5-139,1-2.6,2.3-5.2,2.9-7.9.1-.7,0-1.1,0-2,0-.4,0-.8,0-1.2,1-21.8,2.4-70.4,3.3-82.9,1-2.3,5.1-4.4,7.6-3.9,1.1.2,2.3.7,3.5,1.2,15.8,6.6,50.2,23.4,58.4,27.3,1.3.7,2.2.6,3.9.5,4.1-.6,8.9-1.5,13.1-1.7,5-.4,9.3-.3,14.2.2,1.5.2,3.1.4,4.6.6,1.6.2,3.1.5,4.6.5,1.4,0,2.8-1,4.3-1.7,15.6-8,41.5-21.2,57.9-29.6.4-.2.8-.4,1.1-.5,1.1-.4,2.1-.3,3.3.2,2,.8,4.6,2.4,5.6,4.5,0,.2.2.3.2.5.4,2.5.7,6.1,1.1,10.4,0,0,0,.1,0,.2.6,7.6,1.3,17.8,2.1,28.2,0,0,0,0,0,0s0,0,0,0c.7,11.2,1.5,22.4,2.2,30.9.2,3.1.4,5.2.5,7.4,0,1,0,2,.4,3,.1.2.3.5.4.7.5,1,1,1.9,1.7,3.1.6,1.1,1.2,2.1,1.7,3.2h0c3.4,6.8,6.1,14,7.9,21.6,0,.3.1.5.2.8,0,.2,0,.3.1.5,1.6,7,2.4,14.2,2.3,21.4h0c.6,67.6-65.3,119.2-132.1,103.7h0Z"/>
    <path class="cls-15" d="M351.7,257.2h0c0-7.8-.9-15.6-2.5-23,0-.2,0-.3-.1-.5-1.8-7.8-4.5-15.2-7.9-22.2-.6-1.2-1.2-2.4-1.9-3.6-.7-1.3-1.2-2.2-1.7-3.3-.1-.2-.3-.5-.4-.8-.4-1-.4-2-.4-3.1-.1-2.3-.3-4.4-.5-7.7-.7-8.7-1.5-20.4-2.3-32h0s0,0,0,0c-.8-10.8-1.5-21.5-2.1-29.3h0c-.4-4.5-.8-8.2-1.1-10.8,0-.2-.1-.3-.2-.5-1.1-2.2-3.6-3.9-5.7-4.7-1.2-.4-2.2-.5-3.3-.2-.4.1-.8.3-1.2.5-16.6,8.7-42.8,22.4-58.6,30.7-1.5.7-2.9,1.7-4.4,1.8-1.6,0-3.1-.3-4.7-.5-1.5-.2-3.2-.4-4.7-.6-4.9-.5-9.2-.6-14.3-.2-4.3.3-9.1,1.2-13.3,1.8-1.7.2-2.6.2-3.9-.5-8.2-4.1-43-21.5-59-28.3-1.2-.5-2.4-1-3.6-1.2-2.5-.5-6.7,1.7-7.7,4.1-1,12.9-2.4,63.3-3.4,85.8,0,.4,0,.8,0,1.3,0,1,0,1.4,0,2.1-.6,2.8-2,5.4-3,8.1-23.2,60.7,15.6,130.2,78.4,143.9,67.6,16,134.2-37.4,133.6-107.3h0ZM220.3,357.8c-59.6-12.8-96.4-77.5-74.4-134.1.9-2.5,2.2-5,2.8-7.6.1-.7,0-1,0-2,0-.4,0-.8,0-1.2.9-21,2.3-67.9,3.2-80,.9-2.2,4.9-4.2,7.3-3.8,1.1.2,2.2.7,3.4,1.1,15.2,6.3,48.2,22.6,56,26.4,1.3.6,2.1.6,3.7.4,4-.6,8.5-1.4,12.6-1.7,4.8-.4,8.9-.3,13.6.2,1.4.1,3,.4,4.4.6,1.5.2,2.9.5,4.4.4,1.4,0,2.7-1,4.1-1.7,15-7.7,39.9-20.5,55.6-28.6.4-.2.7-.4,1.1-.5,1-.3,2-.2,3.1.2,1.9.7,4.4,2.3,5.4,4.3,0,.2.2.3.2.5.4,2.4.7,5.8,1.1,10,0,0,0,.1,0,.2.5,7.3,1.3,17.2,2,27.2,0,0,0,0,0,0s0,0,0,0c.7,10.8,1.4,21.6,2.2,29.8.2,3,.4,5,.5,7.2,0,1,0,2,.4,2.9.1.2.3.5.4.7.5,1,1,1.9,1.6,3,.6,1,1.1,2.1,1.7,3.1h0c3.3,6.6,5.9,13.5,7.6,20.9,0,.2.1.5.2.7,0,.1,0,.3,0,.4,1.5,6.7,2.3,13.7,2.2,20.7h0c.6,65.2-62.7,115-126.8,100.1h0Z"/>
    <path class="cls-2" d="M164.8,294.6c-1.6-.3-7.1-2.2-14.2-4-3.1-.8-6.6-1.8-10.2-2.1-13.1-1.3-20.1-1.6-23.5-1.8-.4,0-.7,0-.9,0"/>
    <path class="cls-2" d="M174.4,308c-27.5-1-41.1,1.9-47.9,2.7-.8.1-1.5.1-1.9,0"/>
    <path class="cls-2" d="M156.4,274.9c-23.6-10.1-36.1-11.3-42.2-12.6-.7-.2-1.3-.3-1.6-.6"/>
    <path class="cls-2" d="M328.8,287.7c.2,0,.5,0,1,0,3.6-.2,11-.8,24.8-.8,3.8,0,7.5.7,10.9,1.2,7.7,1.2,13.6,2.7,15.4,2.8"/>
    <path class="cls-2" d="M326.7,305.2c.4.2,1.1.3,1.9.3,6.8,0,20.3-1.6,48.4,4.7"/>
    <path class="cls-2" d="M333,273.3c.4.1,1.1.1,1.9,0,7-.6,20.8-3.2,48.9-1"/>
    <path id="Marco" class="cls-2" d="M336.5,234.4c-.2-3.1-1.9-3.6-4.4-4-2-.3-4.1-.5-6-1.1-2.6-.8-5.3-1.8-7.8-2.3-6.2-1.3-14.2-2.4-23.2-2.2-4.6,0-8.9.8-13.5,1.7-4.6.9-9.5,1.9-14.3,2.6-5.2.7-9.9,1.4-14.5,2.3-3.5.6-6.7.7-10.6.7-4.8,0-9-.3-13.5-1.4-9.9-2.1-20.1-4-30.1-5.4-12.5-2.3-28.2,0-39.6,3.8-2.3.4-5.2.7-7.6,1.2-.7.2-1.3.3-1.8.6-1.7,1.2-1.1,4.5-1,6.7,0,1,0,2,.5,3,.3.7.7,1.4,1.3,2,3,3.3,3.8,3.2,5.1,7.8.7,2.4,1.2,4.6,2.1,7.1.8,2.4,1.8,4.7,2.7,7.1,1,2.7,1.8,5.8,2.9,8.5.9,2.2,2.1,4.3,3.6,6.2,6.4,7.7,16.8,9.8,26.8,10.4,19.6,1.5,34-10.9,39.7-28.5,1-3.3,2-7,3.6-10.2.6-1.1,1.1-2.5,2.1-3,1.5-.9,3.4-.7,5.1-.6,1.4,0,3.3,0,4.2.8.9.7,1.5,1.6,2.1,2.6.5,1,1.1,2,1.5,3,.6,1.5,1,3.1,1.5,4.9,4.9,19.8,18.2,29.7,37.3,30.6,21.4,1.9,33.4-10.5,37.2-30.5.3-1.5.6-2.8,1.1-4.2,1.1-3.1,2.3-6.8,4.2-9.4.8-1,1.9-1.8,2.6-2.8h0c.5-.7.7-1.6.7-2.4,0-1.5,0-3.6-.2-5.2h0ZM231.8,247.9c-.3,2.2-.9,4.6-1.4,6.7-.4,1.5-.7,2.7-1.1,4h0c-7.6,21-20.9,29.2-42.4,26.3-11-1.1-18.1-8.1-22.3-22.7-1.4-4.8-2.6-9.4-2.8-14.4-.8-15.1,13.8-18.3,26.6-19,12.4-.6,33.1,0,40.8,10.1,2.1,2.6,3.2,5.5,2.7,8.9h0ZM324.6,249.1c-.1,2.8-.5,5.6-1,8.4h0c-1.8,10.3-5.9,21.2-16.1,25.5-5.8,2.5-13.4,2.7-19.6,2.1-14-1.1-24.7-11.2-29.7-24.4-1.9-5.2-4-12-2.6-17.4,2.6-8.2,13.3-12,24-13.6,5.7-.9,11.6-.6,17.1,0,5.2.4,10.2.9,15.1,1.9,2.8.6,5.7,1.4,8,3.2,4.5,3.4,5.3,9.1,4.9,14.5h0Z"/>
    <path class="cls-3" d="M218.1,159.8c-1.2.9-1.6,2.4-2.1,3.7-.7,1.7-1.5,3.9-2.1,5.8-1.8,5.8-4.3,13.7-1.9,19.6,1.4,3.3,4.7,5.4,8,6.5,2.6.9,5.3,1.3,8.1,1.5,3.2.3,4.3-.5,6-3.1,2.8-4.3,5.2-9.3,4.5-14.6-.2-1.7-.6-3.4-.9-5.1-.7-4-1.2-8.7-2.6-12.1-1.3-3.3-4-4-7.2-3.9-2,0-4,.3-5.9.6-1.2.2-2.7.4-3.7,1.1h0s0,0,0,0Z"/>
    <path class="cls-3" d="M250.5,162.4c-5.5,6.2-6,22.8,1,27.9,3.9,2.9,9.2,1.2,12.9-1.4,1.9-1.3,3.7-2.9,4.8-4.9,4.2-8.7-6.4-16.3,6.1-27.5,3.3-3,7.3-6.2,10.8-8.9.6-.6,3.1-2.4,2.8-2.7-.2,0-.4,0-.7,0-1.5.4-5.1,2-9.1,3.7-3.9,1.6-7.9,3.3-11.8,5-2,.9-4.1,1.7-6.1,2.6-4,1.7-8.4,3.5-10.7,6.2h0s0,0,0,0Z"/>
    <path class="cls-2" d="M257.5,279.1c0,1-.9,1.9-1.4,2.8-.8,1.3-1.7,2.6-2.7,4.2-1.8,2.7-3.7,5.5-5.5,8-1,1.4-2.4,3.3-3.3,4.4-.9,1-1.3,1.7-2.3.3-3.3-4.2-6.3-8.9-9.4-13.5-.9-1.5-1.9-2.9-2.7-4.4-.4-.8-1.2-1.7-1.1-2.6.5-2.7,10.5-3.3,12.6-3.4,2.1-.1,4.2,0,6.3.3,2.5.3,8.8.7,9.4,3.8h0s0,0,0,0Z"/>
    <path class="cls-12" d="M283.2,165c-3,4.7,10-21.1,36.4-34.4.8-.4,7,78.9,5.9,77.6-29.4-35.2-42.4-43.2-42.4-43.2h0Z"/>
    <path class="cls-3" d="M159.5,136.5c.8,0,28.9,12,38.4,30.5,0,.2.1.2.1.2-.7.7-8.6,7.2-22.2,23.1-5.6,6.4-12.1,14.4-19.3,23.5-1-5.3,2.8-71.7,3-77.3h0Z"/>
    <g id="der">
      <ellipse class="cls-18" cx="197.6" cy="256.8" rx="23" ry="23.1"/>
      <ellipse class="cls-2" cx="197.7" cy="256.9" rx="21.5" ry="21.6"/>
      <path class="cls-11" d="M197.3,241.5c.2,0,.4.3.9.8.3.4.7.8,1.1,1.3,1,1.3,2.1,2.6,3.1,3.8.6.7.7.8,1.5,1.1.7.3,1.3.5,2,.8,1.3.5,2.8,1.1,4,1.5.6.2,1,.4,1,.6,0,.2,0,.5-.4,1-.9,1.4-2,3.1-3,4.5-.1.2-.3.4-.4.6-.7,1-.6,2-.7,3.1-.1,1.7-.2,3.7-.3,5.4,0,.7,0,1.2-.2,1.4-.1.3-.4.2-1,0-.4-.1-.9-.3-1.6-.5-1.3-.4-2.7-.8-4-1.2-1-.3-1.7-.6-2.7-.2-1.5.4-3.1.9-4.7,1.3-1,.2-2.4.7-3.1.8-.3,0-.3-.3-.3-1,0-.4,0-1,0-1.7,0-1.7-.1-3.5-.2-5.2,0-1-.2-1.3-.7-2.1-.5-.8-1.1-1.7-1.7-2.5-.6-.8-1.2-1.9-1.7-2.6-.3-.5-.6-.8-.5-1,0-.2.4-.3,1-.6,1.2-.5,2.8-1.1,4.1-1.6.7-.3,1.4-.5,2-.8.8-.3,1-.5,1.5-1.1,1-1.2,2-2.5,2.9-3.8.4-.5.8-1,1-1.4.4-.5.6-.8.8-.8h0,0Z"/>
    </g>
    <g id="izq">
      <ellipse class="cls-18" cx="289.4" cy="256.8" rx="23" ry="23.1"/>
      <ellipse class="cls-2" cx="289.9" cy="256.9" rx="21.5" ry="21.6"/>
      <path class="cls-11" d="M289.6,241.5c.2,0,.4.3.9.8.3.4.7.8,1.1,1.3,1,1.3,2.1,2.6,3.1,3.8.6.7.7.8,1.5,1.1.7.3,1.3.5,2,.8,1.3.5,2.8,1.1,4,1.5.6.2,1,.4,1,.6,0,.2,0,.5-.4,1-.9,1.4-2,3.1-3,4.5-.1.2-.3.4-.4.6-.7,1-.6,2-.7,3.1-.1,1.7-.2,3.7-.3,5.4,0,.7,0,1.2-.2,1.4-.1.3-.4.2-1,0-.4-.1-.9-.3-1.6-.5-1.3-.4-2.7-.8-4-1.2-1-.3-1.7-.6-2.7-.2-1.5.4-3.1.9-4.7,1.3-1,.2-2.4.7-3.1.8-.3,0-.3-.3-.3-1,0-.4,0-1,0-1.7,0-1.7-.1-3.5-.2-5.2,0-1-.2-1.3-.7-2.1-.5-.8-1.1-1.7-1.7-2.5-.6-.8-1.2-1.9-1.7-2.6-.3-.5-.6-.8-.5-1,0-.2.4-.3,1-.6,1.2-.5,2.8-1.1,4.1-1.6.7-.3,1.4-.5,2-.8.8-.3,1-.5,1.5-1.1,1-1.2,2-2.5,2.9-3.8.4-.5.8-1,1-1.4.4-.5.6-.8.8-.8h0,0Z"/>
    </g>
  </g>
</svg>