<?xml version="1.0" encoding="UTF-8"?>
<svg id="Capa_1" data-name="Capa 1" xmlns="http://www.w3.org/2000/svg" viewBox="0 0 194.07 144.8">
  <defs>
    <style>
      .cls-1 {
        fill: #eee;
        stroke-width: 0px;
      }
    </style>
  </defs>
  <path class="cls-1" d="M0,30.52c1.63-4.78,5.01-6.59,9.97-6.46,7.53.2,15.06.05,22.6.05h2.21c-2.63-3.97-3.48-8.05-1.97-12.2,1.28-3.51,3.26-6.71,6.49-8.96,5.79-4.03,13.37-3.96,18.99.28,6.25,4.71,7.76,11.56,4.43,20.94h28.07c-3.1,6.43-1.58,12.91-1.93,19.24-.09,1.55-.01,3.11-.01,4.65-16.47.89-24.23,14.11-24.18,24.39.05,10.16,7.58,23.21,23.98,24.2,1,7.77-1.31,15.82,1.98,23.74h-27.95c3.74,9.01,2.37,16.48-5.65,21.91-5.57,3.77-13.01,3.17-18.31-.99-3.17-2.48-5.14-5.81-6.19-9.58-1.07-3.83-.1-7.51,2.26-11.11h-4.27c-6.84,0-13.69-.15-20.53.05-4.96.15-8.34-1.69-9.97-6.46V30.52Z"/>
  <path class="cls-1" d="M131.3,120.6c-8.95,0-17.74.14-26.52-.06-4.16-.1-8.03-3.38-7.97-8.31.11-7.85.03-15.7.03-23.55,0-.68,0-1.37,0-2.3-4.63,2.32-9.26,2.78-13.95.94-3.18-1.25-5.72-3.35-7.59-6.23-3.78-5.83-3.38-13.43.99-18.81,4.83-5.95,11.63-7.34,20.46-4.05.03-.69.09-1.34.09-1.99,0-7.79.17-15.58-.05-23.36-.15-5.42,4.37-8.76,8.75-8.76,8.54,0,17.07,0,25.77,0-3.66,8.77-2.27,16.24,5.73,21.67,5.51,3.74,12.94,3.34,18.14-.9,6.86-5.6,7.91-12.68,4.37-20.77,4.34,0,8.53,0,12.72,0,4.46,0,8.92-.02,13.37,0,5.01.03,8.41,3.39,8.41,8.4.02,26.57.02,53.13,0,79.7,0,4.76-3.29,8.32-7.87,8.36-8.66.08-17.33.02-25.99.02-.17,0-.34-.07-.51-.11,3.03-10.19,1.5-16.53-5.1-21.14-5.65-3.95-13.3-3.79-18.83.41-6.21,4.71-7.68,11.4-4.46,20.84Z"/>
</svg>