<?xml version="1.0" encoding="UTF-8"?>
<svg id="Capa_2" data-name="Capa 2" xmlns="http://www.w3.org/2000/svg" viewBox="0 0 191.83 164.57">
  <defs>
    <style>
      .cls-1 {
        fill: #000;
        stroke-width: 0px;
      }
    </style>
  </defs>
  <path class="cls-1" d="M3.3,104.07c4.15-3.93,11.79-3.03,17.41-3.17,11.56-.21,23.43.69,34.75-1.24,5.35-.88,10.51-2.63,15.78-3.85,5.92-1.39,12-1.67,18.05-1.07,9.77,1.08,19.5,2.62,29.25,3.92,3.37.48,7.21,1.11,10.02,2.78,5.74,3.19,3.11,9.6-1.33,12.48-9.97,6.73-24.46,3.1-35.91,5.03-4.74.46-17.69,3.78-9.42,8.9,1.92,1.19,4.44,2.2,6.66,3.07,7.87,3.03,15.59,6.35,23.84,7.57,11.61,1.61,23.46.98,35.08-.6,11.87-1.43,27.69-5.66,37.66,2.64,7.89,8.55-7.94,12.77-14.36,14.78-9.59,2.95-19.12,6.71-28.97,8.24-8.17,1.3-16.63.95-25.02,1.01-7.35-.02-14.78.18-22.02-1.18-12.12-2.21-23.06-8.36-34.84-11.73-15.72-4.45-32.63-1.65-48.82-2.79C-1.07,148.08,0,137.41.04,128.48c0-2.29,0-4.58,0-6.87.22-6.72-.9-12.96,3.16-17.43l.1-.1Z"/>
  <path class="cls-1" d="M189.93,74.12c-2.74,2.43-9.08,2.52-11.77-.42-2.16-2.78-2.22-8.41.39-11.04,2.83-2.37,8.28-2.39,11.17-.1,2.77,2.73,2.72,8.67.31,11.46l-.1.1Z"/>
  <path class="cls-1" d="M153.92,57.86c-.07,4.4-2.12,9.48-6,13.79-5.99,6.67-13.34,11.6-21.07,16-2.14,1.22-4.54,1.28-6.68.06-8.09-4.6-15.85-9.69-21.9-16.9-5.86-6.99-6.97-16.43-3-23.62,4.23-7.67,12.81-10.86,21.47-7.87,1.89.65,3.7,1.62,5.44,2.62.95.55,1.58.58,2.53-.02,4.79-3.01,9.96-4.55,15.63-3.28,8.13,1.82,13.58,9.03,13.58,19.22Z"/>
  <path class="cls-1" d="M69.83,25.13c.23-4.66,5.86-10.41,10.92-9.99,4.56.81,9.46,5.76,9.52,10.4-.41,4.59-5.13,9.33-9.7,9.93-4.88.14-10.41-5.56-10.74-10.15v-.19Z"/>
  <path class="cls-1" d="M176.52,25.6c-.24,4.64-5.84,10.41-10.89,10-4.55-.8-9.44-5.75-9.51-10.38.41-4.59,5.12-9.32,9.69-9.93,4.93-.12,10.35,5.48,10.71,10.12v.19Z"/>
  <path class="cls-1" d="M128.9,1.89c2.44,2.71,2.55,9-.4,11.66-2.78,2.13-8.39,2.19-11.02-.39-2.37-2.79-2.38-8.19-.11-11.07,2.72-2.78,8.64-2.7,11.43-.31l.1.1Z"/>
  <path class="cls-1" d="M67.95,74.13c-2.72,2.44-9.01,2.55-11.67-.4-2.13-2.79-2.19-8.4.39-11.05,2.78-2.38,8.2-2.38,11.08-.11,2.78,2.73,2.71,8.66.3,11.46l-.1.1Z"/>
</svg>