<?xml version="1.0" encoding="UTF-8"?>
<svg id="Capa_2" data-name="Capa 2" xmlns="http://www.w3.org/2000/svg" viewBox="0 0 188.58 148.92">
  <defs>
    <style>
      .cls-1 {
        fill: #000;
        stroke-width: 0px;
      }
    </style>
  </defs>
  <path class="cls-1" d="M188.58,44.26v8.84c-.11.47-.28.94-.33,1.41-.82,8.42-3.36,16.3-7.31,23.75-4.93,9.29-11.86,16.98-19.48,24.08-19.1,17.79-40.67,32.18-63.07,45.4-2.91,1.72-5.81,1.46-8.71-.25-14.83-8.71-29.18-18.12-42.86-28.55-11.2-8.54-21.98-17.56-30.97-28.48C4.33,76.47-1.57,60.56.36,42.26c1.31-12.4,6.21-23.22,15.73-31.51C28.24.17,42.38-2.03,57.66,1.77c13.43,3.34,24.63,10.74,34.95,19.65.54.47,1.09.93,1.68,1.42.69-.6,1.23-1.09,1.79-1.57,8.03-6.94,16.69-12.91,26.61-16.86,10.33-4.12,20.95-5.88,31.87-3.02,17.24,4.52,27.37,16.2,32.11,32.95.91,3.22,1.28,6.6,1.89,9.91ZM65.29,76.01c4.84,4.84,9.74,9.73,14.65,14.63,4.37,4.36,8.59,4.38,12.93.04,9.72-9.72,19.44-19.44,29.16-29.17.42-.42.82-.87.97-1.03-3.71-3.76-7.35-7.43-11.15-11.27-8.42,8.42-16.96,16.97-25.75,25.75-3.29-3.33-6.6-6.67-9.84-9.95-3.6,3.61-7.2,7.2-10.99,10.99Z"/>
</svg>