<?xml version="1.0" encoding="UTF-8"?>
<svg id="Capa_2" data-name="Capa 2" xmlns="http://www.w3.org/2000/svg" viewBox="0 0 191.82 165.32">
  <defs>
    <style>
      .cls-1 {
        fill: #000;
        stroke-width: 0px;
      }
    </style>
  </defs>
  <path class="cls-1" d="M71.89,165.32v-16.72h15.88V40.75c-11.8,4.29-23.52,8.54-35.45,12.87.37.7.64,1.37,1.03,1.96,4.67,7.16,9.38,14.3,14.03,21.47,3.72,5.76,7.32,11.6,11.08,17.33,1.89,2.89,1.55,6.03,1.21,9.09-.86,7.78-3.61,14.8-8.35,21.15-4.37,5.86-10.03,9.71-16.53,12.73-8.86,4.11-17.93,4.25-26.91,1.21-6.75-2.28-12.91-6.01-17.58-11.6C3.67,119.05-.04,109.93,0,99.51c0-1.61.51-3.36,1.28-4.78,1.53-2.84,3.38-5.52,5.15-8.24,4.18-6.44,8.42-12.84,12.59-19.29,4.57-7.07,9.09-14.17,13.65-21.24,1.56-2.42,3.66-4.09,6.43-5.06,8.6-3,17.17-6.07,25.73-9.18,11.34-4.13,22.66-8.33,33.99-12.51,10.33-3.81,20.66-7.63,30.97-11.47,5.87-2.19,11.76-4.37,17.58-6.69,7.02-2.79,10.23.42,13.01,5.36.24.43.42.9.69,1.31,4.67,7.16,9.37,14.3,14.02,21.47,5.09,7.85,10.16,15.71,15.2,23.6.65,1.02,1.04,2.22,1.55,3.33v5.63c-.12.41-.29.82-.34,1.24-1.36,11.58-6.81,21-15.84,28.07-15.19,11.89-37.2,9.65-49.38-1.57-8.18-7.53-12.91-16.51-14.16-27.43-.37-3.23-.53-6.49,1.4-9.43,4.49-6.83,8.97-13.67,13.41-20.52,1.56-2.4,3-4.87,4.67-7.6-.93.32-1.52.51-2.09.72-7.98,2.97-15.95,5.99-23.95,8.88-1.37.5-1.72,1.16-1.72,2.56.04,36.58.03,73.16.03,109.74v2.19h16.02v16.72h-47.97ZM22.81,90.91h34.21c-5.81-8.98-11.44-17.69-17.1-26.45-5.68,8.78-11.3,17.48-17.1,26.45ZM151.85,23.05c-5.73,8.91-11.26,17.52-16.9,26.3h33.79c-5.64-8.78-11.14-17.34-16.89-26.3Z"/>
</svg>