<?xml version="1.0" encoding="UTF-8"?>
<svg id="Capa_2" data-name="Capa 2" xmlns="http://www.w3.org/2000/svg" viewBox="0 0 173.65 189.39">
  <defs>
    <style>
      .cls-1 {
        fill: #000;
        stroke-width: 0px;
      }
    </style>
  </defs>
  <path class="cls-1" d="M167.41,189.39H6.25C1.52,187.68,0,184.21,0,179.33.08,122.86.05,66.38.05,9.91c0-.74-.03-1.48.03-2.22C.41,4.25,2.07,1.44,5.44.71,8.78-.02,12.32.2,15.86,0c0,7.73.01,15-.01,22.26,0,.99.14,1.66,1.19,2.18,8.66,4.27,17.28,8.63,25.93,12.93,2.84,1.41,5.05.52,6.19-2.45,1.62-4.25,3.2-8.52,4.8-12.78,2.74-7.3,5.48-14.6,8.23-21.92h8.35c-.23.66-.41,1.23-.62,1.79-1.5,4.03-3.04,8.05-4.49,12.1-.27.76-.4,1.71-.2,2.47,1.86,7.2,3.83,14.38,5.7,21.58.3,1.14.84,1.4,1.92,1.4,9.36-.04,18.72-.04,28.09,0,1.17,0,1.57-.42,1.85-1.49,1.77-6.78,3.63-13.54,5.38-20.33.21-.81.09-1.84-.22-2.64-1.67-4.36-3.44-8.69-5.17-13.03-.23-.58-.39-1.2-.63-1.93,2.27,0,4.3.1,6.32-.03,1.51-.09,2.23.38,2.81,1.85,4.34,11.04,8.77,22.05,13.2,33.05,1.17,2.91,3.31,3.77,6.06,2.41,8.71-4.32,17.39-8.7,26.11-13,1.04-.51,1.18-1.19,1.18-2.18-.03-6.65-.01-13.3-.01-19.95,0-.66,0-1.32,0-2.08,3.12,0,6.07-.15,9,.05,2.24.15,4.3,1.28,5.27,3.31.86,1.81,1.47,3.95,1.47,5.95.08,56.6.03,113.19.11,169.79,0,4.88-1.52,8.35-6.24,10.07ZM69.83,47.52c-.13.6-.26,1.08-.34,1.56-.91,5.96-1.8,11.92-2.72,17.88-3.76,24.38-7.53,48.75-11.3,73.13-.5,3.22.36,5.88,2.71,8.2,7.54,7.44,14.99,14.97,22.49,22.45,3.92,3.91,8.39,3.91,12.33-.02,7.5-7.48,14.96-15,22.49-22.45,2.35-2.33,3.2-5.01,2.68-8.22-.52-3.22-1-6.44-1.49-9.67-3.81-24.74-7.61-49.49-11.43-74.23-.44-2.89-.93-5.77-1.39-8.64h-34.04Z"/>
</svg>