<?xml version="1.0" encoding="UTF-8"?>
<svg id="Capa_2" data-name="Capa 2" xmlns="http://www.w3.org/2000/svg" viewBox="0 0 135.95 181.19">
  <defs>
    <style>
      .cls-1 {
        fill: #eee;
        stroke-width: 0px;
      }
    </style>
  </defs>
  <path class="cls-1" d="M14.96,0c.03.65.08,1.29.08,1.94,0,59.06,0,118.12,0,177.17v2.07H.08c-.03-.64-.08-1.27-.08-1.9C0,120.11,0,60.94,0,1.76c0-.59.06-1.17.08-1.76,4.96,0,9.92,0,14.87,0Z"/>
  <path class="cls-1" d="M22.76,105.8V15.24c.54-.04.99-.1,1.45-.1,34.52,0,69.03,0,103.55,0,4.62,0,7.9,2.63,8.08,6.88.07,1.75-.57,3.75-1.48,5.3-6.2,10.58-12.53,21.08-18.9,31.56-.72,1.19-.69,1.98.01,3.15,6.39,10.53,12.69,21.12,19.05,31.67,1.62,2.69,2,5.4.45,8.2-1.26,2.27-3.25,3.53-5.83,3.81-.76.08-1.53.09-2.3.09-33.93,0-67.85,0-101.78,0h-2.3ZM54.89,37.51c-6.54.19-11.97,3.32-14.96,9.8-3.78,8.17-2.11,15.87,3.41,22.64,5.91,7.24,13.69,12.22,21.71,16.8,2.13,1.21,4.52,1.12,6.63-.09,7.29-4.18,14.22-8.86,20.06-14.99,3.73-3.92,5.98-8.53,6.66-13.95,1.07-8.52-4.13-17.03-12.06-19.42-5.88-1.77-11.33-.43-16.41,2.67-1.31.8-2.17.76-3.43-.05-3.33-2.13-7.02-3.3-11.61-3.41Z"/>
</svg>