<?xml version="1.0" encoding="UTF-8"?>
<svg id="Capa_2" data-name="Capa 2" xmlns="http://www.w3.org/2000/svg" viewBox="0 0 174.32 188.29">
  <defs>
    <style>
      .cls-1 {
        fill: #eee;
        stroke-width: 0px;
      }
    </style>
  </defs>
  <path class="cls-1" d="M93.47,1.41c1.65,1.76,1.26,4.65,1.32,7.68-.2,3.73.51,7.77-.55,11.37-1.39,3.27-5.02,2.69-8.55,2.75-1.89-.04-4.12-.27-5.24-1.95-1.67-3-.75-7-.98-10.35.09-3.07-.4-7.18,1.05-9.07C81.97-.08,84.62.03,86.84,0c2.16,0,5.04-.15,6.54,1.31l.1.1Z"/>
  <path class="cls-1" d="M41,130.64c9.17-3.51,5.12-30.08,7.56-38.67.76-6.82,9-18.47,15.64-10.65,2.15,3,2.77,6.76,3.37,10.4,1.2,8.3,2.41,16.67,3.55,24.99,3.29,17.22-4.53,30.43-5.5,47.03,0,23.3-2.89,24.92-25.88,24.41-18.95.51-24.51-1.23-24.06-20.87,0-22.93-16.67-42.31-15.63-65.4C-.04,83.1.02,64.25,0,45.46c.16-4.99-.13-11.48,4.51-14.27,3.33-1.67,7.51.31,10.3,2.63,6.93,5.76,9.4,14.84,10.29,23.78,1.7,21.62-2,39.36,7.77,60.04,2.46,5.23,3.58,11.7,8.05,13h.08Z"/>
  <path class="cls-1" d="M133.41,130.59c4.48-1.43,5.5-7.63,7.96-12.87,10.49-22.15,5.47-40.84,8.13-63.7.96-6.64,3.23-13.2,7.5-17.91,4.79-5.8,14.45-8.9,16.44,1.17,1.82,21.29.22,43.1.67,64.49-.07,4.49-.38,8.98-1.18,13.38-4.45,20.78-15.78,35.27-14.56,58.12-.08,15.68-10.63,15.13-23.93,14.95-23.79.58-25.47-1.77-25.72-25.22-1.16-16.36-8.62-29.56-5.38-46.51,1.09-8.05,2.29-16.12,3.43-24.17.55-3.57,1.31-7.58,3.3-10.49,6.43-8.4,14.97,3.06,15.68,10.05,2.46,8.46-1.6,35.44,7.59,38.71h.08Z"/>
  <path class="cls-1" d="M43.14,20.37c.02-2.45,2.42-4.64,4.19-6.42,1.79-1.73,3.84-3.79,6.49-3.39,2.68.35,5.62,4,8.16,6.42,2.3,2.58,5.79,4.88,6.7,8.31.55,2.84-1.87,5.11-3.71,6.98-2.58,2.55-4.74,4.62-7.79,3.51-3.7-1.81-6.24-5.54-9.29-8.27-2.34-2.39-4.64-4.32-4.76-6.96v-.16Z"/>
  <path class="cls-1" d="M115.21,36.2c-2.44,0-4.62-2.38-6.4-4.14-1.73-1.78-3.79-3.83-3.4-6.47.35-2.68,4.01-5.61,6.44-8.14,2.58-2.29,4.89-5.76,8.3-6.67,2.4-.5,4.47,1.27,6.11,2.85,2.66,2.72,5.59,5.04,4.35,8.57-1.8,3.68-5.54,6.2-8.27,9.24-2.4,2.33-4.34,4.63-6.98,4.77h-.16Z"/>
</svg>