<?xml version="1.0" encoding="UTF-8"?>
<svg id="Capa_2" data-name="Capa 2" xmlns="http://www.w3.org/2000/svg" viewBox="0 0 181.59 173.92">
  <defs>
    <style>
      .cls-1 {
        fill: #000;
        stroke-width: 0px;
      }
    </style>
  </defs>
  <path class="cls-1" d="M181.59,55.87v9.22c-.1.33-.26.66-.29,1-1.15,12.09-5.56,22.87-13.14,32.34-.69.86-.74,1.56-.45,2.56,2.71,9.48,5.35,18.97,8.03,28.45,1.93,6.81,3.9,13.61,5.85,20.41v2.84c-1.04,3.02-2.85,5.22-6.11,6.03-19.93,4.96-39.84,9.97-59.77,14.9-4.82,1.2-8.71-1.35-9.71-6.25-2.01-9.89-4.01-19.78-5.94-29.68-.24-1.23-.69-1.62-1.95-1.61-7.27.06-14.54.05-21.8.02-5.2-.02-8.2-3.07-8.21-8.31,0-7.68-.03-15.36.03-23.05.01-1.29-.32-2.01-1.54-2.57-3-1.38-5.93-2.92-8.88-4.41-3.95-1.99-5.43-5.22-4.36-9.53.95-3.84,2.02-7.65,2.86-11.51,1.64-7.47,4.45-14.7,4.67-22.47.04-1.53.32-3.06.6-4.56C67.66,17.55,96.6-3.54,129.04.49c24.9,3.09,45.91,22.33,51.1,46.85.6,2.82.97,5.68,1.45,8.53Z"/>
  <path class="cls-1" d="M32.83,141.11c-2.1,4.6-4.12,9.04-6.14,13.46C13.36,150.72.87,132.53.06,115.89c-1.01-20.69,11.52-37.12,26.58-43.69,2.05,4.48,4.09,8.97,6.2,13.58-11.12,5.9-17.56,14.89-17.59,27.6-.02,12.71,6.37,21.73,17.59,27.73Z"/>
  <path class="cls-1" d="M36.07,133.95c-7.47-2.7-13.23-11.42-13.36-20.02-.14-9.09,5.37-17.87,13.33-21,1.04,2.26,2.09,4.53,3.13,6.81,1.02,2.24,2.03,4.48,3.04,6.71-6.22,3.87-5.32,10.99.02,13.97-1,2.22-2.01,4.45-3.03,6.69-1.02,2.25-2.05,4.5-3.13,6.85Z"/>
</svg>