<?xml version="1.0" encoding="UTF-8"?>
<svg id="Capa_1" data-name="Capa 1" xmlns="http://www.w3.org/2000/svg" viewBox="0 0 187.87 148.13">
  <defs>
    <style>
      .cls-1 {
        fill: #eee;
        stroke-width: 0px;
      }
    </style>
  </defs>
  <path class="cls-1" d="M53.25,148.13c-1.29-.69-2.64-1.28-3.85-2.08-2-1.31-2.44-3.36-2.44-5.61.02-12.45,0-24.91,0-37.36,0-8.43.08-16.86-.03-25.29-.06-4.74,1.49-8.93,4.37-12.47,4.38-5.39,10.22-8.36,17.21-8.78,2.64-.16,5.3.06,7.93-.13,1.55-.11,2.15.7,2.62,1.83.38.91.64,1.87.97,2.81,1.73,4.85,3.45,9.7,5.19,14.54,1.02,2.82,2.05,5.64,3.12,8.44,1.8,4.71,3.63,9.4,5.61,14.51,1.38-3.73,2.63-7.08,3.86-10.43,2.54-6.93,5.06-13.86,7.6-20.79,1.05-2.87,2.13-5.73,3.17-8.6.54-1.48,1.25-2.39,3.14-2.31,4.72.19,9.48-.27,14.06,1.4,3.13,1.14,5.99,2.73,8.41,5.02,4.71,4.46,6.81,9.89,6.76,16.46-.16,19.73-.09,39.46-.03,59.19.01,4.78.04,7.27-6.31,9.67H53.25Z"/>
  <path class="cls-1" d="M0,82.65c.71-1.63,1.26-3.35,2.15-4.87,2.79-4.79,7.28-7.04,12.6-7.17,9.41-.23,18.84-.06,28.51-.06-.3.64-.48,1.2-.8,1.67-2.34,3.45-3.1,7.37-3.12,11.4-.09,15.7-.05,31.41-.06,47.11,0,1.03,0,2.06,0,3.26-.86,0-1.51,0-2.16,0-9.31,0-18.63-.08-27.94.04C4.91,134.08,1.75,132.64,0,128.62,0,113.3,0,97.97,0,82.65Z"/>
  <path class="cls-1" d="M93.48,56.44c-8.05-.37-14.94-2.64-20.85-7.66-2.66-2.26-4.81-4.83-6.57-7.86-4.13-7.13-4.3-14.59-1.65-22.07,2.07-5.85,6.17-10.29,11.47-13.65C81.69,1.52,88-.17,94.81.01c7.59.2,14.41,2.57,20.31,7.48,2.77,2.3,4.99,4.97,6.76,8.13,4.28,7.63,4.36,15.54,1.03,23.29-2.74,6.38-7.7,10.98-14.05,14.07-5.02,2.44-10.28,3.46-15.38,3.47Z"/>
  <path class="cls-1" d="M148.59,133.86c0-.82,0-1.47,0-2.12,0-15.37-.02-30.75.01-46.12,0-3.96-.48-7.81-2.05-11.45-.51-1.17-1.25-2.24-2.01-3.57.82-.04,1.4-.09,1.97-.09,8.16,0,16.31.04,24.47-.02,4.57-.03,8.8,1.02,12.21,4.08,2.74,2.46,4.65,5.57,4.65,9.46.02,14.38,0,28.76.03,43.14,0,3.67-3.77,6.86-7.84,6.84-10.09-.05-20.17-.01-30.26-.02-.32,0-.64-.07-1.18-.13Z"/>
  <path class="cls-1" d="M172.06,42.46c.06,3.07-.5,6.25-2.12,9.05-3.1,5.37-7.7,9.06-13.66,10.84-7.22,2.16-14.22,1.37-20.67-2.49-4.05-2.42-7.3-5.75-8.91-10.38-1.06-3.07-2.1-6.15-1.41-9.45,1.11-5.31,3.29-9.92,7.75-13.4,7.04-5.48,14.79-6.66,23.18-4.37,3.46.95,6.5,2.77,9.2,5.24,4.36,4.01,6.68,8.84,6.63,14.96Z"/>
  <path class="cls-1" d="M38.25,21.04c8.57.41,15.22,2.86,20.07,9.23,3.33,4.38,5.12,9.25,4.15,14.69-.92,5.15-3.32,9.58-7.58,12.97-5.83,4.64-12.38,6.24-19.63,5.22-4.89-.69-9.12-2.79-12.88-6.09-7.19-6.3-8.1-15.84-4.96-22.81,2.8-6.22,7.88-10.11,14.38-12.02,2.35-.69,4.84-.91,6.45-1.2Z"/>
</svg>