<?xml version="1.0" encoding="UTF-8"?>
<svg id="Capa_1" data-name="Capa 1" xmlns="http://www.w3.org/2000/svg" viewBox="0 0 187.82 187.64">
  <defs>
    <style>
      .cls-1 {
        fill: #eee;
        stroke-width: 0px;
      }
    </style>
  </defs>
  <path class="cls-1" d="M177.74,86.04c-14.54.2-29.08.07-43.63.07-5.88,0-8.92,3.03-8.93,8.9,0,8.49,0,16.99,0,25.48,0,6.66-.04,13.32.02,19.98.04,4.73,3.13,8.12,7.63,8.14,15.83.07,31.65.03,47.48.02,2.13,0,3.98-.82,5.34-2.43.88-1.04,1.46-2.33,2.18-3.51v-50.62c-1.8-4.62-5.23-6.1-10.08-6.03Z"/>
  <path class="cls-1" d="M62.29,104.95c-2.27-14.92-14.45-25.82-29.82-26.68-14.33-.81-27.75,9.22-31.47,23.52-.36,1.4-.67,2.82-1,4.23v6.97c.11.34.28.67.33,1.02,2.51,17.37,18.46,29.09,36.05,26.46,16.6-2.48,28.47-18.74,25.91-35.51Z"/>
  <path class="cls-1" d="M76.29,54.77c9.66-.06,19.32-.02,28.97-.02,5.62,0,11.25,0,16.87,0,3.07,0,5.45-1.31,6.95-3.99,1.66-2.97,1.14-5.82-.57-8.66-7.29-12.08-14.57-24.16-21.75-36.3-1.54-2.61-3.32-4.78-6.25-5.8h-3.3c-2.89.94-4.7,2.98-6.22,5.56-7.21,12.19-14.52,24.33-21.85,36.46-1.75,2.89-2.32,5.78-.57,8.81,1.7,2.95,4.4,3.97,7.72,3.95Z"/>
  <path class="cls-1" d="M67.37,158.86c3.01-.89,6.02-1.77,9.12-2.69-1.48-5.14-2.88-10.04-4.31-15-9.12,2.61-18.03,5.16-26.93,7.72-4.7,1.35-6.9,5.11-5.8,9.86,1.21,5.23,2.43,10.46,3.65,15.69,1.01,4.32,2.03,8.65,3.09,13.19,5.12-1.19,10.08-2.35,15.2-3.54-.45-2-.85-3.83-1.27-5.65-.42-1.86-.86-3.72-1.34-5.8,26.91,11,52.79,9.64,78.23-4.09-2.71-4.68-5.29-9.12-7.86-13.56-20.13,10.88-40.6,12.22-61.77,3.86Z"/>
  <path class="cls-1" d="M11.79,68.08c5,1.57,9.82,3.09,14.89,4.68,3.98-12.21,10.56-22.54,20.34-31.41v13.24h15.61v-1.77c0-9.47.01-18.95,0-28.42,0-5.61-3.14-8.71-8.76-8.72-9.47-.01-18.95,0-28.42,0-.6,0-1.19.05-1.85.08v15.55h11.15c-10.87,10.55-18.5,22.6-22.95,36.76Z"/>
  <path class="cls-1" d="M157.07,62.75h-8.28v15.37c.54.04.96.1,1.39.1,7.15,0,14.3.03,21.45,0,4.29-.02,6.79-1.86,8.17-5.97,2.22-6.59,4.4-13.19,6.6-19.79.32-.97.63-1.93,1-3.04-5-1.66-9.84-3.27-14.8-4.92-.97,2.84-1.86,5.49-2.89,8.5-7.97-14.33-18.73-25.47-32.75-33.64-2.63,4.55-5.21,9.01-7.82,13.53,12.2,7.23,21.42,16.98,27.93,29.87Z"/>
</svg>