<?xml version="1.0" encoding="UTF-8"?>
<svg id="Capa_1" data-name="Capa 1" xmlns="http://www.w3.org/2000/svg" viewBox="0 0 256 249.68">
  <defs>
    <style>
      .cls-1 {
        fill: #eee;
        stroke-width: 0px;
      }
    </style>
  </defs>
  <path class="cls-1" d="M128,0C57.32,0,0,57.31,0,128c0,56.55,36.68,104.54,87.54,121.46,6.4,1.18,8.75-2.78,8.75-6.16,0-3.05-.12-13.13-.17-23.83-35.61,7.74-43.12-15.1-43.12-15.1-5.82-14.79-14.21-18.73-14.21-18.73-11.61-7.94.88-7.78.88-7.78,12.85.9,19.62,13.19,19.62,13.19,11.42,19.57,29.94,13.91,37.25,10.64,1.15-8.27,4.47-13.92,8.13-17.12-28.43-3.24-58.32-14.21-58.32-63.26,0-13.97,5-25.39,13.19-34.36-1.33-3.22-5.71-16.24,1.24-33.87,0,0,10.75-3.44,35.21,13.12,10.21-2.84,21.16-4.26,32.04-4.31,10.88.05,21.84,1.47,32.07,4.31,24.43-16.56,35.17-13.12,35.17-13.12,6.97,17.63,2.58,30.65,1.26,33.87,8.21,8.96,13.17,20.38,13.17,34.36,0,49.16-29.94,59.99-58.45,63.16,4.59,3.97,8.68,11.76,8.68,23.7,0,17.13-.15,30.91-.15,35.13,0,3.41,2.3,7.4,8.79,6.14,50.83-16.94,87.46-64.91,87.46-121.44C256,57.31,198.69,0,128,0ZM47.94,182.34c-.28.64-1.28.83-2.19.39-.93-.42-1.45-1.28-1.15-1.92.28-.65,1.28-.84,2.21-.4.93.42,1.46,1.29,1.14,1.93ZM54.24,187.96c-.61.57-1.8.3-2.61-.59-.84-.89-.99-2.09-.38-2.66.63-.57,1.79-.3,2.63.59.84.9,1,2.09.36,2.66ZM58.56,195.15c-.78.54-2.07.03-2.86-1.1-.78-1.14-.78-2.5.02-3.05.79-.55,2.06-.05,2.86,1.07.78,1.16.78,2.52-.02,3.08h0ZM65.86,203.47c-.7.77-2.2.57-3.29-.49-1.12-1.03-1.43-2.5-.73-3.27.71-.78,2.21-.56,3.31.49,1.11,1.03,1.45,2.51.7,3.27ZM75.3,206.28c-.31,1-1.75,1.46-3.2,1.03-1.45-.44-2.39-1.61-2.1-2.63.3-1.01,1.75-1.48,3.21-1.03,1.45.44,2.4,1.6,2.1,2.62h0ZM86.05,207.47c.04,1.05-1.19,1.93-2.71,1.95-1.53.03-2.77-.82-2.79-1.86,0-1.07,1.2-1.93,2.73-1.96,1.52-.03,2.77.82,2.77,1.87ZM96.6,207.07c.18,1.03-.88,2.09-2.39,2.37-1.49.27-2.86-.37-3.05-1.39-.18-1.06.89-2.11,2.38-2.39,1.51-.26,2.87.36,3.06,1.4Z"/>
</svg>