<?xml version="1.0" encoding="UTF-8"?>
<svg id="Capa_1" data-name="Capa 1" xmlns="http://www.w3.org/2000/svg" viewBox="0 0 256 256">
  <defs>
    <style>
      .cls-1 {
        fill: #eee;
        stroke-width: 0px;
      }
    </style>
  </defs>
  <path class="cls-1" d="M218.12,218.13h-37.93v-59.4c0-14.16-.25-32.4-19.73-32.4s-22.78,15.43-22.78,31.37v60.43h-37.93v-122.16h36.41v16.69h.51c7.42-12.7,21.23-20.28,35.93-19.73,38.45,0,45.53,25.29,45.53,58.19l-.02,67.01h0ZM56.96,79.27c-12.16,0-22.01-9.85-22.02-22.01,0-12.16,9.85-22.01,22.01-22.02,12.16,0,22.01,9.85,22.02,22.01,0,12.16-9.85,22.01-22.01,22.02M75.92,218.13h-37.97v-122.16h37.97v122.16h0ZM237.03.02H18.89C8.58-.1.13,8.16,0,18.47v219.05c.12,10.32,8.58,18.58,18.89,18.47h218.14c10.34.13,18.82-8.14,18.97-18.47V18.45C255.85,8.12,247.36-.13,237.03,0"/>
</svg>