<?xml version="1.0" encoding="UTF-8"?>
<svg id="Capa_1" data-name="Capa 1" xmlns="http://www.w3.org/2000/svg" viewBox="0 0 21.27 24">
  <defs>
    <style>
      .cls-1 {
        fill: #eee;
        stroke-width: 0px;
      }
    </style>
  </defs>
  <path class="cls-1" d="M9.28,1.13L1.13,9.28c-1.5,1.5-1.51,3.93,0,5.43,0,0,0,0,0,0l8.15,8.15c1.5,1.5,3.93,1.51,5.43,0,0,0,0,0,0,0l2.72-2.71-2.72-2.72-2.72,2.72L3.84,12,12,3.84l5.44,5.44-5.44,5.44,2.72,2.72,5.42-5.44c1.5-1.5,1.51-3.93,0-5.43,0,0,0,0,0,0L14.7,1.13c-1.49-1.5-3.92-1.51-5.42-.01,0,0,0,0-.01.01h.01Z"/>
</svg>