<?xml version="1.0" encoding="UTF-8"?>
<svg id="Capa_1" data-name="Capa 1" xmlns="http://www.w3.org/2000/svg" version="1.1" xmlns:xlink="http://www.w3.org/1999/xlink" viewBox="0 0 2500 2500">
  <defs>
    <style>
      .cls-1 {
        fill: url(#Degradado_sin_nombre);
      }

      .cls-1, .cls-2 {
        stroke-width: 0px;
      }

      .cls-2 {
        fill: url(#Degradado_sin_nombre_2);
      }
    </style>
    <linearGradient id="Degradado_sin_nombre" data-name="Degradado sin nombre" x1="933.9" y1="1566.3" x2="962.8" y2="1537.2" gradientTransform="translate(-36159.4 61496.9) scale(39.1 -39.1)" gradientUnits="userSpaceOnUse">
      <stop offset="0" stop-color="#387eb8"/>
      <stop offset="1" stop-color="#366994"/>
    </linearGradient>
    <linearGradient id="Degradado_sin_nombre_2" data-name="Degradado sin nombre 2" x1="951.7" y1="1547.8" x2="982.8" y2="1518" gradientTransform="translate(-36159.4 61496.9) scale(39.1 -39.1)" gradientUnits="userSpaceOnUse">
      <stop offset="0" stop-color="#ffe052"/>
      <stop offset="1" stop-color="#ffc331"/>
    </linearGradient>
  </defs>
  <path class="cls-1" d="M1241.8,108c-581.2,0-544.9,252-544.9,252l.7,261.1h554.6v78.3H477.1s-371.8-42.2-371.8,544.3,324.6,565.6,324.6,565.6h193.7v-272.1s-10.4-324.6,319.4-324.6h550s309.1,5,309.1-298.7v-502.2s46.9-303.8-560.4-303.8ZM935.9,283.6c55.1,0,99.8,44.7,99.8,99.8s-44.7,99.8-99.8,99.8h0c-55,0-99.7-44.5-99.8-99.5,0,0,0-.2,0-.3,0-55.2,44.6-99.8,99.8-99.8h0Z"/>
  <path class="cls-2" d="M1258.2,2385.5c581.2,0,544.9-252,544.9-252l-.7-261.1h-554.6v-78.3h775s371.9,42.2,371.9-544.2-324.6-565.6-324.6-565.6h-193.7v272.1s10.4,324.6-319.4,324.6h-550s-309.1-5-309.1,298.7v502.2s-46.9,303.8,560.4,303.8ZM1564.1,2209.9c-55,0-99.7-44.5-99.8-99.5,0,0,0-.2,0-.3,0-55.1,44.7-99.7,99.8-99.7s99.7,44.7,99.7,99.8c0,55-44.6,99.6-99.7,99.7Z"/>
</svg>