<?xml version="1.0" encoding="UTF-8"?>
<svg id="Capa_1" data-name="Capa 1" xmlns="http://www.w3.org/2000/svg" viewBox="0 0 427.41 303.44">
  <defs>
    <style>
      .cls-1 {
        fill: #eee;
        stroke-width: 0px;
      }
    </style>
  </defs>
  <path class="cls-1" d="M404.09,245.06c5.8,7.16,18.54,7.19,23.32,15.15-1.8,9.1-17.58,35.93-26.04,39.59-6.43,2.9-14.08,3.15-21.08,3.3-109.46.43-218.89.5-328.35-.15-13.04.21-28.54-1.78-37.7-11.56-4.08-3.79-17.59-29.1-13.47-33.83,6.78-6.53,23.16-5.61,23.64-17.34,1.3-69.64-2.85-142.76,1.79-214,1.61-6.44,4.54-11.77,8.7-15.85,4.8-4.72,11.23-7.8,19.15-9.06,102.42-2.59,204.96-.55,307.49-.78,16.75-.81,34.66,6.23,39.2,23.62,6.4,73.4-1.7,149.08,3.25,220.76l.09.14ZM214.57,18.07c-51.56,1.25-103.76-1.95-155.1,1.11-15.41,3.04-16.4,20.05-15.78,32.94,1.6,60.25-1.33,120.74.92,180.87,2.34,11.2,9.44,15.61,20.57,16.77,95.24.77,190.39-.63,285.61.46,7.54.16,18.69-.3,24.47-4.94,3.87-2.88,6.22-7.1,7.4-12.79,2.28-60.33-.17-121.16.75-181.65-.3-12.53,1.42-29.94-14.63-31.67-51-2.81-102.84-.32-154.02-1.1h-.19ZM20.8,272.68c2.62,5.59,12.1,8.53,18.77,10.12,11.07,2.39,21.95,2.41,33.02,2.45,98.98.32,198.07.93,297.06-.31,5.39-.18,10.72-.67,15.99-1.69,6.13-1.32,19.68-4.98,20.71-11.29,0-1.92-2.12-2.8-3.82-2.83-48.53-.17-241.81-.01-324.78-.06-22.96,0-40.9-.01-50.69,0-2.45-.06-6.77.12-6.29,3.49l.03.12Z"/>
  <path class="cls-1" d="M268.24,100.64c3.34,2.58,6.94,4.9,9.95,7.82,2.64,2.55,4.65,5.76,6.9,8.71,20.97,27.44,18.23,48.07-9.69,68.7-2.85,2.11-9.07,3.19-11.37,1.52-2.32-1.68-2.47-7.47-2.09-11.31.26-2.58,2.7-5.35,4.85-7.28,17.14-15.44,16.93-30.22.37-46.47-4.17-4.1-3.98-12.61-5.8-19.1,2.29-.86,4.59-1.73,6.88-2.59h0Z"/>
  <path class="cls-1" d="M231.58,149.64c-3.17,1.21-5.03,2.33-7.01,2.61-14.58,2.12-19.82,11.14-21.08,25.12-1.16,12.82-4.32,25.51-7.34,38.08-.64,2.66-4.51,4.55-6.9,6.79-1.1-2.9-3.54-6.03-3.09-8.67,3.3-19.42,6.98-38.78,11.08-58.05.57-2.66,3.86-5.02,6.36-6.88,1.79-1.33,4.31-1.96,6.6-2.31,15.53-2.33,21.53-12.06,21.63-26.88.05-7.04.42-14.13,1.44-21.08.32-2.22,3.19-4.07,4.89-6.09,1.82,1.93,5.34,4.02,5.18,5.77-1.34,14.27-2.99,28.55-5.46,42.67-.62,3.55-4.53,6.53-6.31,8.93h0Z"/>
  <path class="cls-1" d="M223.17,67.02c-3.57,20.55-7.14,41.1-10.72,61.64-.35,2.03-.26,4.44-1.36,5.97-1.48,2.05-3.91,3.42-5.94,5.08-1.39-2.46-2.97-4.85-4.08-7.43-.38-.89.37-2.27.6-3.42,4.96-24.85,9.82-49.72,15.03-74.51.64-3.04,3.18-5.68,4.84-8.51,2.81,1.8,6.71,2.97,8.21,5.54,3.98,6.79,7.34,14.03,10.02,21.43.75,2.09-1.7,5.34-2.68,8.05-2.39-1.62-5.41-2.78-7.01-4.97-1.8-2.46-2.32-5.84-3.4-8.83-1.17-.01-2.33-.02-3.5-.03h-.01Z"/>
  <path class="cls-1" d="M153.5,171.95c-3.34-2.58-6.94-4.9-9.95-7.82-2.64-2.55-4.65-5.76-6.9-8.71-20.97-27.44-18.23-48.07,9.69-68.7,2.85-2.11,9.07-3.19,11.37-1.52,2.32,1.68,2.47,7.47,2.09,11.31-.26,2.58-2.7,5.35-4.85,7.28-17.14,15.44-16.93,30.22-.37,46.47,4.17,4.1,3.98,12.61,5.8,19.1-2.29.86-4.59,1.73-6.88,2.59h0Z"/>
</svg>