<?xml version="1.0" encoding="UTF-8"?>
<svg id="Capa_1" data-name="Capa 1" xmlns="http://www.w3.org/2000/svg" viewBox="0 0 258.46 286.91">
  <defs>
    <style>
      .cls-1 {
        fill: #eee;
        stroke-width: 0px;
      }
    </style>
  </defs>
  <path class="cls-1" d="M207.96,89.79c2.69.43,5.13,1.91,7.32,3.55,9.53,6.72,16.13,15.38,22.88,24.96,28.66,38.06,28.33,73.06-9.72,103.78-4.02,3.38-8.59,6.83-13.39,8.61-5.84,2.01-11.65,2.46-14.93-1.91-2.96-4.43-3.21-12.63-1.27-18.11,2.17-6.26,8.35-11.2,12.99-16.36,22.77-23.6,16.98-47.29-4.12-69.14-2.04-2.46-3.74-4.85-4.95-7.41-2.07-4.36-3.04-9.65-4.07-14.98-1.77-6.93.25-13.89,8.74-13.05l.51.07Z"/>
  <path class="cls-1" d="M147.96,168.27c-5.43,3.8-12.16,4.67-18.38,6.66-22.37,6.59-25.83,27.43-27.64,47.31-2.1,17.07-5.94,33.99-9.97,50.75-.87,3.43-2.07,6.65-4.33,9.39-8.54,10.71-13.43.19-12.84-9.03,4.36-29.7,10.46-59.29,16.37-88.72.82-3.81,1.96-7.53,4.34-10.65,5.46-7.41,14.08-10.23,22.9-12.05,18.33-4.01,29.05-17.4,30.54-36.9.91-11.5.57-23.11,1.97-34.55.51-5.37,2.37-13.33,8.05-14.86,3.05-.76,6.45,1.8,7.77,4.99,1.39,2.89,1.23,6.36.91,9.6-1.89,19.28-4.15,38.63-7.32,57.74-1.16,8.02-5.52,15.59-12.23,20.21l-.16.11Z"/>
  <path class="cls-1" d="M136.7,35.44c-1.99,1.7-2.67,5.17-3.14,7.82-3.97,22.85-7.93,45.73-11.91,68.59-1.19,6.9-2.42,13.77-3.57,20.69-1.06,6.76-2.02,13.5-7.02,18.06-9.29,7.87-13.52-8.03-11.57-15.26,8.09-40.14,15.66-80.42,24.35-120.41,2.74-10.45,8.31-20.79,19.22-10.99,6.66,6.04,10.13,15.56,14.12,23.7,2.36,5.67,5.75,11.89,5.19,17.82-.91,9.79-8.32,9.87-13.9,3.13-3.54-2.81-6.48-16.54-11.67-13.22l-.1.07Z"/>
  <path class="cls-1" d="M50.48,175.78c-2.7-.43-5.13-1.93-7.32-3.58-9.53-6.71-16.12-15.38-22.87-24.94C-8.41,109.14-8.02,74.12,30.19,43.36c3.97-3.33,8.47-6.72,13.2-8.47,5.84-2,11.68-2.48,14.95,1.9,2.94,4.43,3.2,12.66,1.27,18.14-2.17,6.25-8.38,11.18-13.02,16.35-22.74,23.57-17.02,47.26,4.14,69.12,2.05,2.46,3.75,4.84,4.95,7.39,2.08,4.41,3.06,9.79,4.09,15.19,1.75,6.97-.33,13.65-8.78,12.87l-.51-.07Z"/>
</svg>